<svg version="1.1" xmlns="http://www.w3.org/2000/svg" viewBox="0 0 100 100" aria-label="Stopwatch icon" role="img">
  <title>Stopwatch icon</title>
  <path fill="#D2CCC8" d="M48.5,97.3c-4.9,0-9.6-0.9-13.9-2.6c5.1,2.6,10.9,4.1,17,4.1c2.1,0,4.1-0.2,6-0.5c-3.1,0.8-6.3,1.3-9.7,1.3 c-20.9,0-37.8-16.9-37.8-37.8c0-14.1,7.7-26.3,19-32.8l-1.9-3.1l4.8-2.9l2.1,3.5c3.9-1.5,8-2.4,12.4-2.5v-6.8h9.8v7.5h-4.9 c-6.1,0-11.9,1.5-17,4.1c4.3-1.7,9-2.6,13.9-2.6c20.5,0,37.1,15.9,37.1,35.5C85.6,81.3,69,97.3,48.5,97.3z M55.4,24.6h-3.8 c2.1,0,4.1,0.2,6,0.5C56.9,24.9,56.1,24.8,55.4,24.6z"></path>
  <path fill="#FFFFFF" d="M58.6,17.2h-14V7.7h14V17.2z M49.9,54.8L36,44.5c-1-0.7-2.2,0.5-1.5,1.5l10.3,14c-0.6,2.3,0.1,4.8,1.9,6.6 c2.7,2.7,7.2,2.7,9.9,0c2.7-2.7,2.7-7.2,0-9.9C54.7,54.9,52.2,54.3,49.9,54.8 M41.2,73.1c-0.3,0-0.6-0.1-0.8-0.3 c-2.9-3-4.5-6.9-4.5-11c0-1.4,0.2-2.7,0.5-4c0.2-0.6,0.7-0.9,1.3-0.8c0.6,0.2,0.9,0.7,0.8,1.3c-0.3,1.1-0.4,2.3-0.4,3.4 c0,3.6,1.4,7,3.9,9.5c0.4,0.4,0.4,1.1,0,1.5C41.7,73,41.5,73.1,41.2,73.1z M34.3,71.8c0.5-0.3,0.7-0.9,0.5-1.4 c-1.4-2.7-2.1-5.6-2.1-8.6c0-2.9,0.7-5.8,2-8.4c0.3-0.5,0-1.2-0.5-1.4c-0.5-0.3-1.2,0-1.4,0.5c-1.4,2.9-2.2,6.1-2.2,9.3 c0,3.4,0.8,6.6,2.3,9.6c0.2,0.4,0.6,0.6,1,0.6C34,71.9,34.1,71.9,34.3,71.8z"></path>
  <path fill="#00BEE7" d="M53.4,17.2h-8.8V7.7h8.8V17.2z M39.2,26.8c-0.7,0.2-1.3,0.5-1.9,0.7C37.9,27.2,38.6,27,39.2,26.8z M39.2,26.8c0.3-0.1,0.5-0.2,0.8-0.3C39.8,26.6,39.5,26.7,39.2,26.8z M36.6,27.8c0.2-0.1,0.4-0.2,0.7-0.3 C37.1,27.6,36.9,27.7,36.6,27.8z M34.6,94.7c0.7,0.3,1.3,0.7,2,1c-0.6-0.3-1.3-0.6-1.9-0.9C34.7,94.7,34.6,94.7,34.6,94.7z M42.7,97.7c-0.9-0.2-1.8-0.5-2.6-0.8C40.9,97.2,41.8,97.5,42.7,97.7z M42.7,25.7c-0.9,0.2-1.8,0.5-2.6,0.8 C40.9,26.2,41.8,25.9,42.7,25.7z M34.6,28.7c0,0,0.1,0,0.1-0.1c0.6-0.3,1.2-0.6,1.9-0.9C35.9,28.1,35.3,28.4,34.6,28.7z M39.2,96.6 c-0.7-0.2-1.3-0.5-1.9-0.7C37.9,96.2,38.6,96.4,39.2,96.6z M39.2,96.6c0.3,0.1,0.5,0.2,0.8,0.3C39.8,96.8,39.5,96.7,39.2,96.6z M48.5,97.3c-4.9,0-9.5-0.9-13.7-2.5c-12-6.1-20.2-18.6-20.2-33c0-14.4,8.2-26.9,20.2-33c4.3-1.6,8.9-2.5,13.7-2.5 c20.5,0,37.1,15.9,37.1,35.5C85.6,81.3,69,97.3,48.5,97.3z M51.6,92.5c17,0,30.7-13.8,30.7-30.7S68.5,31,51.6,31 c-17,0-30.7,13.8-30.7,30.7S34.6,92.5,51.6,92.5z M37.3,95.9c-0.2-0.1-0.4-0.2-0.7-0.3C36.9,95.7,37.1,95.8,37.3,95.9z M55.4,67.5 c1.8-2.7,1.5-6.4-0.9-8.8c-1.8-1.8-4.3-2.4-6.6-1.9l-12-8.8l8.8,12c-0.6,2.3,0.1,4.8,1.9,6.6C49,69,52.7,69.3,55.4,67.5 M28.4,25.2 c1.2-0.7,1.5-2.2,0.8-3.4L26.9,18c-0.7-1.2-2.2-1.5-3.4-0.8l-1.8,1.1l4.8,8L28.4,25.2"></path>
  <path fill="#223944" d="M57.7,23.9v-0.8c3.9-2.2,6.2-6.2,6.2-10.7C63.9,5.5,58.4,0,51.6,0c-6.8,0-12.3,5.5-12.3,12.3 c0,4.5,2.4,8.5,6.2,10.7v0.8c-3.3,0.5-6.5,1.5-9.5,2.9l-2.1-3.5c0.4-0.4,0.4-1,0.1-1.5l-4.8-8c-0.2-0.3-0.4-0.5-0.7-0.6 c-0.3-0.1-0.6,0-0.9,0.1l-6.3,3.8c-0.3,0.2-0.5,0.4-0.6,0.7c-0.1,0.3,0,0.6,0.1,0.9l4.8,8c0.2,0.4,0.6,0.6,1,0.6c0.1,0,0.2,0,0.3,0 h0l2,3.4c-9.5,7-15.6,18.2-15.6,30.9c0,21.1,17.2,38.3,38.3,38.3s38.3-17.2,38.3-38.3C89.9,42.7,75.9,26.8,57.7,23.9z M41.7,12.3 c0-5.5,4.4-9.9,9.9-9.9s9.9,4.4,9.9,9.9c0,3.1-1.4,5.9-3.8,7.8v-1.7h0.9c0.7,0,1.2-0.5,1.2-1.2V7.7c0-0.7-0.5-1.2-1.2-1.2h-14 c-0.7,0-1.2,0.5-1.2,1.2v9.4c0,0.7,0.5,1.2,1.2,1.2h0.9v1.7C43.1,18.3,41.7,15.4,41.7,12.3z M47.9,18.4h7.4v5.2 c-1.2-0.1-2.4-0.2-3.7-0.2s-2.5,0.1-3.7,0.2V18.4z M45.8,15.9V9H48v7H45.8z M50.5,15.9V9h2.2v7H50.5z M55.1,15.9V9h2.2v7H55.1z M33.7,27.8c-0.9,0.5-1.9,1-2.8,1.6l-2-3.2l2.7-1.7L33.7,27.8z M27,24.6l-3.6-5.9l4.2-2.6l3.6,5.9L27,24.6z M51.6,97.6 c-19.8,0-35.8-16.1-35.8-35.8c0-12.2,6.1-23,15.5-29.5c0,0,0,0,0,0c5.8-4,12.8-6.4,20.4-6.4c19.8,0,35.9,16.1,35.9,35.9 S71.4,97.6,51.6,97.6z M74.2,39.1c-0.1-0.1-0.1-0.1-0.2-0.2c0,0,0,0-0.1-0.1c-5.7-5.6-13.5-9-22.1-9.1h-0.2c-0.2,0-0.3,0-0.5,0 C33.8,30,19.7,44.1,19.6,61.5v0.1c0,0,0,0,0,0v0.2c0,17.7,14.4,32,32,32c17.7,0,32-14.4,32-32C83.6,52.9,80,44.9,74.2,39.1z M73.4,81.6L69,77.2c-0.5-0.5-1.2-0.5-1.7,0c-0.5,0.5-0.5,1.3,0,1.7l4.4,4.4c-5,4.6-11.6,7.6-18.8,7.9V85c0-0.7-0.5-1.2-1.2-1.2 s-1.2,0.5-1.2,1.2v6.3c-7.3-0.3-13.8-3.2-18.8-7.8l4.4-4.4c0.5-0.5,0.5-1.3,0-1.7c-0.5-0.5-1.2-0.5-1.7,0l-4.4,4.4 c-4.6-5-7.6-11.7-7.8-19h6.2c0.7,0,1.2-0.5,1.2-1.2c0-0.7-0.5-1.2-1.2-1.2h-6.1c0.7-15.2,13-27.4,28.2-28.1v6.1 c0,0.7,0.5,1.2,1.2,1.2s1.2-0.5,1.2-1.2v-6.1c7.2,0.3,13.8,3.1,18.8,7.7l-4.3,4.3c-0.5,0.5-0.5,1.3,0,1.7c0.2,0.2,0.5,0.4,0.9,0.4 c0.3,0,0.6-0.1,0.9-0.4l4.3-4.3c4.6,5,7.6,11.5,7.9,18.7h-6.2c-0.7,0-1.2,0.5-1.2,1.2c0,0.7,0.5,1.2,1.2,1.2h6.2 C80.9,70,78,76.6,73.4,81.6z M51.6,53.4c-0.5,0-1,0-1.4,0.1l-13.4-9.9c-0.9-0.7-2.2-0.6-3,0.2c-0.8,0.8-0.9,2-0.2,3l9.9,13.5 c-0.1,0.4-0.1,0.9-0.1,1.3c0,4.6,3.7,8.2,8.2,8.2c4.6,0,8.2-3.7,8.2-8.2S56.2,53.4,51.6,53.4z M36.1,46.2l11.3,8.3 c-1.2,0.7-2.3,1.8-3,3L36.1,46.2z M51.6,67.4c-3.2,0-5.8-2.6-5.8-5.8s2.6-5.8,5.8-5.8c3.2,0,5.8,2.6,5.8,5.8S54.8,67.4,51.6,67.4z"></path>
</svg>
