<svg xmlns="http://www.w3.org/2000/svg" width="1728" height="1609" viewBox="0 0 1728 1609" fill="none">
<path fill-rule="evenodd" clip-rule="evenodd" d="M-86.4856 518C148.04 291.297 726.787 -151.169 1513.97 51.9672V51.8944C1622.87 82.5778 1804.76 144.455 2016.88 259.609C2016.26 260.265 2015.67 260.903 2015.09 261.541C2014.51 262.178 2013.92 262.816 2013.31 263.472C1999.01 280.938 1905.89 391.831 1749.66 518H1836V1609H-155V684.857C-186.912 671.634 -217 660.316 -217 660.316C-215.397 657.11 -207.093 647.343 -198.425 637.431C-192.743 630.435 -178.612 613.672 -156.832 589.912C-156.227 589.256 -155.617 588.594 -155 587.927V518H-86.4856Z" fill="#F5F5F5"/>
</svg>