<svg xmlns="http://www.w3.org/2000/svg" width="20" height="21" viewBox="0 0 20 21" fill="none">
<path d="M8.33335 10.5001H11.25V11.5834C11.25 11.7779 11.3334 11.9098 11.5 11.9792C11.6667 12.0487 11.8195 12.014 11.9584 11.8751L13.5834 10.2501C13.75 10.0834 13.8334 9.88897 13.8334 9.66675C13.8334 9.44453 13.75 9.25008 13.5834 9.08341L11.9584 7.45842C11.8195 7.31953 11.6667 7.2848 11.5 7.35425C11.3334 7.42369 11.25 7.55564 11.25 7.75008V8.83341H7.50002C7.26391 8.83341 7.06585 8.91341 6.90585 9.07341C6.74585 9.23341 6.66613 9.43119 6.66669 9.66675V12.1667C6.66669 12.4029 6.74669 12.6009 6.90669 12.7609C7.06669 12.9209 7.26446 13.0006 7.50002 13.0001C7.73613 13.0001 7.93419 12.9201 8.09419 12.7601C8.25419 12.6001 8.33391 12.4023 8.33335 12.1667V10.5001ZM10 18.8334C9.79169 18.8334 9.58669 18.7917 9.38502 18.7084C9.18335 18.6251 8.99946 18.5001 8.83335 18.3334L2.16669 11.6667C2.00002 11.5001 1.87502 11.3159 1.79169 11.1142C1.70835 10.9126 1.66669 10.7079 1.66669 10.5001C1.66669 10.2917 1.70835 10.0867 1.79169 9.88508C1.87502 9.68341 2.00002 9.49953 2.16669 9.33342L8.83335 2.66675C9.00002 2.50008 9.18419 2.37508 9.38585 2.29175C9.58752 2.20841 9.79224 2.16675 10 2.16675C10.2084 2.16675 10.4134 2.20841 10.615 2.29175C10.8167 2.37508 11.0006 2.50008 11.1667 2.66675L17.8334 9.33342C18 9.50008 18.125 9.68425 18.2084 9.88591C18.2917 10.0876 18.3334 10.2923 18.3334 10.5001C18.3334 10.7084 18.2917 10.9134 18.2084 11.1151C18.125 11.3167 18 11.5006 17.8334 11.6667L11.1667 18.3334C11 18.5001 10.8159 18.6251 10.6142 18.7084C10.4125 18.7917 10.2078 18.8334 10 18.8334ZM6.66669 13.8334L10 17.1667L16.6667 10.5001L10 3.83341L3.33335 10.5001L6.66669 13.8334Z" fill="#333333"/>
</svg>
