<svg width="24" height="24" viewBox="0 0 24 24" fill="none" xmlns="http://www.w3.org/2000/svg">
<g clip-path="url(#clip0_670_5865)">
<path d="M12.0002 0.75C7.08769 0.75 2.9252 3.8625 1.3877 8.25H22.6127C21.0752 3.8625 16.9127 0.75 12.0002 0.75Z" fill="#ED4C5C"/>
<path d="M12.0002 23.25C16.9127 23.25 21.0752 20.1375 22.6127 15.75H1.3877C2.9252 20.1375 7.08769 23.25 12.0002 23.25Z" fill="#428BC1"/>
<path d="M1.3875 8.25C0.975 9.4125 0.75 10.6875 0.75 12C0.75 13.3125 0.975 14.5875 1.3875 15.75H22.6125C23.025 14.5875 23.25 13.3125 23.25 12C23.25 10.6875 23.025 9.4125 22.6125 8.25H1.3875Z" fill="white"/>
</g>
<defs>
<clipPath id="clip0_670_5865">
<rect width="24" height="24" fill="white"/>
</clipPath>
</defs>
</svg>
