<svg version="1.1" xmlns="http://www.w3.org/2000/svg" viewBox="0 0 32 32">
<path d="M29.4,9.6c-0.2-0.6-0.5-1.1-0.9-1.5c-0.4-0.4-1-0.7-1.6-0.9c-2.2-0.6-11-0.6-11-0.6c-3.7,0-7.3,0.1-11,0.5
	C4.5,7.4,3.9,7.7,3.5,8.1C3,8.5,2.7,9,2.6,9.6C2.2,11.7,2,13.9,2,16c0,2.1,0.2,4.3,0.6,6.4C2.7,23,3,23.5,3.5,23.9
	c0.4,0.4,1,0.7,1.6,0.9c2.2,0.6,11,0.6,11,0.6c3.7,0,7.3-0.1,11-0.5c0.6-0.2,1.1-0.4,1.6-0.9c0.4-0.4,0.7-0.9,0.9-1.5
	c0.4-2.1,0.6-4.3,0.6-6.4C30,13.9,29.8,11.7,29.4,9.6L29.4,9.6z M13.2,20v-8l7.3,4L13.2,20z"/>
</svg>
