<svg version="1.1" xmlns="http://www.w3.org/2000/svg" viewBox="0 0 32 32">
<title>Twitter</title>
<path d="M30,7.5c-1,0.4-2.1,0.8-3.3,0.9c1.2-0.7,2.1-1.8,2.5-3.1c-1.1,0.7-2.4,1.1-3.7,1.4c-1-1.1-2.5-1.8-4.2-1.8
	c-3.1,0-5.8,2.5-5.8,5.8c0,0.4,0.1,0.9,0.2,1.3C11,11.6,6.8,9.3,4,5.8C3.4,6.7,3.2,7.6,3.2,8.7c0,2,1,3.8,2.5,4.8
	c-1,0-1.8-0.3-2.6-0.7v0.1c0,2.8,2,5.1,4.6,5.6c-0.4,0.1-1,0.2-1.5,0.2c-0.3,0-0.7,0-1-0.1c0.7,2.3,2.9,3.9,5.3,4
	C8.6,24.1,6,25,3.3,25c-0.4,0-0.9,0-1.4-0.1c2.5,1.7,5.6,2.5,8.8,2.5c10.6,0,16.3-8.7,16.3-16.3c0-0.3,0-0.5,0-0.7
	C28.2,9.6,29.2,8.6,30,7.5z"/>
</svg>
