<svg version="1.1" xmlns="http://www.w3.org/2000/svg" xmlns:xlink="http://www.w3.org/1999/xlink" x="0px" y="0px"
	 viewBox="0 0 24 24" style="enable-background:new 0 0 24 24;" xml:space="preserve">
<path d="M23.3,11.3h-2.2c-0.2-1.2-1.3-2.1-2.6-2.1c-1.3,0-2.3,0.9-2.6,2.1H0.4c-0.3,0-0.5,0.2-0.5,0.5s0.2,0.5,0.5,0.5h15.5
	c0.2,1.2,1.3,2.1,2.6,2.1s2.3-0.9,2.6-2.1h2.2c0.3,0,0.5-0.2,0.5-0.5S23.6,11.3,23.3,11.3z M18.5,13.4c-0.9,0-1.6-0.7-1.6-1.6
	c0,0,0,0,0,0s0,0,0,0c0-0.9,0.7-1.6,1.6-1.6c0.9,0,1.6,0.7,1.6,1.6C20.1,12.7,19.4,13.4,18.5,13.4z M0.4,4.4h8.3
	c0.2,1.2,1.3,2.1,2.6,2.1c1.3,0,2.3-0.9,2.6-2.1h9.5c0.3,0,0.5-0.2,0.5-0.5s-0.2-0.5-0.5-0.5h-9.5c-0.2-1.2-1.3-2.1-2.6-2.1
	c-1.3,0-2.3,0.9-2.6,2.1H0.4c-0.3,0-0.5,0.2-0.5,0.5C-0.1,4.2,0.1,4.4,0.4,4.4z M11.3,2.3c0.9,0,1.6,0.7,1.6,1.6s-0.7,1.6-1.6,1.6
	c-0.9,0-1.6-0.7-1.6-1.6S10.4,2.3,11.3,2.3z M23.3,19.3H9c-0.2-1.2-1.3-2.1-2.6-2.1c-1.3,0-2.3,0.9-2.6,2.1H0.4
	c-0.3,0-0.5,0.2-0.5,0.5c0,0.3,0.2,0.5,0.5,0.5h3.5c0.2,1.2,1.3,2.1,2.6,2.1c1.3,0,2.3-0.9,2.6-2.1h14.3c0.3,0,0.5-0.2,0.5-0.5
	S23.6,19.3,23.3,19.3z M6.5,21.4c-0.9,0-1.6-0.7-1.6-1.6s0.7-1.6,1.6-1.6S8,18.9,8,19.8C8,20.7,7.3,21.4,6.5,21.4z"/>
</svg>
