<svg width="24" height="24" viewBox="0 0 24 24" fill="none" xmlns="http://www.w3.org/2000/svg">
<g clip-path="url(#clip0_670_5873)">
<path d="M0.75 12C0.75 14.2125 1.3875 16.275 2.475 18H21.4875C22.575 16.275 23.2125 14.2125 23.2125 12C23.2125 9.7875 22.575 7.725 21.4875 6H2.475C1.3875 7.725 0.75 9.7875 0.75 12Z" fill="#FFCE31"/>
<path d="M21.5251 6C19.5376 2.85 16.0126 0.75 12.0001 0.75C7.9876 0.75 4.4626 2.85 2.4751 6H21.5251ZM2.4751 18C4.4626 21.15 7.9876 23.25 12.0001 23.25C16.0126 23.25 19.5376 21.15 21.5251 18H2.4751Z" fill="#ED4C5C"/>
<path d="M3.4502 10.7625H4.6502V11.4375H3.4502V10.7625ZM3.4502 15.7125H4.6877V16.35H3.4502V15.7125Z" fill="#C8B100"/>
<path d="M3.3374 14.6626C3.2249 14.7376 3.1499 14.8126 3.1499 14.8501C3.1499 14.8876 3.1874 14.9251 3.2624 14.9626C3.3374 15.0001 3.4124 15.0751 3.3749 15.1501C3.4499 15.0751 3.4874 15.0001 3.4874 14.9251C3.4874 14.8126 3.4124 14.7001 3.3374 14.6626Z" fill="#ED4C5C"/>
<path d="M3.6377 11.4375H4.5002V15.7125H3.6377V11.4375Z" fill="white"/>
<path d="M5.40023 13.0125C5.21273 12.9375 4.87523 12.8625 4.50023 12.8625C4.38773 12.8625 4.23773 12.8625 4.08773 12.9C3.56273 12.975 3.15023 13.2 3.18773 13.35L3.00023 12.9375C2.96273 12.75 3.41273 12.525 3.97523 12.4125C4.16273 12.375 4.35023 12.375 4.50023 12.375C4.87523 12.375 5.21273 12.4125 5.40023 12.4875V13.0125Z" fill="#ED4C5C"/>
<path d="M3.6376 13.575C3.4126 13.575 3.2251 13.5 3.2251 13.3875C3.2251 13.3125 3.3001 13.2 3.4501 13.125H3.6751L3.6376 13.575ZM4.5001 13.2375C4.6501 13.275 4.7626 13.3125 4.8376 13.35C4.8751 13.3875 4.7251 13.5375 4.5001 13.65V13.2375Z" fill="#ED4C5C"/>
<path d="M3.07535 14.4001C3.03785 14.3251 3.30035 14.1751 3.63785 14.0626C3.78785 14.0251 3.90035 13.9501 4.08785 13.8751C4.53785 13.6876 4.91285 13.4251 4.83785 13.3501L4.91285 13.8001C4.95035 13.8751 4.65035 14.1001 4.20035 14.3251C4.05035 14.4001 3.78785 14.5126 3.63785 14.5501C3.37535 14.6251 3.15035 14.7751 3.15035 14.8126L3.07535 14.4001Z" fill="#ED4C5C"/>
<path d="M11.5126 10.7625H12.7126V11.4375H11.5126V10.7625ZM11.4751 15.7125H12.7126V16.35H11.4751V15.7125Z" fill="#C8B100"/>
<path d="M12.8248 14.6626C12.9373 14.7376 13.0123 14.8126 13.0123 14.8501C13.0123 14.8876 12.9748 14.9251 12.8998 14.9626C12.8248 15.0376 12.7498 15.1501 12.7873 15.1876C12.7123 15.1126 12.6748 15.0376 12.6748 14.9626C12.6748 14.8126 12.7498 14.7001 12.8248 14.6626Z" fill="#ED4C5C"/>
<path d="M11.6626 11.4375H12.5251V15.7125H11.6626V11.4375Z" fill="white"/>
<path d="M10.7622 13.0125C10.9497 12.9375 11.2872 12.8625 11.6622 12.8625C11.7747 12.8625 11.9247 12.8625 12.0747 12.9C12.5997 12.975 13.0122 13.2 12.9747 13.35L13.1622 12.9C13.1997 12.7125 12.7497 12.4875 12.1872 12.375H11.6622C11.2872 12.375 10.9497 12.4125 10.7622 12.4875V13.0125Z" fill="#ED4C5C"/>
<path d="M12.5246 13.575C12.7496 13.575 12.9371 13.5 12.9371 13.3875C12.9371 13.3125 12.8621 13.2 12.7121 13.125H12.4871L12.5246 13.575ZM11.6621 13.2375C11.5121 13.275 11.3996 13.3125 11.3246 13.35C11.2871 13.3875 11.4371 13.5375 11.6621 13.65V13.2375Z" fill="#ED4C5C"/>
<path d="M13.0873 14.4C13.1248 14.325 12.8623 14.175 12.5248 14.0625C12.3748 14.025 12.2623 13.95 12.0748 13.875C11.6248 13.6875 11.2498 13.425 11.3248 13.35L11.2498 13.8C11.2123 13.875 11.5123 14.1 11.9623 14.325C12.1123 14.4 12.3748 14.5125 12.5248 14.55C12.7873 14.625 13.0123 14.8125 12.9748 14.85L13.0873 14.4ZM8.0623 8.36255C8.7748 8.36255 10.2373 8.51255 10.7623 9.03755C10.1998 10.3875 9.2998 9.82505 8.0623 9.82505C6.8623 9.82505 5.9248 10.3875 5.3623 9.03755C5.8873 8.51255 7.3123 8.36255 8.0623 8.36255Z" fill="#ED4C5C"/>
<path d="M9.89981 9.8625C9.4498 9.6 8.7748 9.5625 8.0623 9.5625C7.3498 9.5625 6.6748 9.6375 6.2248 9.8625L6.3748 10.5C6.7873 10.6125 7.3873 10.6875 8.0623 10.6875C8.7373 10.6875 9.29981 10.6125 9.7498 10.5L9.89981 9.8625ZM10.5373 8.25C10.3873 8.1375 10.0873 8.025 9.82481 8.025C9.71231 8.025 9.5998 8.025 9.4873 8.0625C9.4873 8.0625 9.2623 7.7625 8.7373 7.7625C8.5498 7.7625 8.39981 7.8 8.2498 7.875V7.8375C8.21231 7.7625 8.1373 7.6875 8.0623 7.6875C7.9873 7.6875 7.8748 7.8 7.8748 7.875V7.9125C7.7248 7.8375 7.57481 7.8 7.38731 7.8C6.86231 7.8 6.63731 8.1375 6.63731 8.1C6.52481 8.0625 6.4123 8.0625 6.2998 8.0625C4.5748 8.0625 5.4373 9.225 5.4373 9.225L5.6248 9C5.2123 8.475 5.5873 8.175 6.3373 8.175C6.4498 8.175 6.5248 8.175 6.5998 8.2125C6.3373 8.5875 6.82481 8.925 6.82481 8.925L6.9373 8.7375C6.6748 8.55 6.63731 7.9125 7.38731 7.9125C7.57481 7.9125 7.7248 7.95 7.8748 8.0625C7.8748 8.1 7.8373 8.625 7.7998 8.7L8.0998 8.9625L8.3998 8.7C8.3623 8.5875 8.32481 8.1 8.32481 8.0625C8.43731 7.9875 8.6248 7.9125 8.8123 7.9125C9.5998 7.9125 9.59981 8.55 9.26231 8.7375L9.3748 8.925C9.3748 8.925 9.7873 8.5875 9.5998 8.2125C9.67481 8.2125 9.7873 8.175 9.8623 8.175C10.7623 8.175 10.7998 8.85 10.5748 9L10.7248 9.225C10.6498 9.225 11.0623 8.7 10.5373 8.25Z" fill="#C8B100"/>
<path d="M7.8374 7.5375C7.8374 7.425 7.9499 7.3125 8.0624 7.3125C8.2124 7.3125 8.2874 7.425 8.2874 7.5375C8.2874 7.65 8.1749 7.7625 8.0624 7.7625C7.9499 7.7625 7.8374 7.65 7.8374 7.5375Z" fill="#005BBF"/>
<path d="M7.9874 6.8999V7.0124H7.8749V7.1249H7.9874V7.4999H7.8374V7.6124H8.2874L8.3249 7.5374L8.2874 7.4999H8.1374V7.1249H8.2499V7.0124H8.1374V6.8999H7.9874Z" fill="#C8B100"/>
<path d="M8.0624 10.6125C7.4624 10.6125 6.9374 10.5375 6.5249 10.425C6.9374 10.3125 7.4624 10.2375 8.0624 10.2375C8.6624 10.2375 9.1874 10.3125 9.5999 10.425C9.2249 10.5375 8.6624 10.6125 8.0624 10.6125Z" fill="#ED4C5C"/>
<path d="M8.0999 17.1001C7.3874 17.1001 6.7124 16.9126 6.1124 16.6501C5.6624 16.4251 5.3999 16.0126 5.3999 15.5251V13.7251H10.7999V15.5251C10.7999 16.0126 10.4999 16.4626 10.0874 16.6501C9.4874 16.9501 8.8124 17.1001 8.0999 17.1001ZM8.0624 10.7251H10.7624V13.7251H8.0624V10.7251Z" fill="white"/>
<path d="M8.0999 15.5251C8.0999 16.2376 7.4999 16.8001 6.7499 16.8001C5.9999 16.8001 5.3999 16.2376 5.3999 15.5251V13.7251H8.0999V15.5251Z" fill="#ED4C5C"/>
<path d="M5.9623 16.5749C6.0373 16.6124 6.1498 16.6874 6.2998 16.7249V13.6499H5.9998L5.9623 16.5749ZM5.3623 15.4874C5.3623 15.8624 5.5123 16.1624 5.6623 16.3124V13.6499H5.3623V15.4874Z" fill="#C8B100"/>
<path d="M6.5625 16.7999H6.8625V13.6499H6.5625V16.7999Z" fill="#C7B500"/>
<path d="M7.1626 16.7249C7.2751 16.6874 7.4251 16.6124 7.5001 16.5749V13.6499H7.2001L7.1626 16.7249Z" fill="#C8B100"/>
<path d="M5.3623 10.7251H8.0623V13.7251H5.3623V10.7251Z" fill="#ED4C5C"/>
<path d="M7.7998 16.3125C7.9498 16.2 8.06231 15.9375 8.09981 15.6375V13.6875H7.7998V16.3125Z" fill="#C8B100"/>
<path d="M10.7999 13.7251V15.5251C10.7999 16.2376 10.1999 16.8001 9.4499 16.8001C8.6999 16.8001 8.0999 16.2376 8.0999 15.5251V13.7251H10.7999ZM9.8249 11.2501C9.9374 11.4751 9.9374 12.0376 9.5999 11.9251C9.6749 11.9626 9.7124 12.2251 9.8249 12.3751C10.0124 12.6001 10.2374 12.4126 10.1999 12.1501C10.1249 11.7376 10.1624 11.4751 10.2374 11.0626C10.2374 11.1001 10.4249 11.1001 10.4999 11.0251C10.4624 11.1376 10.4249 11.2876 10.4999 11.2876C10.4249 11.4001 10.2374 11.5876 10.1999 11.7001C10.1624 11.9626 10.5749 12.4501 10.1249 12.5626C9.8249 12.6376 10.0124 12.8626 10.1249 12.9751C10.1249 12.9751 9.9749 13.4626 10.0499 13.4251C9.7499 13.5376 9.8249 13.2751 9.8249 13.2751C9.9749 12.8251 9.5624 12.7876 9.5999 12.7126C9.2249 12.6751 9.6374 13.0501 9.2999 13.0501C9.2249 13.0501 9.0749 13.1251 9.0749 13.1251C8.6624 13.0876 8.8874 12.7126 9.0374 12.7501C9.1499 12.7876 9.2624 12.9751 9.2624 12.7126C9.2624 12.7126 9.0749 12.4126 9.5624 12.4126C9.3749 12.4126 9.2624 12.2626 9.1874 12.0751C9.1124 12.1126 8.9999 12.3001 8.5874 12.3376C8.5874 12.3376 8.4749 11.9251 8.5874 12.0001C8.7374 12.0751 8.8124 12.0751 8.9624 11.9251C8.8874 11.8126 8.4374 11.6626 8.5124 11.4001C8.5124 11.3251 8.7374 11.2126 8.7374 11.2126C8.6999 11.4001 8.8124 11.5876 9.0374 11.5876C9.3374 11.6251 9.2249 11.5126 9.2624 11.4376C9.2999 11.3626 9.5249 11.4751 9.4499 11.2876C9.4499 11.2501 9.1874 11.2126 9.2624 11.1001C9.4124 10.9126 9.6374 11.0626 9.8249 11.2501ZM8.0999 16.7251L8.0249 16.5376L8.0999 16.3126L8.1749 16.5376L8.0999 16.7251Z" fill="#ED4C5C"/>
<path d="M6.1874 11.3625V11.55H6.2624V11.7H6.0749V12.075H6.1874V12.9H5.9624V13.3125H7.4999V12.9H7.3124V12.075H7.3874V11.7H7.1999V11.55H7.3124V11.3625H6.9374V11.55H7.0124V11.7H6.8249V11.25H6.9374V11.0625H6.5249V11.25H6.6374V11.7H6.4499V11.55H6.5249V11.3625H6.1874ZM10.4249 15.975V14.1H8.4749V15.975L9.3749 16.3875H9.4874L10.4249 15.975ZM9.3749 14.25V14.8875L8.7374 14.25H9.3749ZM8.5874 14.2875L9.3374 15.0375L8.5874 15.7875V14.2875ZM8.6624 15.9375L9.3749 15.225V16.275L8.6624 15.9375ZM9.4874 16.2375V15.1875L10.1999 15.9L9.4874 16.2375ZM10.2749 15.7875L9.5249 15.0375L10.2749 14.2875V15.7875ZM9.4874 14.25H10.1249L9.4874 14.8875V14.25Z" fill="#C8B100"/>
<path d="M7.2002 13.6874C7.2002 13.1249 7.5752 12.7124 8.0627 12.7124C8.55019 12.7124 8.92519 13.1624 8.92519 13.6874C8.92519 14.2124 8.55019 14.6624 8.0627 14.6624C7.5752 14.6624 7.2002 14.2499 7.2002 13.6874Z" fill="#ED4C5C"/>
<path d="M7.4624 13.6876C7.4624 13.2751 7.7249 12.9751 8.0624 12.9751C8.3999 12.9751 8.6624 13.3126 8.6624 13.6876C8.6624 14.1001 8.3999 14.4001 8.0624 14.4001C7.7624 14.4376 7.4624 14.1001 7.4624 13.6876Z" fill="#005BBF"/>
<path d="M7.7999 13.2L7.6499 13.6125L7.7624 13.65L7.6874 13.8H7.9124L7.8374 13.65L7.9499 13.6125L7.7999 13.2ZM8.3624 13.2L8.2124 13.6125L8.3249 13.65L8.2499 13.8H8.4749L8.4374 13.65L8.5499 13.6125L8.3624 13.2ZM8.0999 13.6875L7.9124 14.1L8.0249 14.1375L7.9874 14.2875H8.1749L8.1374 14.1375L8.2499 14.1L8.0999 13.6875Z" fill="#C8B100"/>
</g>
<defs>
<clipPath id="clip0_670_5873">
<rect width="24" height="24" fill="white"/>
</clipPath>
</defs>
</svg>
