<svg width="10" height="10" viewBox="0 0 10 10" fill="none" xmlns="http://www.w3.org/2000/svg">
<g clip-path="url(#clip0_0_1)">
<path d="M8 0.5H2C1.17157 0.5 0.5 1.17157 0.5 2V8C0.5 8.82843 1.17157 9.5 2 9.5H8C8.82843 9.5 9.5 8.82843 9.5 8V2C9.5 1.17157 8.82843 0.5 8 0.5Z" fill="#595959" stroke="#595959"/>
<g clip-path="url(#clip1_0_1)">
<path d="M7.42256 4.00816L4.63361 6.82849C4.40701 7.05717 4.03864 7.05717 3.81203 6.82849L2.16307 5.16913C1.93995 4.93576 1.94693 4.56519 2.17701 4.34003C2.40245 4.12074 2.75921 4.12074 2.98465 4.34003L4.21759 5.59013L6.60098 3.17906C6.8241 2.9457 7.19131 2.93983 7.42256 3.16499C7.65381 3.39015 7.65962 3.76072 7.4365 3.99409C7.43186 3.99878 7.42721 4.00347 7.42256 4.00816Z" fill="white"/>
</g>
</g>
<defs>
<clipPath id="clip0_0_1">
<rect width="10" height="10" fill="white"/>
</clipPath>
<clipPath id="clip1_0_1">
<rect width="6" height="4" fill="white" transform="translate(2 3)"/>
</clipPath>
</defs>
</svg>
