<svg xmlns="http://www.w3.org/2000/svg" x="0px" y="0px" viewBox="0 0 20 20">
	<path d="M16.1,3.8c-1.6-1.6-3.8-2.6-6.1-2.6c-4.8,0-8.7,3.9-8.7,8.7c0,1.6,0.4,3,1.2,4.3l-1.2,4.5l4.6-1.2
		c1.3,0.7,2.7,1.1,4.1,1.1c4.8,0,8.8-3.9,8.8-8.7C18.8,7.6,17.7,5.5,16.1,3.8z M10,17.1c-1.3,0-2.5-0.4-3.7-1L6.1,16l-2.7,0.7
		l0.7-2.7l-0.2-0.3c-0.7-1.2-1.1-2.5-1.1-3.9C2.8,6,6,2.7,10,2.7c1.9,0,3.7,0.7,5.1,2.1S17.3,8,17.3,10C17.3,13.9,13.9,17.1,10,17.1
		z M13.9,11.8c-0.2-0.1-1.3-0.6-1.5-0.7c-0.2-0.1-0.4-0.1-0.5,0.1c-0.1,0.2-0.5,0.7-0.7,0.9c-0.2,0.1-0.3,0.2-0.5,0
		c-1.3-0.6-2.1-1.1-3-2.6C7.6,9.1,8.1,9.1,8.5,8.3c0.1-0.2,0-0.3,0-0.4c0-0.1-0.5-1.2-0.7-1.6C7.6,5.9,7.5,5.9,7.3,5.9
		c-0.1,0-0.3,0-0.4,0c-0.2,0-0.4,0-0.6,0.3C6.1,6.4,5.6,7,5.6,8c0,1.1,0.7,2.1,0.9,2.3c0.1,0.1,1.5,2.3,3.7,3.2
		c1.4,0.6,1.9,0.7,2.6,0.5c0.4,0,1.2-0.5,1.4-1c0.2-0.5,0.2-0.9,0.1-1C14.3,11.9,14.1,11.9,13.9,11.8z"/>
</svg>
