<svg version="1.1" xmlns="http://www.w3.org/2000/svg" viewBox="0 0 32 32">
<path d="M21.4,4H10.6c-3.6,0-6.6,3-6.6,6.6v10.6c0,3.7,3,6.6,6.6,6.6h10.7c3.7,0,6.6-3,6.6-6.6V10.6C27.9,7,25,4,21.4,4z M25.8,21.4
	c0,2.5-2,4.4-4.4,4.4H10.6c-2.5,0-4.4-2-4.4-4.4V10.6c0-2.5,2-4.4,4.4-4.4h10.7c2.5,0,4.4,2,4.4,4.4L25.8,21.4L25.8,21.4z M16,9.8
	c-3.5,0-6.2,2.7-6.2,6.2s2.7,6.2,6.2,6.2s6.2-2.7,6.2-6.2S19.4,9.8,16,9.8z M16,20c-2.2,0-4-1.8-4-4s1.8-4,4-4s4,1.8,4,4
	S18.2,20,16,20z M22.5,8c-0.4,0-0.8,0.2-1.2,0.4c-0.3,0.3-0.4,0.7-0.4,1.2s0.2,0.8,0.4,1.2c0.3,0.3,0.7,0.4,1.2,0.4s0.8-0.2,1.2-0.4
	C23.8,10.4,24,10,24,9.5s-0.2-0.9-0.4-1.2C23.3,8.2,22.8,8,22.5,8z"/>
</svg>
