<svg width="128" height="128" viewBox="0 0 128 128" fill="none" xmlns="http://www.w3.org/2000/svg">
<path fill-rule="evenodd" clip-rule="evenodd" d="M64 112C70.3034 112 76.5452 110.758 82.3688 108.346C88.1924 105.934 93.4839 102.398 97.9411 97.9411C102.398 93.4839 105.934 88.1924 108.346 82.3688C110.758 76.5452 112 70.3034 112 64C112 57.6965 110.758 51.4548 108.346 45.6312C105.934 39.8075 102.398 34.5161 97.9411 30.0589C93.4839 25.6016 88.1924 22.066 82.3688 19.6538C76.5452 17.2415 70.3034 16 64 16C51.2696 16 39.0606 21.0571 30.0589 30.0589C21.0571 39.0606 16 51.2696 16 64C16 76.7304 21.0571 88.9394 30.0589 97.9411C39.0606 106.943 51.2696 112 64 112ZM64 122.667C96.4 122.667 122.667 96.4 122.667 64C122.667 31.6 96.4 5.33331 64 5.33331C31.6 5.33331 5.33333 31.6 5.33333 64C5.33333 96.4 31.6 122.667 64 122.667Z" fill="white"/>
<path d="M85.3333 63.9999L53.3333 87.0933V40.9066L85.3333 63.9999Z" fill="white"/>
</svg>
