<svg width="16" height="17" viewBox="0 0 16 17" fill="none" xmlns="http://www.w3.org/2000/svg">
<path id="Vector" d="M14.7556 16.2969L9.15556 10.6969C8.71111 11.0524 8.2 11.3339 7.62222 11.5413C7.04444 11.7487 6.42963 11.8524 5.77778 11.8524C4.16296 11.8524 2.79644 11.293 1.67822 10.1742C0.56 9.05539 0.000592593 7.68888 0 6.07465C0 4.45984 0.559408 3.09332 1.67822 1.9751C2.79704 0.856875 4.16356 0.297468 5.77778 0.296875C7.39259 0.296875 8.75911 0.856283 9.87733 1.9751C10.9956 3.09391 11.555 4.46043 11.5556 6.07465C11.5556 6.72651 11.4519 7.34132 11.2444 7.9191C11.037 8.49688 10.7556 9.00799 10.4 9.45243L16 15.0524L14.7556 16.2969ZM5.77778 10.0747C6.88889 10.0747 7.83348 9.68562 8.61156 8.90754C9.38963 8.12947 9.77837 7.18517 9.77778 6.07465C9.77778 4.96354 9.38874 4.01895 8.61067 3.24088C7.83259 2.4628 6.8883 2.07406 5.77778 2.07465C4.66667 2.07465 3.72207 2.46369 2.944 3.24176C2.16593 4.01984 1.77719 4.96413 1.77778 6.07465C1.77778 7.18576 2.16682 8.13036 2.94489 8.90843C3.72296 9.68651 4.66726 10.0752 5.77778 10.0747Z" fill="#333333"/>
</svg>
