<svg version="1.1" xmlns="http://www.w3.org/2000/svg" viewBox="0 0 32 32">
<path d="M23.2,28c-1,0-1.9-0.4-2.6-1c-0.7-0.7-1-1.6-1-2.6c0-0.1,0-0.3,0-0.4c0-0.2,0.1-0.3,0.1-0.4l-8.5-4.9
	c-0.3,0.3-0.7,0.5-1.1,0.7s-0.9,0.3-1.3,0.3c-1,0-1.9-0.4-2.6-1.1C5.6,17.9,5.2,17,5.2,16c0-1,0.4-1.9,1.1-2.6
	c0.7-0.7,1.6-1.1,2.6-1.1c0.5,0,0.9,0.1,1.3,0.3c0.4,0.2,0.8,0.4,1.1,0.7l8.5-4.9c0-0.1-0.1-0.3-0.1-0.4c0-0.1,0-0.3,0-0.4
	c0-1,0.4-1.9,1-2.5C21.3,4.4,22.2,4,23.2,4c1,0,1.9,0.4,2.5,1.1c0.7,0.7,1,1.6,1,2.5s-0.4,1.9-1,2.5c-0.7,0.7-1.6,1.1-2.5,1.1
	c-0.5,0-0.9-0.1-1.3-0.3c-0.4-0.2-0.8-0.4-1.1-0.7l-8.5,4.9c0,0.1,0.1,0.3,0.1,0.4c0,0.2,0,0.3,0,0.4c0,0.1,0,0.3,0,0.4
	c0,0.2-0.1,0.3-0.1,0.4l8.5,4.9c0.3-0.3,0.7-0.5,1.1-0.7c0.4-0.2,0.9-0.3,1.3-0.3c1,0,1.9,0.4,2.5,1.1c0.7,0.7,1,1.6,1,2.5
	s-0.4,1.9-1,2.6C25.1,27.6,24.2,28,23.2,28z M23.2,8.8c0.3,0,0.6-0.1,0.9-0.3c0.2-0.2,0.3-0.5,0.3-0.9c0-0.3-0.1-0.6-0.3-0.9
	c-0.2-0.2-0.5-0.3-0.9-0.3c-0.3,0-0.6,0.1-0.9,0.3C22.1,7,22,7.3,22,7.6c0,0.3,0.1,0.6,0.3,0.9S22.9,8.8,23.2,8.8z M8.8,17.2
	c0.3,0,0.6-0.1,0.9-0.3S10,16.3,10,16c0-0.3-0.1-0.6-0.3-0.9c-0.2-0.2-0.5-0.3-0.9-0.3c-0.3,0-0.6,0.1-0.9,0.3
	c-0.2,0.2-0.3,0.5-0.3,0.9c0,0.3,0.1,0.6,0.3,0.9C8.2,17.1,8.5,17.2,8.8,17.2z M23.2,25.6c0.3,0,0.6-0.1,0.9-0.3
	c0.2-0.2,0.3-0.5,0.3-0.9c0-0.3-0.1-0.6-0.3-0.9c-0.2-0.2-0.5-0.3-0.9-0.3c-0.3,0-0.6,0.1-0.9,0.3c-0.2,0.2-0.3,0.5-0.3,0.9
	c0,0.3,0.1,0.6,0.3,0.9S22.9,25.6,23.2,25.6z"/>
</svg>
