<?xml version="1.0" encoding="utf-8"?>
<!-- Generator: Adobe Illustrator 18.0.0, SVG Export Plug-In . SVG Version: 6.00 Build 0)  -->
<!DOCTYPE svg PUBLIC "-//W3C//DTD SVG 1.1//EN" "http://www.w3.org/Graphics/SVG/1.1/DTD/svg11.dtd">
<svg version="1.1" id="Layer_1" xmlns="http://www.w3.org/2000/svg" xmlns:xlink="http://www.w3.org/1999/xlink" x="0px" y="0px"
	 width="32px" height="64px" viewBox="4 44 32 64" enable-background="new 4 44 32 64" xml:space="preserve">
<path display="none" fill="#6A707B" d="M28.8,58.8c-0.4,0.4-4,3.9-4,3.9c-0.2,0.2-0.4,0.3-0.7,0.3s-0.5-0.1-0.7-0.3
	c0,0-3.7-3.5-4-3.9c-0.4-0.4-0.4-1,0-1.4s0.9-0.4,1.4,0l3.4,3.2l3.4-3.2c0.5-0.4,1-0.4,1.4,0C29.1,57.8,29.1,58.4,28.8,58.8z"/>
<circle fill="#FFFFFF" cx="12" cy="52" r="3.5"/>
<path fill="#FFFFFF" d="M17.3,64.5c-0.4-0.4-0.9-0.7-1.4-0.9c-0.2-0.1-0.5,0-0.7,0.2l-4,5.4L8.8,66c-0.2-0.2-0.5-0.3-0.7-0.2
	c-0.5,0.3-1,0.6-1.4,0.9c-0.2,0.2-0.2,0.4,0,0.7c0,0,3.1,4.1,3.5,4.6c0.6,0.7,1.6,0.7,2.1,0c0.4-0.5,5.2-6.8,5.2-6.8
	C17.6,64.9,17.5,64.6,17.3,64.5z"/>
<circle fill="#BABEC4" cx="28" cy="52" r="3.5"/>
<path fill="#BABEC4" d="M33.3,64.5c-0.4-0.4-0.9-0.7-1.4-0.9c-0.2-0.1-0.5,0-0.7,0.2l-4,5.4L24.8,66c-0.2-0.2-0.5-0.3-0.7-0.2
	c-0.5,0.3-1,0.6-1.4,0.9c-0.2,0.2-0.2,0.4,0,0.7c0,0,3.1,4.1,3.5,4.6c0.5,0.7,1.6,0.7,2.1,0c0.4-0.5,5.2-6.8,5.2-6.8
	C33.6,64.9,33.5,64.6,33.3,64.5z"/>
<rect x="16" display="none" fill="#FFFFFF" width="16" height="16"/>
<path fill="#9197A1" d="M28,105c-0.3,0-0.5-0.1-0.7-0.3l-4-4c-0.4-0.4-0.4-1,0-1.4s1-0.4,1.4,0l3.3,3.3l3.3-3.3c0.4-0.4,1-0.4,1.4,0
	s0.4,1,0,1.4l-4,4C28.5,104.9,28.3,105,28,105z"/>
</svg>
