<svg xmlns="http://www.w3.org/2000/svg" x="0px" y="0px" viewBox="0 0 160 8">
<path d="M160,5.1c-2-1.5-4.2-2.1-6.7-2.2c-2.3-0.2-4.5-0.2-6.8-0.3c-6.3-0.2-12.6-0.4-18.8-0.5c-2.3-0.1-4.5,0-6.8,0
	c-2.8,0-5.6,0-8.4-0.1c-5.5-0.1-11-0.4-16.4-0.5c-7.7-0.1-15.5,0-23.2,0c-6.3,0-12.5,0-18.8,0.1c-5.7,0.1-11.5,0.2-17.2,0.3
	c-6.1,0-12.3,0-18.4,0c-3.3,0-6.7-0.1-10,0.2C5.7,2.4,2.8,2.7,0,3.8c0.4,0.3,0.7,0.7,1,0.8c1.5,0.3,3.1,0.7,4.7,0.8
	c2.7,0.2,5.3,0.2,8,0.2c7.3-0.1,14.7,0.5,22,0c0.7,0,1.3,0,2,0c7.3,0.1,14.7,0.2,22,0.2c4.4,0,8.8-0.2,13.2-0.2c5.3,0,10.7,0,16,0.2
	c13.2,0.4,26.4,0.3,39.7,0.6c3.5,0.1,6.9,0.2,10.4,0.2c5.2,0,10.4,0,15.6,0C156.5,6.4,158.2,6,160,5.1"/>
</svg>
