<svg xmlns="http://www.w3.org/2000/svg" x="0px" y="0px" viewBox="0 0 330 10">
<path d="M313.4,7.6c-16.3-1-34.4-1.9-52.6-1.9c-20.2,0-40.3,0.6-60.5,1c-7.8,0.1-15.6,1-23.4,1.2c-19.1,0.5-38.2,1.8-57.3,1.5
	c-14.5-0.2-29-0.5-43.5-0.9C60.3,8.2,44.2,8,28.2,9c-7.3,0.4-14.7,0.4-22,0.5c-1.4,0-2.8,0-4-0.6C0.8,8.2-0.1,7.1,0,5.5
	c0.1-1.8,1.4-2.5,2.8-2.8c0.9-0.2,1.8-0.2,2.7-0.1c8.5,0.6,17.1-0.2,25.7-0.3c10.8-0.2,21.7,0.1,32.5,0.4C75.6,3,87.5,2.9,99.4,3.5
	c9.6,0.4,19.2,0.3,28.8,0.4c13,0.2,26-0.1,38.9-0.7c29-1.5,58-2.5,87-2.6c20.9-0.1,41.8-0.4,62.7,1.2c2.6,0.2,5.2,0.1,7.8,0.2
	c1.2,0,2.4,0.3,3.5,1c1.5,1,2.1,2.4,1.6,4.2c-0.4,1.7-1.8,2.3-3.3,2.1C322.8,8.8,319,8.3,313.4,7.6"/>
</svg>
