<svg xmlns="http://www.w3.org/2000/svg" xmlns:xlink="http://www.w3.org/1999/xlink" width="460" zoomAndPan="magnify" viewBox="0 0 345 141.000003" height="188" preserveAspectRatio="xMidYMid meet" version="1.0"><defs><g/><clipPath id="323bd9e6a0"><path d="M 141.507812 7 L 163 7 L 163 39 L 141.507812 39 Z M 141.507812 7 " clip-rule="nonzero"/></clipPath><clipPath id="de65018a84"><path d="M 180 7 L 201.832031 7 L 201.832031 39 L 180 39 Z M 180 7 " clip-rule="nonzero"/></clipPath><clipPath id="dc0b3e4476"><path d="M 161 0 L 182 0 L 182 46.917969 L 161 46.917969 Z M 161 0 " clip-rule="nonzero"/></clipPath></defs><path fill="#03fa6e" d="M 160.484375 38.0625 C 160.148438 38.0625 159.824219 37.953125 159.5625 37.742188 L 142.742188 24.511719 C 142.382812 24.226562 142.175781 23.800781 142.175781 23.34375 C 142.175781 22.882812 142.382812 22.457031 142.742188 22.171875 L 159.5625 8.941406 C 159.824219 8.734375 160.148438 8.621094 160.484375 8.621094 C 160.941406 8.621094 161.371094 8.828125 161.652344 9.191406 C 161.898438 9.5 162.011719 9.890625 161.960938 10.285156 C 161.914062 10.679688 161.714844 11.035156 161.402344 11.28125 L 146.078125 23.34375 L 161.402344 35.402344 C 161.714844 35.648438 161.914062 36.003906 161.960938 36.394531 C 162.011719 36.792969 161.898438 37.179688 161.652344 37.496094 C 161.371094 37.855469 160.941406 38.0625 160.484375 38.0625 " fill-opacity="1" fill-rule="nonzero"/><g clip-path="url(#323bd9e6a0)"><path fill="#2a446b" d="M 160.484375 7.988281 C 160.007812 7.988281 159.542969 8.148438 159.171875 8.441406 L 142.351562 21.671875 C 141.835938 22.082031 141.539062 22.6875 141.539062 23.34375 C 141.539062 23.996094 141.835938 24.605469 142.351562 25.011719 L 159.171875 38.242188 C 159.542969 38.535156 160.007812 38.699219 160.484375 38.699219 C 161.140625 38.699219 161.75 38.402344 162.152344 37.886719 C 162.503906 37.441406 162.660156 36.886719 162.59375 36.324219 C 162.523438 35.757812 162.242188 35.253906 161.796875 34.90625 L 147.101562 23.34375 L 161.796875 11.78125 C 162.242188 11.425781 162.523438 10.925781 162.59375 10.363281 C 162.660156 9.796875 162.503906 9.242188 162.152344 8.796875 C 161.75 8.28125 161.136719 7.988281 160.484375 7.988281 Z M 160.484375 9.253906 C 160.734375 9.253906 160.988281 9.367188 161.15625 9.582031 C 161.449219 9.953125 161.382812 10.492188 161.011719 10.78125 L 145.046875 23.34375 L 161.011719 35.902344 C 161.382812 36.191406 161.449219 36.730469 161.15625 37.101562 C 160.988281 37.316406 160.734375 37.429688 160.484375 37.429688 C 160.296875 37.429688 160.113281 37.371094 159.953125 37.246094 L 143.136719 24.015625 C 142.929688 23.851562 142.808594 23.605469 142.808594 23.34375 C 142.808594 23.078125 142.929688 22.832031 143.136719 22.671875 L 159.953125 9.4375 C 160.109375 9.3125 160.296875 9.253906 160.484375 9.253906 " fill-opacity="1" fill-rule="nonzero"/></g><path fill="#03fa6e" d="M 182.671875 38.0625 C 182.214844 38.0625 181.789062 37.855469 181.5 37.496094 C 180.992188 36.851562 181.105469 35.910156 181.75 35.402344 L 197.082031 23.34375 L 181.75 11.28125 C 181.105469 10.773438 180.992188 9.835938 181.5 9.191406 C 181.789062 8.828125 182.214844 8.621094 182.671875 8.621094 C 183.003906 8.621094 183.332031 8.734375 183.59375 8.941406 L 200.414062 22.171875 C 200.773438 22.457031 200.980469 22.882812 200.980469 23.34375 C 200.980469 23.800781 200.773438 24.226562 200.410156 24.511719 L 183.59375 37.742188 C 183.332031 37.953125 183.003906 38.0625 182.671875 38.0625 " fill-opacity="1" fill-rule="nonzero"/><g clip-path="url(#de65018a84)"><path fill="#2a446b" d="M 182.671875 7.988281 C 182.019531 7.988281 181.410156 8.28125 181.003906 8.796875 C 180.277344 9.71875 180.4375 11.054688 181.359375 11.78125 L 196.054688 23.34375 L 181.359375 34.90625 C 180.4375 35.628906 180.277344 36.96875 181.003906 37.886719 C 181.410156 38.402344 182.019531 38.699219 182.671875 38.699219 C 183.148438 38.699219 183.613281 38.535156 183.984375 38.242188 L 200.804688 25.011719 C 201.320312 24.605469 201.613281 23.996094 201.613281 23.34375 C 201.613281 22.6875 201.320312 22.082031 200.804688 21.671875 L 183.988281 8.441406 C 183.613281 8.148438 183.148438 7.988281 182.671875 7.988281 Z M 182.671875 9.253906 C 182.859375 9.253906 183.046875 9.3125 183.199219 9.4375 L 200.019531 22.667969 C 200.226562 22.832031 200.34375 23.078125 200.34375 23.34375 C 200.34375 23.605469 200.226562 23.851562 200.019531 24.015625 L 183.199219 37.246094 C 183.046875 37.371094 182.859375 37.429688 182.671875 37.429688 C 182.417969 37.429688 182.167969 37.316406 182 37.101562 C 181.707031 36.730469 181.773438 36.191406 182.140625 35.902344 L 198.105469 23.34375 L 182.140625 10.78125 C 181.773438 10.492188 181.707031 9.953125 182 9.582031 C 182.167969 9.367188 182.421875 9.253906 182.671875 9.253906 " fill-opacity="1" fill-rule="nonzero"/></g><g clip-path="url(#dc0b3e4476)"><path fill="#03fa6e" d="M 163.21875 46.046875 C 163.035156 46.046875 162.855469 46.011719 162.683594 45.945312 C 162.3125 45.800781 162.015625 45.523438 161.859375 45.160156 C 161.695312 44.792969 161.6875 44.390625 161.828125 44.019531 L 178.253906 1.589844 C 178.476562 1.019531 179.035156 0.636719 179.644531 0.636719 C 179.828125 0.636719 180.011719 0.671875 180.183594 0.738281 C 180.949219 1.035156 181.332031 1.898438 181.035156 2.667969 L 164.609375 45.097656 C 164.390625 45.664062 163.828125 46.046875 163.21875 46.046875 " fill-opacity="1" fill-rule="nonzero"/><path fill="#2a446b" d="M 179.644531 0.00390625 C 178.773438 0.00390625 177.976562 0.550781 177.664062 1.359375 L 161.238281 43.789062 C 161.035156 44.320312 161.046875 44.894531 161.277344 45.414062 C 161.507812 45.933594 161.921875 46.335938 162.453125 46.539062 C 162.699219 46.632812 162.957031 46.683594 163.21875 46.683594 C 164.089844 46.683594 164.886719 46.136719 165.203125 45.324219 L 181.625 2.894531 C 182.046875 1.800781 181.503906 0.566406 180.410156 0.148438 C 180.167969 0.0507812 179.90625 0.00390625 179.644531 0.00390625 Z M 179.644531 1.269531 C 179.746094 1.269531 179.851562 1.292969 179.953125 1.328125 C 180.394531 1.5 180.613281 1.996094 180.441406 2.4375 L 164.015625 44.867188 C 163.886719 45.207031 163.5625 45.414062 163.21875 45.414062 C 163.117188 45.414062 163.011719 45.394531 162.910156 45.355469 C 162.46875 45.183594 162.25 44.6875 162.421875 44.25 L 178.847656 1.820312 C 178.980469 1.480469 179.300781 1.269531 179.644531 1.269531 " fill-opacity="1" fill-rule="nonzero"/></g><g fill="#171810" fill-opacity="1"><g transform="translate(24.380308, 93.793778)"><g><path d="M 8.671875 0 L 2.265625 0 L 2.265625 -33.359375 L 24.421875 -33.359375 L 24.421875 -27.3125 L 8.671875 -27.3125 L 8.671875 -19.90625 L 22.984375 -19.90625 L 22.984375 -14.1875 L 8.671875 -14.1875 Z M 8.671875 0 "/></g></g></g><g fill="#171810" fill-opacity="1"><g transform="translate(48.642134, 93.793778)"><g><path d="M 13.25 -24.421875 C 15.4375 -24.421875 17.335938 -24.125 18.953125 -23.53125 C 20.578125 -22.945312 21.832031 -21.976562 22.71875 -20.625 C 23.613281 -19.269531 24.0625 -17.425781 24.0625 -15.09375 L 24.0625 -0.5 C 22.4375 -0.132812 20.648438 0.144531 18.703125 0.34375 C 16.765625 0.550781 14.984375 0.65625 13.359375 0.65625 C 10.953125 0.65625 8.867188 0.410156 7.109375 -0.078125 C 5.359375 -0.578125 4.007812 -1.382812 3.0625 -2.5 C 2.113281 -3.625 1.640625 -5.109375 1.640625 -6.953125 L 1.640625 -7.03125 C 1.640625 -9.550781 2.582031 -11.398438 4.46875 -12.578125 C 6.363281 -13.765625 8.929688 -14.359375 12.171875 -14.359375 C 13.046875 -14.359375 13.914062 -14.335938 14.78125 -14.296875 C 15.644531 -14.253906 16.554688 -14.164062 17.515625 -14.03125 L 17.515625 -14.890625 C 17.515625 -16.367188 17.019531 -17.410156 16.03125 -18.015625 C 15.050781 -18.617188 13.65625 -18.921875 11.84375 -18.921875 C 10.664062 -18.921875 9.304688 -18.773438 7.765625 -18.484375 C 6.234375 -18.191406 4.820312 -17.785156 3.53125 -17.265625 L 4.96875 -23.078125 C 5.570312 -23.316406 6.328125 -23.539062 7.234375 -23.75 C 8.140625 -23.957031 9.117188 -24.117188 10.171875 -24.234375 C 11.234375 -24.359375 12.257812 -24.421875 13.25 -24.421875 Z M 8.34375 -7.359375 L 8.34375 -7.28125 C 8.34375 -6.257812 8.800781 -5.53125 9.71875 -5.09375 C 10.644531 -4.65625 11.941406 -4.4375 13.609375 -4.4375 C 14.765625 -4.4375 16.066406 -4.546875 17.515625 -4.765625 L 17.515625 -9.875 C 16.859375 -9.976562 16.171875 -10.054688 15.453125 -10.109375 C 14.742188 -10.171875 14.128906 -10.203125 13.609375 -10.203125 C 11.960938 -10.203125 10.671875 -9.988281 9.734375 -9.5625 C 8.804688 -9.132812 8.34375 -8.398438 8.34375 -7.359375 Z M 8.34375 -7.359375 "/></g></g></g><g fill="#171810" fill-opacity="1"><g transform="translate(73.27407, 93.793778)"><g><path d="M 12.953125 0.65625 C 10.765625 0.65625 8.851562 0.476562 7.21875 0.125 C 5.582031 -0.226562 3.914062 -0.816406 2.21875 -1.640625 L 2.21875 -33.359375 L 8.765625 -33.359375 L 8.765625 -23.9375 C 9.472656 -24.101562 10.203125 -24.242188 10.953125 -24.359375 C 11.710938 -24.484375 12.476562 -24.546875 13.25 -24.546875 C 15.925781 -24.546875 18.222656 -24.003906 20.140625 -22.921875 C 22.066406 -21.835938 23.535156 -20.347656 24.546875 -18.453125 C 25.566406 -16.566406 26.078125 -14.421875 26.078125 -12.015625 L 26.078125 -11.921875 C 26.078125 -9.515625 25.539062 -7.363281 24.46875 -5.46875 C 23.394531 -3.570312 21.878906 -2.078125 19.921875 -0.984375 C 17.960938 0.109375 15.640625 0.65625 12.953125 0.65625 Z M 12.953125 -5.1875 C 15.117188 -5.1875 16.75 -5.835938 17.84375 -7.140625 C 18.945312 -8.441406 19.5 -10.035156 19.5 -11.921875 L 19.5 -12.015625 C 19.5 -13.898438 18.945312 -15.488281 17.84375 -16.78125 C 16.75 -18.070312 15.117188 -18.71875 12.953125 -18.71875 C 12.265625 -18.71875 11.550781 -18.644531 10.8125 -18.5 C 10.070312 -18.363281 9.390625 -18.226562 8.765625 -18.09375 L 8.765625 -5.71875 C 9.390625 -5.550781 10.050781 -5.421875 10.75 -5.328125 C 11.445312 -5.234375 12.179688 -5.1875 12.953125 -5.1875 Z M 12.953125 -5.1875 "/></g></g></g><g fill="#171810" fill-opacity="1"><g transform="translate(99.468646, 93.793778)"><g><path d="M 8.765625 0 L 2.21875 0 L 2.21875 -22.703125 C 3.375 -22.953125 4.5625 -23.144531 5.78125 -23.28125 C 7 -23.414062 8.140625 -23.503906 9.203125 -23.546875 C 10.273438 -23.585938 11.171875 -23.609375 11.890625 -23.609375 L 16.484375 -23.609375 L 16.484375 -17.59375 L 12.953125 -17.59375 C 12.617188 -17.59375 12.148438 -17.570312 11.546875 -17.53125 C 10.953125 -17.5 10.382812 -17.460938 9.84375 -17.421875 C 9.3125 -17.378906 8.953125 -17.328125 8.765625 -17.265625 Z M 8.765625 0 "/></g></g></g><g fill="#171810" fill-opacity="1"><g transform="translate(115.958351, 93.793778)"><g><path d="M 7.40625 -26.65625 L 2.796875 -26.65625 L 6.09375 -32.859375 L 14.1875 -32.859375 Z M 8.765625 0 L 2.21875 0 L 2.21875 -23.609375 L 8.765625 -23.609375 Z M 8.765625 0 "/></g></g></g><g fill="#171810" fill-opacity="1"><g transform="translate(125.374998, 93.793778)"><g><path d="M 14.46875 0.609375 C 11.894531 0.609375 9.648438 0.0820312 7.734375 -0.96875 C 5.816406 -2.019531 4.320312 -3.488281 3.25 -5.375 C 2.175781 -7.269531 1.640625 -9.453125 1.640625 -11.921875 L 1.640625 -12.015625 C 1.640625 -14.472656 2.164062 -16.640625 3.21875 -18.515625 C 4.28125 -20.398438 5.773438 -21.875 7.703125 -22.9375 C 9.640625 -24.007812 11.894531 -24.546875 14.46875 -24.546875 C 15.894531 -24.546875 17.332031 -24.367188 18.78125 -24.015625 C 20.238281 -23.660156 21.53125 -23.164062 22.65625 -22.53125 L 20.0625 -17.6875 C 19.269531 -18.125 18.4375 -18.460938 17.5625 -18.703125 C 16.6875 -18.953125 15.769531 -19.078125 14.8125 -19.078125 C 12.71875 -19.078125 11.09375 -18.410156 9.9375 -17.078125 C 8.789062 -15.753906 8.21875 -14.066406 8.21875 -12.015625 L 8.21875 -11.921875 C 8.21875 -9.898438 8.789062 -8.207031 9.9375 -6.84375 C 11.09375 -5.488281 12.71875 -4.8125 14.8125 -4.8125 C 15.769531 -4.8125 16.675781 -4.925781 17.53125 -5.15625 C 18.394531 -5.394531 19.238281 -5.734375 20.0625 -6.171875 L 22.625 -1.3125 C 21.519531 -0.707031 20.238281 -0.238281 18.78125 0.09375 C 17.332031 0.4375 15.894531 0.609375 14.46875 0.609375 Z M 14.46875 0.609375 "/></g></g></g><g fill="#171810" fill-opacity="1"><g transform="translate(147.457346, 93.793778)"><g><path d="M 5.46875 -26.6875 C 4.59375 -26.6875 3.832031 -26.921875 3.1875 -27.390625 C 2.539062 -27.859375 2.21875 -28.582031 2.21875 -29.5625 C 2.21875 -30.445312 2.523438 -31.140625 3.140625 -31.640625 C 3.765625 -32.148438 4.539062 -32.40625 5.46875 -32.40625 C 6.425781 -32.40625 7.207031 -32.148438 7.8125 -31.640625 C 8.414062 -31.140625 8.71875 -30.445312 8.71875 -29.5625 C 8.71875 -28.582031 8.398438 -27.859375 7.765625 -27.390625 C 7.140625 -26.921875 6.375 -26.6875 5.46875 -26.6875 Z M 8.765625 0 L 2.21875 0 L 2.21875 -23.609375 L 8.765625 -23.609375 Z M 8.765625 0 "/></g></g></g><g fill="#171810" fill-opacity="1"><g transform="translate(156.874005, 93.793778)"><g><path d="M 14.765625 0.65625 C 12.210938 0.65625 9.945312 0.109375 7.96875 -0.984375 C 6 -2.078125 4.457031 -3.578125 3.34375 -5.484375 C 2.238281 -7.390625 1.6875 -9.550781 1.6875 -11.96875 L 1.6875 -12.015625 C 1.6875 -14.421875 2.238281 -16.566406 3.34375 -18.453125 C 4.457031 -20.347656 5.992188 -21.835938 7.953125 -22.921875 C 9.910156 -24.003906 12.179688 -24.546875 14.765625 -24.546875 C 17.335938 -24.546875 19.609375 -24.003906 21.578125 -22.921875 C 23.554688 -21.835938 25.097656 -20.347656 26.203125 -18.453125 C 27.316406 -16.566406 27.875 -14.421875 27.875 -12.015625 L 27.875 -11.96875 C 27.875 -9.550781 27.316406 -7.390625 26.203125 -5.484375 C 25.097656 -3.578125 23.554688 -2.078125 21.578125 -0.984375 C 19.609375 0.109375 17.335938 0.65625 14.765625 0.65625 Z M 14.765625 -5.1875 C 16.078125 -5.1875 17.21875 -5.484375 18.1875 -6.078125 C 19.164062 -6.679688 19.925781 -7.5 20.46875 -8.53125 C 21.019531 -9.5625 21.296875 -10.707031 21.296875 -11.96875 L 21.296875 -12.046875 C 21.296875 -13.304688 21.03125 -14.4375 20.5 -15.4375 C 19.96875 -16.4375 19.210938 -17.234375 18.234375 -17.828125 C 17.265625 -18.421875 16.109375 -18.71875 14.765625 -18.71875 C 13.453125 -18.71875 12.304688 -18.421875 11.328125 -17.828125 C 10.359375 -17.234375 9.597656 -16.4375 9.046875 -15.4375 C 8.492188 -14.4375 8.21875 -13.304688 8.21875 -12.046875 L 8.21875 -11.96875 C 8.21875 -10.707031 8.492188 -9.5625 9.046875 -8.53125 C 9.597656 -7.5 10.363281 -6.679688 11.34375 -6.078125 C 12.332031 -5.484375 13.472656 -5.1875 14.765625 -5.1875 Z M 14.765625 -5.1875 "/></g></g></g><g fill="#171810" fill-opacity="1"><g transform="translate(184.83685, 93.793778)"><g/></g></g><g fill="#171810" fill-opacity="1"><g transform="translate(190.223512, 93.793778)"><g><path d="M 21.796875 -13.734375 L 30.109375 0 L 23.234375 0 L 15.421875 -13.078125 L 8.671875 -13.078125 L 8.671875 0 L 2.265625 0 L 2.265625 -33.359375 L 16.8125 -33.359375 C 19.71875 -33.359375 22.035156 -32.910156 23.765625 -32.015625 C 25.492188 -31.117188 26.734375 -29.925781 27.484375 -28.4375 C 28.242188 -26.945312 28.625 -25.296875 28.625 -23.484375 L 28.625 -23.4375 C 28.625 -21.1875 28.082031 -19.191406 27 -17.453125 C 25.914062 -15.710938 24.179688 -14.472656 21.796875 -13.734375 Z M 16.484375 -27.34375 L 8.671875 -27.34375 L 8.671875 -18.09375 L 16.484375 -18.09375 C 18.191406 -18.09375 19.546875 -18.441406 20.546875 -19.140625 C 21.546875 -19.835938 22.046875 -21.066406 22.046875 -22.828125 L 22.046875 -22.859375 C 22.046875 -24.535156 21.546875 -25.703125 20.546875 -26.359375 C 19.546875 -27.015625 18.191406 -27.34375 16.484375 -27.34375 Z M 16.484375 -27.34375 "/></g></g></g><g fill="#171810" fill-opacity="1"><g transform="translate(219.337775, 93.793778)"><g><path d="M 14.765625 0.65625 C 12.210938 0.65625 9.945312 0.109375 7.96875 -0.984375 C 6 -2.078125 4.457031 -3.578125 3.34375 -5.484375 C 2.238281 -7.390625 1.6875 -9.550781 1.6875 -11.96875 L 1.6875 -12.015625 C 1.6875 -14.421875 2.238281 -16.566406 3.34375 -18.453125 C 4.457031 -20.347656 5.992188 -21.835938 7.953125 -22.921875 C 9.910156 -24.003906 12.179688 -24.546875 14.765625 -24.546875 C 17.335938 -24.546875 19.609375 -24.003906 21.578125 -22.921875 C 23.554688 -21.835938 25.097656 -20.347656 26.203125 -18.453125 C 27.316406 -16.566406 27.875 -14.421875 27.875 -12.015625 L 27.875 -11.96875 C 27.875 -9.550781 27.316406 -7.390625 26.203125 -5.484375 C 25.097656 -3.578125 23.554688 -2.078125 21.578125 -0.984375 C 19.609375 0.109375 17.335938 0.65625 14.765625 0.65625 Z M 14.765625 -5.1875 C 16.078125 -5.1875 17.21875 -5.484375 18.1875 -6.078125 C 19.164062 -6.679688 19.925781 -7.5 20.46875 -8.53125 C 21.019531 -9.5625 21.296875 -10.707031 21.296875 -11.96875 L 21.296875 -12.046875 C 21.296875 -13.304688 21.03125 -14.4375 20.5 -15.4375 C 19.96875 -16.4375 19.210938 -17.234375 18.234375 -17.828125 C 17.265625 -18.421875 16.109375 -18.71875 14.765625 -18.71875 C 13.453125 -18.71875 12.304688 -18.421875 11.328125 -17.828125 C 10.359375 -17.234375 9.597656 -16.4375 9.046875 -15.4375 C 8.492188 -14.4375 8.21875 -13.304688 8.21875 -12.046875 L 8.21875 -11.96875 C 8.21875 -10.707031 8.492188 -9.5625 9.046875 -8.53125 C 9.597656 -7.5 10.363281 -6.679688 11.34375 -6.078125 C 12.332031 -5.484375 13.472656 -5.1875 14.765625 -5.1875 Z M 14.765625 -5.1875 "/></g></g></g><g fill="#171810" fill-opacity="1"><g transform="translate(247.30062, 93.793778)"><g><path d="M 14.46875 0.609375 C 11.894531 0.609375 9.648438 0.0820312 7.734375 -0.96875 C 5.816406 -2.019531 4.320312 -3.488281 3.25 -5.375 C 2.175781 -7.269531 1.640625 -9.453125 1.640625 -11.921875 L 1.640625 -12.015625 C 1.640625 -14.472656 2.164062 -16.640625 3.21875 -18.515625 C 4.28125 -20.398438 5.773438 -21.875 7.703125 -22.9375 C 9.640625 -24.007812 11.894531 -24.546875 14.46875 -24.546875 C 15.894531 -24.546875 17.332031 -24.367188 18.78125 -24.015625 C 20.238281 -23.660156 21.53125 -23.164062 22.65625 -22.53125 L 20.0625 -17.6875 C 19.269531 -18.125 18.4375 -18.460938 17.5625 -18.703125 C 16.6875 -18.953125 15.769531 -19.078125 14.8125 -19.078125 C 12.71875 -19.078125 11.09375 -18.410156 9.9375 -17.078125 C 8.789062 -15.753906 8.21875 -14.066406 8.21875 -12.015625 L 8.21875 -11.921875 C 8.21875 -9.898438 8.789062 -8.207031 9.9375 -6.84375 C 11.09375 -5.488281 12.71875 -4.8125 14.8125 -4.8125 C 15.769531 -4.8125 16.675781 -4.925781 17.53125 -5.15625 C 18.394531 -5.394531 19.238281 -5.734375 20.0625 -6.171875 L 22.625 -1.3125 C 21.519531 -0.707031 20.238281 -0.238281 18.78125 0.09375 C 17.332031 0.4375 15.894531 0.609375 14.46875 0.609375 Z M 14.46875 0.609375 "/></g></g></g><g fill="#171810" fill-opacity="1"><g transform="translate(269.382967, 93.793778)"><g><path d="M 13.15625 -24.546875 C 14.613281 -24.546875 16 -24.398438 17.3125 -24.109375 C 18.625 -23.828125 19.785156 -23.335938 20.796875 -22.640625 C 21.816406 -21.941406 22.617188 -21.007812 23.203125 -19.84375 C 23.796875 -18.675781 24.09375 -17.203125 24.09375 -15.421875 L 24.09375 0 L 17.5625 0 L 17.5625 -14.640625 C 17.5625 -16.117188 17.171875 -17.164062 16.390625 -17.78125 C 15.609375 -18.40625 14.445312 -18.71875 12.90625 -18.71875 C 12.363281 -18.71875 11.722656 -18.679688 10.984375 -18.609375 C 10.242188 -18.535156 9.503906 -18.429688 8.765625 -18.296875 L 8.765625 0 L 2.21875 0 L 2.21875 -33.359375 L 8.765625 -33.359375 L 8.765625 -24.265625 C 9.640625 -24.347656 10.453125 -24.414062 11.203125 -24.46875 C 11.960938 -24.519531 12.613281 -24.546875 13.15625 -24.546875 Z M 13.15625 -24.546875 "/></g></g></g><g fill="#171810" fill-opacity="1"><g transform="translate(294.13826, 93.793778)"><g><path d="M 13.25 -24.421875 C 15.4375 -24.421875 17.335938 -24.125 18.953125 -23.53125 C 20.578125 -22.945312 21.832031 -21.976562 22.71875 -20.625 C 23.613281 -19.269531 24.0625 -17.425781 24.0625 -15.09375 L 24.0625 -0.5 C 22.4375 -0.132812 20.648438 0.144531 18.703125 0.34375 C 16.765625 0.550781 14.984375 0.65625 13.359375 0.65625 C 10.953125 0.65625 8.867188 0.410156 7.109375 -0.078125 C 5.359375 -0.578125 4.007812 -1.382812 3.0625 -2.5 C 2.113281 -3.625 1.640625 -5.109375 1.640625 -6.953125 L 1.640625 -7.03125 C 1.640625 -9.550781 2.582031 -11.398438 4.46875 -12.578125 C 6.363281 -13.765625 8.929688 -14.359375 12.171875 -14.359375 C 13.046875 -14.359375 13.914062 -14.335938 14.78125 -14.296875 C 15.644531 -14.253906 16.554688 -14.164062 17.515625 -14.03125 L 17.515625 -14.890625 C 17.515625 -16.367188 17.019531 -17.410156 16.03125 -18.015625 C 15.050781 -18.617188 13.65625 -18.921875 11.84375 -18.921875 C 10.664062 -18.921875 9.304688 -18.773438 7.765625 -18.484375 C 6.234375 -18.191406 4.820312 -17.785156 3.53125 -17.265625 L 4.96875 -23.078125 C 5.570312 -23.316406 6.328125 -23.539062 7.234375 -23.75 C 8.140625 -23.957031 9.117188 -24.117188 10.171875 -24.234375 C 11.234375 -24.359375 12.257812 -24.421875 13.25 -24.421875 Z M 8.34375 -7.359375 L 8.34375 -7.28125 C 8.34375 -6.257812 8.800781 -5.53125 9.71875 -5.09375 C 10.644531 -4.65625 11.941406 -4.4375 13.609375 -4.4375 C 14.765625 -4.4375 16.066406 -4.546875 17.515625 -4.765625 L 17.515625 -9.875 C 16.859375 -9.976562 16.171875 -10.054688 15.453125 -10.109375 C 14.742188 -10.171875 14.128906 -10.203125 13.609375 -10.203125 C 11.960938 -10.203125 10.671875 -9.988281 9.734375 -9.5625 C 8.804688 -9.132812 8.34375 -8.398438 8.34375 -7.359375 Z M 8.34375 -7.359375 "/></g></g></g><g fill="#00bf63" fill-opacity="1"><g transform="translate(121.460935, 122.771865)"><g><path d="M 6.328125 0 L 1.03125 0 L 1.03125 -15.5 L 6.328125 -15.5 C 8.117188 -15.5 9.609375 -15.1875 10.796875 -14.5625 C 11.992188 -13.945312 12.890625 -13.066406 13.484375 -11.921875 C 14.078125 -10.785156 14.375 -9.429688 14.375 -7.859375 L 14.375 -7.8125 C 14.375 -6.195312 14.078125 -4.804688 13.484375 -3.640625 C 12.890625 -2.472656 11.992188 -1.570312 10.796875 -0.9375 C 9.609375 -0.3125 8.117188 0 6.328125 0 Z M 4.046875 -12.6875 L 4.046875 -2.8125 L 6.25 -2.8125 C 7.875 -2.8125 9.117188 -3.238281 9.984375 -4.09375 C 10.859375 -4.945312 11.296875 -6.1875 11.296875 -7.8125 L 11.296875 -7.859375 C 11.296875 -9.421875 10.863281 -10.613281 10 -11.4375 C 9.144531 -12.269531 7.894531 -12.6875 6.25 -12.6875 Z M 4.046875 -12.6875 "/></g></g></g><g fill="#00bf63" fill-opacity="1"><g transform="translate(135.858289, 122.771865)"><g><path d="M 12.140625 -5.125 L 12.140625 -4.859375 L 3.921875 -4.859375 C 4.066406 -4.148438 4.40625 -3.554688 4.9375 -3.078125 C 5.46875 -2.609375 6.144531 -2.375 6.96875 -2.375 C 7.644531 -2.375 8.265625 -2.476562 8.828125 -2.6875 C 9.398438 -2.894531 9.882812 -3.140625 10.28125 -3.421875 L 11.59375 -1.0625 C 11.050781 -0.71875 10.390625 -0.40625 9.609375 -0.125 C 8.835938 0.144531 7.914062 0.28125 6.84375 0.28125 C 5.613281 0.28125 4.546875 0.0351562 3.640625 -0.453125 C 2.734375 -0.941406 2.023438 -1.625 1.515625 -2.5 C 1.015625 -3.382812 0.765625 -4.40625 0.765625 -5.5625 L 0.765625 -5.578125 C 0.765625 -6.722656 1 -7.734375 1.46875 -8.609375 C 1.9375 -9.484375 2.597656 -10.164062 3.453125 -10.65625 C 4.304688 -11.15625 5.316406 -11.40625 6.484375 -11.40625 C 7.648438 -11.40625 8.65625 -11.15625 9.5 -10.65625 C 10.351562 -10.15625 11.003906 -9.4375 11.453125 -8.5 C 11.910156 -7.5625 12.140625 -6.4375 12.140625 -5.125 Z M 6.453125 -8.9375 C 5.796875 -8.9375 5.242188 -8.726562 4.796875 -8.3125 C 4.359375 -7.894531 4.070312 -7.363281 3.9375 -6.71875 L 9.03125 -6.71875 C 8.914062 -7.363281 8.640625 -7.894531 8.203125 -8.3125 C 7.773438 -8.726562 7.191406 -8.9375 6.453125 -8.9375 Z M 6.453125 -8.9375 "/></g></g></g><g fill="#00bf63" fill-opacity="1"><g transform="translate(148.040612, 122.771865)"><g><path d="M 6.0625 -2.140625 L 8.71875 -10.96875 L 11.890625 -10.96875 L 8.140625 0 L 3.96875 0 L 0.234375 -10.96875 L 3.40625 -10.96875 Z M 6.0625 -2.140625 "/></g></g></g><g fill="#00bf63" fill-opacity="1"><g transform="translate(159.420944, 122.771865)"><g><path d="M 12.140625 -5.125 L 12.140625 -4.859375 L 3.921875 -4.859375 C 4.066406 -4.148438 4.40625 -3.554688 4.9375 -3.078125 C 5.46875 -2.609375 6.144531 -2.375 6.96875 -2.375 C 7.644531 -2.375 8.265625 -2.476562 8.828125 -2.6875 C 9.398438 -2.894531 9.882812 -3.140625 10.28125 -3.421875 L 11.59375 -1.0625 C 11.050781 -0.71875 10.390625 -0.40625 9.609375 -0.125 C 8.835938 0.144531 7.914062 0.28125 6.84375 0.28125 C 5.613281 0.28125 4.546875 0.0351562 3.640625 -0.453125 C 2.734375 -0.941406 2.023438 -1.625 1.515625 -2.5 C 1.015625 -3.382812 0.765625 -4.40625 0.765625 -5.5625 L 0.765625 -5.578125 C 0.765625 -6.722656 1 -7.734375 1.46875 -8.609375 C 1.9375 -9.484375 2.597656 -10.164062 3.453125 -10.65625 C 4.304688 -11.15625 5.316406 -11.40625 6.484375 -11.40625 C 7.648438 -11.40625 8.65625 -11.15625 9.5 -10.65625 C 10.351562 -10.15625 11.003906 -9.4375 11.453125 -8.5 C 11.910156 -7.5625 12.140625 -6.4375 12.140625 -5.125 Z M 6.453125 -8.9375 C 5.796875 -8.9375 5.242188 -8.726562 4.796875 -8.3125 C 4.359375 -7.894531 4.070312 -7.363281 3.9375 -6.71875 L 9.03125 -6.71875 C 8.914062 -7.363281 8.640625 -7.894531 8.203125 -8.3125 C 7.773438 -8.726562 7.191406 -8.9375 6.453125 -8.9375 Z M 6.453125 -8.9375 "/></g></g></g><g fill="#00bf63" fill-opacity="1"><g transform="translate(171.603268, 122.771865)"><g><path d="M 4.078125 0 L 1.03125 0 L 1.03125 -15.5 L 4.078125 -15.5 Z M 4.078125 0 "/></g></g></g><g fill="#00bf63" fill-opacity="1"><g transform="translate(175.975687, 122.771865)"><g><path d="M 6.859375 0.3125 C 5.671875 0.3125 4.617188 0.0546875 3.703125 -0.453125 C 2.785156 -0.960938 2.066406 -1.660156 1.546875 -2.546875 C 1.035156 -3.429688 0.78125 -4.4375 0.78125 -5.5625 L 0.78125 -5.578125 C 0.78125 -6.703125 1.035156 -7.703125 1.546875 -8.578125 C 2.066406 -9.460938 2.78125 -10.15625 3.6875 -10.65625 C 4.601562 -11.15625 5.660156 -11.40625 6.859375 -11.40625 C 8.054688 -11.40625 9.113281 -11.15625 10.03125 -10.65625 C 10.945312 -10.15625 11.660156 -9.460938 12.171875 -8.578125 C 12.691406 -7.703125 12.953125 -6.703125 12.953125 -5.578125 L 12.953125 -5.5625 C 12.953125 -4.4375 12.691406 -3.429688 12.171875 -2.546875 C 11.660156 -1.660156 10.945312 -0.960938 10.03125 -0.453125 C 9.113281 0.0546875 8.054688 0.3125 6.859375 0.3125 Z M 6.859375 -2.40625 C 7.472656 -2.40625 8.003906 -2.546875 8.453125 -2.828125 C 8.910156 -3.109375 9.265625 -3.488281 9.515625 -3.96875 C 9.773438 -4.445312 9.90625 -4.976562 9.90625 -5.5625 L 9.90625 -5.59375 C 9.90625 -6.1875 9.78125 -6.710938 9.53125 -7.171875 C 9.28125 -7.640625 8.925781 -8.007812 8.46875 -8.28125 C 8.019531 -8.550781 7.484375 -8.6875 6.859375 -8.6875 C 6.242188 -8.6875 5.710938 -8.550781 5.265625 -8.28125 C 4.816406 -8.007812 4.460938 -7.640625 4.203125 -7.171875 C 3.953125 -6.710938 3.828125 -6.1875 3.828125 -5.59375 L 3.828125 -5.5625 C 3.828125 -4.976562 3.953125 -4.445312 4.203125 -3.96875 C 4.460938 -3.488281 4.820312 -3.109375 5.28125 -2.828125 C 5.738281 -2.546875 6.265625 -2.40625 6.859375 -2.40625 Z M 6.859375 -2.40625 "/></g></g></g><g fill="#00bf63" fill-opacity="1"><g transform="translate(188.960003, 122.771865)"><g><path d="M 4.078125 4.203125 L 1.03125 4.203125 L 1.03125 -10.359375 C 1.695312 -10.628906 2.4375 -10.867188 3.25 -11.078125 C 4.070312 -11.296875 4.992188 -11.40625 6.015625 -11.40625 C 7.265625 -11.40625 8.34375 -11.148438 9.25 -10.640625 C 10.164062 -10.128906 10.867188 -9.4375 11.359375 -8.5625 C 11.859375 -7.6875 12.109375 -6.6875 12.109375 -5.5625 L 12.109375 -5.515625 C 12.109375 -4.410156 11.867188 -3.414062 11.390625 -2.53125 C 10.921875 -1.65625 10.242188 -0.96875 9.359375 -0.46875 C 8.472656 0.03125 7.40625 0.28125 6.15625 0.28125 C 5.800781 0.28125 5.445312 0.25 5.09375 0.1875 C 4.738281 0.132812 4.398438 0.0664062 4.078125 -0.015625 Z M 6.015625 -2.421875 C 7.023438 -2.421875 7.785156 -2.71875 8.296875 -3.3125 C 8.804688 -3.90625 9.0625 -4.640625 9.0625 -5.515625 L 9.0625 -5.5625 C 9.0625 -6.457031 8.804688 -7.203125 8.296875 -7.796875 C 7.785156 -8.390625 7.023438 -8.6875 6.015625 -8.6875 C 5.316406 -8.6875 4.671875 -8.613281 4.078125 -8.46875 L 4.078125 -2.734375 C 4.367188 -2.660156 4.6875 -2.585938 5.03125 -2.515625 C 5.375 -2.453125 5.703125 -2.421875 6.015625 -2.421875 Z M 6.015625 -2.421875 "/></g></g></g><g fill="#00bf63" fill-opacity="1"><g transform="translate(201.123237, 122.771865)"><g><path d="M 12.140625 -5.125 L 12.140625 -4.859375 L 3.921875 -4.859375 C 4.066406 -4.148438 4.40625 -3.554688 4.9375 -3.078125 C 5.46875 -2.609375 6.144531 -2.375 6.96875 -2.375 C 7.644531 -2.375 8.265625 -2.476562 8.828125 -2.6875 C 9.398438 -2.894531 9.882812 -3.140625 10.28125 -3.421875 L 11.59375 -1.0625 C 11.050781 -0.71875 10.390625 -0.40625 9.609375 -0.125 C 8.835938 0.144531 7.914062 0.28125 6.84375 0.28125 C 5.613281 0.28125 4.546875 0.0351562 3.640625 -0.453125 C 2.734375 -0.941406 2.023438 -1.625 1.515625 -2.5 C 1.015625 -3.382812 0.765625 -4.40625 0.765625 -5.5625 L 0.765625 -5.578125 C 0.765625 -6.722656 1 -7.734375 1.46875 -8.609375 C 1.9375 -9.484375 2.597656 -10.164062 3.453125 -10.65625 C 4.304688 -11.15625 5.316406 -11.40625 6.484375 -11.40625 C 7.648438 -11.40625 8.65625 -11.15625 9.5 -10.65625 C 10.351562 -10.15625 11.003906 -9.4375 11.453125 -8.5 C 11.910156 -7.5625 12.140625 -6.4375 12.140625 -5.125 Z M 6.453125 -8.9375 C 5.796875 -8.9375 5.242188 -8.726562 4.796875 -8.3125 C 4.359375 -7.894531 4.070312 -7.363281 3.9375 -6.71875 L 9.03125 -6.71875 C 8.914062 -7.363281 8.640625 -7.894531 8.203125 -8.3125 C 7.773438 -8.726562 7.191406 -8.9375 6.453125 -8.9375 Z M 6.453125 -8.9375 "/></g></g></g><g fill="#00bf63" fill-opacity="1"><g transform="translate(213.305562, 122.771865)"><g><path d="M 4.078125 0 L 1.03125 0 L 1.03125 -10.546875 C 1.5625 -10.660156 2.109375 -10.75 2.671875 -10.8125 C 3.242188 -10.875 3.78125 -10.914062 4.28125 -10.9375 C 4.78125 -10.957031 5.191406 -10.96875 5.515625 -10.96875 L 7.65625 -10.96875 L 7.65625 -8.171875 L 6.015625 -8.171875 C 5.867188 -8.171875 5.65625 -8.160156 5.375 -8.140625 C 5.09375 -8.128906 4.828125 -8.113281 4.578125 -8.09375 C 4.328125 -8.070312 4.160156 -8.050781 4.078125 -8.03125 Z M 4.078125 0 "/></g></g></g></svg>