<?xml version="1.0" encoding="utf-8"?>
<!-- Generator: Adobe Illustrator 24.2.0, SVG Export Plug-In . SVG Version: 6.00 Build 0)  -->
<svg version="1.1" id="Layer_1" xmlns="http://www.w3.org/2000/svg" xmlns:xlink="http://www.w3.org/1999/xlink" x="0px" y="0px"
	 viewBox="0 0 16 16" style="enable-background:new 0 0 16 16;" xml:space="preserve">
<path d="M0,0v1h16V0H0z M0,15v1h16v-1H0z M1,2.8V1.9H0v0.9H1z M7.5,1.9v0.9h1V1.9H7.5z M15,1.9v0.9h1V1.9H15z M1,4.7V3.8H0v0.9
	L1,4.7L1,4.7z M7.5,3.8v0.9h1V3.8L7.5,3.8L7.5,3.8z M15,3.8v0.9h1V3.8L15,3.8L15,3.8z M1,6.6V5.7H0v0.9H1z M7.5,5.7v0.9h1V5.7H7.5z
	 M15,5.7v0.9h1V5.7H15z M0.5,8.5H1v0h0V7.5h0v0H0.5v0H0v0.9L0.5,8.5L0.5,8.5z M1.9,8.5h0.9v-1H1.9C1.9,7.5,1.9,8.5,1.9,8.5z
	 M3.8,8.5h0.9v-1H3.8L3.8,8.5L3.8,8.5z M5.7,8.5h0.9v-1H5.7V8.5z M8.5,8.5L8.5,8.5L8.5,8.5l0-1h0v0H7.5v0h0v0.9h0v0H8.5z M9.4,8.5
	h0.9v-1H9.4V8.5z M11.3,8.5h0.9v-1h-0.9V8.5z M13.2,8.5h0.9v-1h-0.9V8.5z M15,8.5h0.5v0H16V7.5h-0.5v0H15v0h0L15,8.5L15,8.5L15,8.5z
	 M0,9.4v0.9h1V9.4H0z M7.5,9.4v0.9h1V9.4H7.5z M16,10.3V9.4h-1v0.9H16z M0,11.3v0.9h1v-0.9H0z M7.5,11.3v0.9h1v-0.9H7.5z M16,12.2
	v-0.9h-1v0.9H16z M0,13.2v0.9h1v-0.9H0z M7.5,13.2v0.9h1v-0.9H7.5z M16,14.1v-0.9h-1v0.9H16z"/>
</svg>
