<?xml version="1.0" encoding="utf-8"?>
<!-- Generator: Adobe Illustrator 24.2.0, SVG Export Plug-In . SVG Version: 6.00 Build 0)  -->
<svg version="1.1" id="Layer_1" xmlns="http://www.w3.org/2000/svg" xmlns:xlink="http://www.w3.org/1999/xlink" x="0px" y="0px"
	 viewBox="0 0 18 18" style="enable-background:new 0 0 18 18;" xml:space="preserve">
<path d="M15.5,1h-13C1.7,1,1,1.7,1,2.5v13C1,16.3,1.7,17,2.5,17h13c0.8,0,1.5-0.7,1.5-1.5v-13C17,1.7,16.3,1,15.5,1z M2.5,16
	C2.2,16,2,15.8,2,15.5v-13C2,2.2,2.2,2,2.5,2h2.2v14H2.5z M5.7,16V2h2.8v14H5.7z M9.5,16V2h2.8v14H9.5z M16,15.5
	c0,0.3-0.2,0.5-0.5,0.5h-2V2h2C15.8,2,16,2.2,16,2.5V15.5z"/>
</svg>
