<svg xmlns="http://www.w3.org/2000/svg" viewBox="0 0 16 16" xml:space="preserve">
  <path d="M0 2C0 .9.9 0 2 0h12c1.1 0 2 .9 2 2v12c0 1.1-.9 2-2 2H2c-1.1 0-2-.9-2-2V2zm15 0c0-.6-.4-1-1-1H2c-.6 0-1 .4-1 1v12c0 .6.4 1 1 1h12c.6 0 1-.4 1-1V2z"/>
  <path d="M9.2 3.8c0 .2.2.4.4.4s.4-.2.4-.4V2.3c0-.2-.2-.4-.4-.4s-.4.2-.4.4v1.5zm3.6 0c.2-.2.2-.4 0-.6-.2-.2-.4-.2-.6 0l-1.1 1c-.2.2-.2.4 0 .6.2.2.4.2.6 0l1.1-1zm-5.4 1c.1.2.4.2.5.1.2-.2.2-.4 0-.6l-1.1-1c-.2-.2-.4-.1-.6 0-.2.2-.2.4 0 .6l1.2.9zm-.5 2.1c.2 0 .4-.2.4-.4s-.2-.4-.4-.4H5.4c-.3 0-.4.1-.4.4 0 .2.2.4.4.4h1.5zm6.9 0c.2 0 .4-.2.4-.4s-.2-.4-.4-.4h-1.5c-.2 0-.4.2-.4.4s.2.4.4.4h1.5zm-1.6 2.8c.2.2.4.2.6 0 .2-.2.2-.4 0-.6l-1.1-1c-.2-.2-.4-.2-.6 0-.2.2-.2.4 0 .6l1.1 1zm-3 .9c0 .2.2.4.4.4s.4-.2.4-.4V9.1c0-.2-.2-.4-.4-.4s-.4.2-.4.4v1.5zm1.5-4.1c.2-.2.2-.4 0-.6l-.6-.6c-.2-.2-.4-.2-.6 0l-1.1 1c-.1.3-.1.5.1.7l.5.5c.2.2.4.2.6 0l1.1-1zM8.2 8.9c.2-.2.2-.4 0-.6l-.6-.5c-.2-.2-.4-.2-.6 0l-5 5c-.2.2-.2.4 0 .6l.5.6c.2.2.4.2.6 0l5.1-5.1z"/>
</svg>