<?xml version="1.0" encoding="utf-8"?>
<!-- Generator: Adobe Illustrator 24.2.0, SVG Export Plug-In . SVG Version: 6.00 Build 0)  -->
<svg version="1.1" id="Layer_1" xmlns="http://www.w3.org/2000/svg" xmlns:xlink="http://www.w3.org/1999/xlink" x="0px" y="0px"
	 viewBox="0 0 18 18" style="enable-background:new 0 0 18 18;" xml:space="preserve">
<path d="M1,2.5C1,1.7,1.7,1,2.5,1h13C16.3,1,17,1.7,17,2.5v13c0,0.8-0.7,1.5-1.5,1.5l0,0h-13C1.7,17,1,16.3,1,15.5l0,0V2.5z M2.5,2
	C2.2,2,2,2.2,2,2.5v13C2,15.8,2.2,16,2.5,16H6V2H2.5z M11,16V2H7v14H11z M12,16h3.5c0.3,0,0.5-0.2,0.5-0.5v-13C16,2.2,15.8,2,15.5,2
	H12V16z"/>
</svg>
