<?xml version="1.0" encoding="utf-8"?>
<!-- Generator: Adobe Illustrator 24.2.0, SVG Export Plug-In . SVG Version: 6.00 Build 0)  -->
<svg version="1.1" id="Layer_1" xmlns="http://www.w3.org/2000/svg" xmlns:xlink="http://www.w3.org/1999/xlink" x="0px" y="0px"
	 viewBox="0 0 18 18" style="enable-background:new 0 0 18 18;" xml:space="preserve">
<path d="M17,15.5c0,0.8-0.7,1.5-1.5,1.5l-13,0C1.7,17,1,16.3,1,15.5l0-13C1,1.7,1.7,1,2.5,1l0,0l13,0C16.3,1,17,1.7,17,2.5l0,0
	L17,15.5z M15.5,16c0.3,0,0.5-0.2,0.5-0.5l0-13C16,2.2,15.8,2,15.5,2l-2,0l0,14L15.5,16z M5.7,2l0,14h6.8l0-14L5.7,2z M4.7,2L2.5,2
	C2.2,2,2,2.2,2,2.5l0,13C2,15.8,2.2,16,2.5,16l2.2,0L4.7,2z"/>
</svg>
