<?xml version="1.0" encoding="utf-8"?>
<!-- Generator: Adobe Illustrator 24.2.0, SVG Export Plug-In . SVG Version: 6.00 Build 0)  -->
<svg version="1.1" id="Layer_1" xmlns="http://www.w3.org/2000/svg" xmlns:xlink="http://www.w3.org/1999/xlink" x="0px" y="0px"
	 viewBox="0 0 16 16" style="enable-background:new 0 0 16 16;" xml:space="preserve">
<style type="text/css">
	.st0{fill-rule:evenodd;clip-rule:evenodd;}
</style>
<path class="st0" d="M12.5,12c-0.3,0-0.5-0.2-0.5-0.5v-7C12,4.2,12.2,4,12.5,4S13,4.2,13,4.5v7C13,11.8,12.8,12,12.5,12z M9.5,14
	C9.2,14,9,13.8,9,13.5v-11C9,2.2,9.2,2,9.5,2S10,2.2,10,2.5v11C10,13.8,9.8,14,9.5,14z M6.5,12C6.2,12,6,11.8,6,11.5v-7
	C6,4.2,6.2,4,6.5,4S7,4.2,7,4.5v7C7,11.8,6.8,12,6.5,12z M3.5,14C3.2,14,3,13.8,3,13.5v-11C3,2.2,3.2,2,3.5,2S4,2.2,4,2.5v11
	C4,13.8,3.8,14,3.5,14z"/>
</svg>
