<?xml version="1.0" encoding="utf-8"?>
<!-- Generator: Adobe Illustrator 24.2.0, SVG Export Plug-In . SVG Version: 6.00 Build 0)  -->
<svg version="1.1" id="Layer_1" xmlns="http://www.w3.org/2000/svg" xmlns:xlink="http://www.w3.org/1999/xlink" x="0px" y="0px"
	 viewBox="0 0 16 16" style="enable-background:new 0 0 16 16;" xml:space="preserve">
<style type="text/css">
	.st0{fill-rule:evenodd;clip-rule:evenodd;}
</style>
<path class="st0" d="M12.5,2C12.2,2,12,2.2,12,2.5v7c0,0.3,0.2,0.5,0.5,0.5S13,9.8,13,9.5v-7C13,2.2,12.8,2,12.5,2z M9.5,2
	C9.2,2,9,2.2,9,2.5v11C9,13.8,9.2,14,9.5,14s0.5-0.2,0.5-0.5v-11C10,2.2,9.8,2,9.5,2z M6.5,2C6.2,2,6,2.2,6,2.5v7
	C6,9.8,6.2,10,6.5,10S7,9.8,7,9.5v-7C7,2.2,6.8,2,6.5,2z M3.5,2C3.2,2,3,2.2,3,2.5v11C3,13.8,3.2,14,3.5,14S4,13.8,4,13.5v-11
	C4,2.2,3.8,2,3.5,2z"/>
</svg>
