<?xml version="1.0" encoding="utf-8"?>
<!-- Generator: Adobe Illustrator 24.2.0, SVG Export Plug-In . SVG Version: 6.00 Build 0)  -->
<svg version="1.1" id="Layer_1" xmlns="http://www.w3.org/2000/svg" xmlns:xlink="http://www.w3.org/1999/xlink" x="0px" y="0px"
	 viewBox="0 0 26 18" style="enable-background:new 0 0 26 18;" xml:space="preserve">
<path d="M23.5,1h-21C1.7,1,1,1.7,1,2.5v13C1,16.3,1.7,17,2.5,17h21c0.8,0,1.5-0.7,1.5-1.5v-13C25,1.7,24.3,1,23.5,1z M24,15.5
	c0,0.3-0.2,0.5-0.5,0.5h-21C2.2,16,2,15.8,2,15.5v-13C2,2.2,2.2,2,2.5,2h21C23.8,2,24,2.2,24,2.5V15.5z"/>
<g>
	<path d="M10.7,6.5v5.1H9.9V8.3c0-0.1,0-0.3,0-0.4l-1.5,2.9c-0.1,0.1-0.2,0.2-0.3,0.2H7.9c-0.1,0-0.3-0.1-0.3-0.2L6,7.8
		C6,7.9,6,8,6,8.1c0,0.1,0,0.1,0,0.2v3.3H5.2V6.5h0.7c0,0,0.1,0,0.1,0c0,0,0.1,0,0.1,0s0,0,0.1,0s0,0,0.1,0.1l1.5,2.8
		c0,0.1,0.1,0.2,0.1,0.2c0,0.1,0.1,0.2,0.1,0.2C8,9.8,8,9.7,8.1,9.7c0-0.1,0.1-0.2,0.1-0.2l1.5-2.8c0,0,0-0.1,0.1-0.1s0,0,0.1,0
		s0.1,0,0.1,0c0,0,0.1,0,0.1,0H10.7z"/>
	<path d="M16.2,11.5h-0.7c-0.1,0-0.1,0-0.2-0.1c-0.1,0-0.1-0.1-0.1-0.2l-0.4-1h-2.1l-0.4,1c0,0.1-0.1,0.1-0.1,0.1S12,11.5,12,11.5
		h-0.7l2-5.1h1L16.2,11.5z M14.5,9.6l-0.6-1.7c0-0.1-0.1-0.2-0.1-0.3c0-0.1-0.1-0.2-0.1-0.3c0,0.1-0.1,0.2-0.1,0.3
		c0,0.1-0.1,0.2-0.1,0.3l-0.6,1.7H14.5z"/>
	<path d="M20.8,11.5h-0.9c-0.1,0-0.1,0-0.2,0c0,0-0.1-0.1-0.1-0.1l-1.2-1.9c0,0.1,0,0.1-0.1,0.2l-1.1,1.8c0,0-0.1,0.1-0.1,0.1
		c0,0-0.1,0.1-0.1,0.1h-0.9l1.7-2.6l-1.6-2.5h0.9c0.1,0,0.1,0,0.1,0c0,0,0.1,0,0.1,0.1l1.2,1.9c0-0.1,0.1-0.1,0.1-0.2l1.1-1.7
		c0,0,0.1-0.1,0.1-0.1s0.1,0,0.1,0h0.9l-1.6,2.4L20.8,11.5z"/>
</g>
</svg>
