<svg xmlns="http://www.w3.org/2000/svg" viewBox="0 0 26 18" xml:space="preserve">
  <path d="M1 2.5C1 1.7 1.7 1 2.5 1h21c.8 0 1.5.7 1.5 1.5v13c0 .8-.7 1.5-1.5 1.5h-21c-.8 0-1.5-.7-1.5-1.5v-13zM2.5 2c-.3 0-.5.2-.5.5v13c0 .3.2.5.5.5H7V2H2.5zM18 16V2H8v14h10zm1 0h4.5c.3 0 .5-.2.5-.5v-13c0-.3-.2-.5-.5-.5H19v14z"/>
	<path d="M11.5 10.3c.3.2.8.3 1.3.3.6 0 1-.3 1-.7 0-.4-.3-.6-1-.9-.9-.3-1.5-.8-1.5-1.6 0-.9.7-1.6 1.9-1.6.6 0 1 .1 1.3.3l-.2.8c-.2-.1-.6-.3-1.1-.3-.6 0-.9.3-.9.6 0 .4.3.6 1 .9.9.4 1.4.8 1.4 1.6 0 .9-.7 1.6-2 1.6-.6 0-1.2-.2-1.5-.3l.3-.7z"/>
</svg>