<svg xmlns="http://www.w3.org/2000/svg" viewBox="0 0 34 34">
  <path d="M27.3363 29.5788L18.6371 20.8796C17.9467 21.4319 17.1527 21.8692 16.2552 22.1914C15.3576 22.5136 14.4025 22.6747 13.3899 22.6747C10.8814 22.6747 8.75864 21.8057 7.02156 20.0677C5.28447 18.3297 4.41547 16.2069 4.41455 13.6993C4.41455 11.1908 5.28355 9.06799 7.02156 7.33091C8.75956 5.59383 10.8824 4.72483 13.3899 4.72391C15.8984 4.72391 18.0212 5.59291 19.7583 7.33091C21.4954 9.06892 22.3644 11.1917 22.3653 13.6993C22.3653 14.7119 22.2042 15.667 21.882 16.5645C21.5598 17.4621 21.1226 18.256 20.5702 18.9464L29.2695 27.6457L27.3363 29.5788ZM13.3899 19.913C15.116 19.913 16.5833 19.3087 17.792 18.1C19.0007 16.8913 19.6046 15.4244 19.6037 13.6993C19.6037 11.9733 18.9993 10.5059 17.7906 9.29721C16.582 8.08853 15.1151 7.48464 13.3899 7.48556C11.6639 7.48556 10.1965 8.08991 8.98786 9.29859C7.77917 10.5073 7.17529 11.9742 7.17621 13.6993C7.17621 15.4253 7.78055 16.8927 8.98924 18.1014C10.1979 19.3101 11.6648 19.9139 13.3899 19.913Z" fill="#333333"/>
</svg>
