<?xml version="1.0" standalone="no"?>
<!DOCTYPE svg PUBLIC "-//W3C//DTD SVG 1.1//EN" "http://www.w3.org/Graphics/SVG/1.1/DTD/svg11.dtd" >
<svg xmlns="http://www.w3.org/2000/svg">
<defs>
  <font id="icons" horiz-adv-x="128">
    <font-face font-family="icons"
      units-per-em="128" ascent="104"
      descent="24" />
    <missing-glyph horiz-adv-x="0" />
    <glyph glyph-name="123"
      unicode="&#xE001;"
      horiz-adv-x="128" d="M22.984 13.624V70.864H13.592L0 60.968V51.872L13.12 61.312H13.6V13.624H22.992zM48.688 54.344V54.848C48.688 59.792 52.208 64.2 58.256 64.2C63.664 64.2 67.648 60.68 67.648 55.352C67.648 50.36 64.288 46.544 61.192 43.144L39.92 19.576V13.624H78.16V21.544H53.144V22.096L67.28 37.984C72.48 43.776 77.176 48.64 77.176 56.144C77.168 65.208 69.784 72 58.464 72C45.88 72 39.584 63.488 39.584 54.8V54.344H48.688zM101.16 39.28H107.448C114.032 39.28 118.44 35.432 118.48 29.848C118.56 24.192 114.08 20.12 107.112 20.168C100.952 20.208 96.504 23.52 96.08 27.792H87.32C87.656 19.368 94.824 12.448 107.032 12.448C118.856 12.448 128.168 19.16 127.992 29.6C127.832 38.744 120.616 42.808 115.584 43.312V43.816C119.864 44.536 126.36 49.096 126.192 57.24C125.984 65.664 118.728 72.08 107.32 72C95.32 71.96 88.784 64.96 88.536 56.816H97.464C97.72 60.8 101.448 64.368 107.112 64.368C112.736 64.368 116.76 60.888 116.76 55.808C116.8 50.688 112.728 46.96 107.16 46.96H101.16V39.28z" />
    <glyph glyph-name="activity"
      unicode="&#xE002;"
      horiz-adv-x="128" d="M48 88A4 4 0 0 0 51.76 85.36L80 7.712L92.24 41.376A4 4 0 0 0 96 44H124A4 4 0 0 0 124 36H98.8L83.76 -5.36A4 4 0 0 0 76.24 -5.36L48 72.288L35.76 38.632A4 4 0 0 0 32 36H4A4 4 0 0 0 4 44H29.2L44.24 85.36A4 4 0 0 0 48 88z" />
    <glyph glyph-name="alarm-fill"
      unicode="&#xE003;"
      horiz-adv-x="128" d="M48 100A4 4 0 0 0 52 104H76A4 4 0 0 0 76 96H72V87.44A56.008 56.008 0 0 0 98.192 -12.352L103 -17.168A4 4 0 0 0 97.344 -22.832L91.376 -16.864A55.76 55.76 0 0 0 64 -24A55.76 55.76 0 0 0 36.624 -16.864L30.656 -22.832A4 4 0 0 0 25 -17.168L29.816 -12.352A56.008 56.008 0 0 0 56 87.44V96H52A4 4 0 0 0 48 100zM68 60A4 4 0 0 1 60 60V33.104L48.568 14.064A4 4 0 1 1 55.432 9.944L67.432 29.944A4 4 0 0 1 68 32V60zM6.88 60.904A20 20 0 1 0 35.096 89.12A64.28 64.28 0 0 1 6.88 60.904zM92.904 89.12A20 20 0 1 0 121.12 60.904A64.28 64.28 0 0 1 92.904 89.12z" />
    <glyph glyph-name="alarm"
      unicode="&#xE004;"
      horiz-adv-x="128" d="M68 60A4 4 0 0 1 60 60V33.104L48.568 14.064A4 4 0 1 1 55.432 9.944L67.432 29.944A4 4 0 0 1 68 32V60zM52 104A4 4 0 0 1 52 96H56V87.44A56.008 56.008 0 0 1 29.816 -12.352L25 -17.168A4 4 0 0 1 30.656 -22.832L36.624 -16.864A55.76 55.76 0 0 1 64 -24A55.76 55.76 0 0 1 91.376 -16.864L97.344 -22.832A4 4 0 0 1 103 -17.168L98.192 -12.352A56.008 56.008 0 0 1 72 87.44V96H76A4 4 0 0 1 76 104H52zM60.304 79.856A48.744 48.744 0 0 0 67.696 79.856A48 48 0 1 0 60.304 79.856zM0 76C0 69.976 2.664 64.568 6.88 60.904A64.28 64.28 0 0 0 35.096 89.12A20 20 0 0 1 0 76zM108 96C101.976 96 96.568 93.336 92.904 89.12A64.28 64.28 0 0 0 121.12 60.904A20 20 0 0 1 108 96z" />
    <glyph glyph-name="align-bottom"
      unicode="&#xE005;"
      horiz-adv-x="128" d="M56 96H72A8 8 0 0 0 80 88V8A8 8 0 0 0 72 0H56A8 8 0 0 0 48 8V88A8 8 0 0 0 56 96zM12 -8A4 4 0 0 1 12 -16V-8zM116 -16A4 4 0 0 1 116 -8V-16zM12 -16H116V-8H12V-16z" />
    <glyph glyph-name="align-center"
      unicode="&#xE006;"
      horiz-adv-x="128" d="M64 96A4 4 0 0 0 68 92V56H60V92A4 4 0 0 0 64 96zM64 -16A4 4 0 0 0 60 -12V24H68V-12A4 4 0 0 0 64 -16zM16 48A8 8 0 0 0 24 56H104A8 8 0 0 0 112 48V32A8 8 0 0 0 104 24H24A8 8 0 0 0 16 32V48z" />
    <glyph glyph-name="align-end"
      unicode="&#xE007;"
      horiz-adv-x="128" d="M116 96A4 4 0 0 1 112 92V-12A4 4 0 0 1 120 -12V92A4 4 0 0 1 116 96zM104 48A8 8 0 0 1 96 56H16A8 8 0 0 1 8 48V32A8 8 0 0 1 16 24H96A8 8 0 0 1 104 32V48z" />
    <glyph glyph-name="align-middle"
      unicode="&#xE008;"
      horiz-adv-x="128" d="M48 0A8 8 0 0 1 56 -8H72A8 8 0 0 1 80 0V80A8 8 0 0 1 72 88H56A8 8 0 0 1 48 80V0zM8 40A4 4 0 0 1 12 36H48V44H12A4 4 0 0 1 8 40zM120 40A4 4 0 0 0 116 36H80V44H116A4 4 0 0 0 120 40z" />
    <glyph glyph-name="align-start"
      unicode="&#xE009;"
      horiz-adv-x="128" d="M12 96A4 4 0 0 0 16 92V-12A4 4 0 0 0 8 -12V92A4 4 0 0 0 12 96zM24 48A8 8 0 0 0 32 56H112A8 8 0 0 0 120 48V32A8 8 0 0 0 112 24H32A8 8 0 0 0 24 32V48z" />
    <glyph glyph-name="align-top"
      unicode="&#xE00A;"
      horiz-adv-x="128" d="M56 -16H72A8 8 0 0 1 80 -8V72A8 8 0 0 1 72 80H56A8 8 0 0 1 48 72V-8A8 8 0 0 1 56 -16zM12 88A4 4 0 0 0 12 96V88zM116 96A4 4 0 0 0 116 88V96zM12 96H116V88H12V96z" />
    <glyph glyph-name="alt"
      unicode="&#xE00B;"
      horiz-adv-x="128" d="M8 -4A4 4 0 0 1 12 -8H42.376A4 4 0 0 1 45.888 -5.92L88 80H116A4 4 0 0 1 116 88H85.624A4 4 0 0 1 82.112 85.92L40 0H12A4 4 0 0 1 8 -4zM88 -4A4 4 0 0 1 92 -8H116A4 4 0 0 1 116 0H92A4 4 0 0 1 88 -4z" />
    <glyph glyph-name="app-indicator"
      unicode="&#xE00C;"
      horiz-adv-x="128" d="M44 88A28 28 0 0 1 16 60V20A28 28 0 0 1 44 -8H84A28 28 0 0 1 112 20V40A4 4 0 0 0 120 40V20A36 36 0 0 0 84 -16H44A36 36 0 0 0 8 20V60A36 36 0 0 0 44 96H64A4 4 0 0 0 64 88H44zM128 80A24 24 0 1 0 80 80A24 24 0 0 0 128 80z" />
    <glyph glyph-name="app"
      unicode="&#xE00D;"
      horiz-adv-x="128" d="M88 88A24 24 0 0 0 112 64V16A24 24 0 0 0 88 -8H40A24 24 0 0 0 16 16V64A24 24 0 0 0 40 88H88zM40 96A32 32 0 0 1 8 64V16A32 32 0 0 1 40 -16H88A32 32 0 0 1 120 16V64A32 32 0 0 1 88 96H40z" />
    <glyph glyph-name="apple"
      unicode="&#xE00E;"
      horiz-adv-x="128" d="M89.456 103.936C89.184 104.24 79.384 103.816 70.856 94.56C62.328 85.312 63.64 74.704 63.832 74.432C64.024 74.16 75.992 73.736 83.632 84.496C91.272 95.256 89.728 103.624 89.456 103.936zM115.968 10.072C115.584 10.84 97.368 19.944 99.064 37.448C100.76 54.96 112.464 59.76 112.648 60.28C112.832 60.8 107.872 66.6 102.616 69.536A29.536 29.536 0 0 1 90.112 73.008C89.248 73.032 86.248 73.768 80.08 72.08C76.016 70.968 66.856 67.368 64.336 67.224C61.808 67.08 54.288 71.4 46.2 72.544C41.024 73.544 35.536 71.496 31.608 69.92C27.688 68.352 20.232 63.888 15.016 52.024C9.8 40.168 12.528 21.384 14.48 15.544C16.432 9.712 19.48 0.152 24.664 -6.824C29.272 -14.696 35.384 -20.16 37.936 -22.016C40.488 -23.872 47.688 -25.104 52.68 -22.552C56.696 -20.088 63.944 -18.672 66.808 -18.776C69.664 -18.88 75.296 -20.008 81.064 -23.088C85.632 -24.664 89.952 -24.008 94.28 -22.248C98.608 -20.48 104.872 -13.776 112.184 -0.184C114.96 6.136 116.224 9.552 115.968 10.072zM89.456 103.936C89.184 104.24 79.384 103.816 70.856 94.56C62.328 85.312 63.64 74.704 63.832 74.432C64.024 74.16 75.992 73.736 83.632 84.496C91.272 95.256 89.728 103.624 89.456 103.936zM115.968 10.072C115.584 10.84 97.368 19.944 99.064 37.448C100.76 54.96 112.464 59.76 112.648 60.28C112.832 60.8 107.872 66.6 102.616 69.536A29.536 29.536 0 0 1 90.112 73.008C89.248 73.032 86.248 73.768 80.08 72.08C76.016 70.968 66.856 67.368 64.336 67.224C61.808 67.08 54.288 71.4 46.2 72.544C41.024 73.544 35.536 71.496 31.608 69.92C27.688 68.352 20.232 63.888 15.016 52.024C9.8 40.168 12.528 21.384 14.48 15.544C16.432 9.712 19.48 0.152 24.664 -6.824C29.272 -14.696 35.384 -20.16 37.936 -22.016C40.488 -23.872 47.688 -25.104 52.68 -22.552C56.696 -20.088 63.944 -18.672 66.808 -18.776C69.664 -18.88 75.296 -20.008 81.064 -23.088C85.632 -24.664 89.952 -24.008 94.28 -22.248C98.608 -20.48 104.872 -13.776 112.184 -0.184C114.96 6.136 116.224 9.552 115.968 10.072z" />
    <glyph glyph-name="archive-fill"
      unicode="&#xE00F;"
      horiz-adv-x="128" d="M101.144 -16C111.832 -16 120 -6.76 120 4V64H8V4C8 -6.76 16.168 -16 26.856 -16H101.144zM44 48H84A4 4 0 0 0 84 40H44A4 4 0 0 0 44 48zM6.4 96A6.4 6.4 0 0 1 0 89.6V80A6.4 6.4 0 0 1 6.4 73.6H121.6A6.4 6.4 0 0 1 128 80V89.6A6.4 6.4 0 0 1 121.6 96H6.4z" />
    <glyph glyph-name="archive"
      unicode="&#xE010;"
      horiz-adv-x="128" d="M0 88A8 8 0 0 0 8 96H120A8 8 0 0 0 128 88V72A8 8 0 0 0 120 64V4A20 20 0 0 0 100 -16H28A20 20 0 0 0 8 4V64A8 8 0 0 0 0 72V88zM16 64V4A12 12 0 0 1 28 -8H100A12 12 0 0 1 112 4V64H16zM120 88H8V72H120V88zM40 44A4 4 0 0 0 44 48H84A4 4 0 0 0 84 40H44A4 4 0 0 0 40 44z" />
    <glyph glyph-name="arrow-90deg-down"
      unicode="&#xE011;"
      horiz-adv-x="128" d="M38.832 -14.832A4 4 0 0 0 33.168 -14.832L1.168 17.168A4 4 0 0 0 6.832 22.832L32 -2.344V76A20 20 0 0 0 52 96H116A4 4 0 0 0 116 88H52A12 12 0 0 1 40 76V-2.344L65.168 22.832A4 4 0 0 0 70.832 17.168L38.832 -14.832z" />
    <glyph glyph-name="arrow-90deg-left"
      unicode="&#xE012;"
      horiz-adv-x="128" d="M9.168 65.168A4 4 0 0 0 9.168 70.832L41.168 102.832A4 4 0 1 0 46.832 97.168L21.656 72H100A20 20 0 0 0 120 52V-12A4 4 0 0 0 112 -12V52A12 12 0 0 1 100 64H21.656L46.832 38.832A4 4 0 1 0 41.168 33.168L9.168 65.168z" />
    <glyph glyph-name="arrow-90deg-right"
      unicode="&#xE013;"
      horiz-adv-x="128" d="M118.832 65.168A4 4 0 0 1 118.832 70.832L86.832 102.832A4 4 0 0 1 81.168 97.168L106.344 72H28A20 20 0 0 1 8 52V-12A4 4 0 0 1 16 -12V52A12 12 0 0 0 28 64H106.344L81.168 38.832A4 4 0 0 1 86.832 33.168L118.832 65.168z" />
    <glyph glyph-name="arrow-90deg-up"
      unicode="&#xE014;"
      horiz-adv-x="128" d="M38.832 94.832A4 4 0 0 1 33.168 94.832L1.168 62.832A4 4 0 1 1 6.832 57.168L32 82.344V4A20 20 0 0 1 52 -16H116A4 4 0 0 1 116 -8H52A12 12 0 0 0 40 4V82.344L65.168 57.168A4 4 0 1 1 70.832 62.832L38.832 94.832z" />
    <glyph glyph-name="arrow-bar-down"
      unicode="&#xE015;"
      horiz-adv-x="128" d="M8 76A4 4 0 0 0 12 80H116A4 4 0 0 0 116 72H12A4 4 0 0 0 8 76zM64 56A4 4 0 0 0 68 52V5.656L85.168 22.832A4 4 0 0 0 90.832 17.168L66.832 -6.832A4 4 0 0 0 61.168 -6.832L37.168 17.168A4 4 0 0 0 42.832 22.832L60 5.656V52A4 4 0 0 0 64 56z" />
    <glyph glyph-name="arrow-bar-left"
      unicode="&#xE016;"
      horiz-adv-x="128" d="M100 -16A4 4 0 0 0 96 -12V92A4 4 0 0 0 104 92V-12A4 4 0 0 0 100 -16zM80 40A4 4 0 0 0 76 36H29.656L46.832 18.832A4 4 0 0 0 41.168 13.168L17.168 37.168A4 4 0 0 0 17.168 42.832L41.168 66.832A4 4 0 1 0 46.832 61.168L29.656 44H76A4 4 0 0 0 80 40z" />
    <glyph glyph-name="arrow-bar-right"
      unicode="&#xE017;"
      horiz-adv-x="128" d="M48 40A4 4 0 0 1 52 36H98.344L81.168 18.832A4 4 0 0 1 86.832 13.168L110.832 37.168A4 4 0 0 1 110.832 42.832L86.832 66.832A4 4 0 0 1 81.168 61.168L98.344 44H52A4 4 0 0 1 48 40zM28 -16A4 4 0 0 0 24 -12V92A4 4 0 0 0 32 92V-12A4 4 0 0 0 28 -16z" />
    <glyph glyph-name="arrow-bar-up"
      unicode="&#xE018;"
      horiz-adv-x="128" d="M64 24A4 4 0 0 1 68 28V74.344L85.168 57.168A4 4 0 0 1 90.832 62.832L66.832 86.832A4 4 0 0 1 61.168 86.832L37.168 62.832A4 4 0 1 1 42.832 57.168L60 74.344V28A4 4 0 0 1 64 24zM8 4A4 4 0 0 0 12 8H116A4 4 0 0 0 116 0H12A4 4 0 0 0 8 4z" />
    <glyph glyph-name="arrow-bottom-double"
      unicode="&#xE019;"
      horiz-adv-x="128" d="M62 32.8L62 32.8L8.8 83.2L8.8 83.2C8.4 83.6 8 84.4 8 85.2C8 86.8 9.2 88 10.8 88C11.6 88 12.4 87.6 12.8 87.2L12.8 87.2L64 38.8L115.2 87.2L115.2 87.2C115.6 87.6 116.4 88 117.2 88C118.8 88 120 86.8 120 85.2C120 84.4 119.6 83.6 119.2 83.2L66 32.8C65.6 32.4 64.8 32 64 32S62.4 32.4 62 32.8zM64 -8C64.8 -8 65.6 -7.6 66 -7.2L119.2 43.2C119.6 43.6 120 44.4 120 45.2C120 46.8 118.8 48 117.2 48C116.4 48 115.6 47.6 115.2 47.2L115.2 47.2L64 -1.2L12.8 47.2L12.8 47.2C12.4 47.6 11.6 48 10.8 48C9.2 48 8 46.8 8 45.2C8 44.4 8.4 43.6 8.8 43.2L8.8 43.2L62 -7.2L62 -7.2C62.4 -7.6 63.2 -8 64 -8z" />
    <glyph glyph-name="arrow-clockwise"
      unicode="&#xE01A;"
      horiz-adv-x="128" d="M64 80A40 40 0 1 1 100.368 56.688A4 4 0 0 0 107.632 60.024A48 48 0 1 0 64 88V80zM64 68.272V99.728A2 2 0 0 0 67.28 101.264L86.16 85.536C87.12 84.736 87.12 83.264 86.16 82.464L67.28 66.736A2 2 0 0 0 64 68.272z" />
    <glyph glyph-name="arrow-counterclockwise"
      unicode="&#xE01B;"
      horiz-adv-x="128" d="M64 80A40 40 0 1 0 27.632 56.688A4 4 0 0 1 20.368 60.024A48 48 0 1 1 64 88V80zM64 68.272V99.728A2 2 0 0 1 60.72 101.264L41.84 85.536A2 2 0 0 1 41.84 82.464L60.72 66.736A2 2 0 0 1 64 68.272z" />
    <glyph glyph-name="arrow-down-circle-fill"
      unicode="&#xE01C;"
      horiz-adv-x="128" d="M128 40A64 64 0 1 0 0 40A64 64 0 0 0 128 40zM68 68A4 4 0 0 1 60 68V21.656L42.832 38.832A4 4 0 1 1 37.168 33.168L61.168 9.168A4 4 0 0 1 66.832 9.168L90.832 33.168A4 4 0 0 1 85.168 38.832L68 21.656V68z" />
    <glyph glyph-name="arrow-down-circle"
      unicode="&#xE01D;"
      horiz-adv-x="128" d="M8 40A56 56 0 1 1 120 40A56 56 0 0 1 8 40zM128 40A64 64 0 1 0 0 40A64 64 0 0 0 128 40zM68 68A4 4 0 0 1 60 68V21.656L42.832 38.832A4 4 0 1 1 37.168 33.168L61.168 9.168A4 4 0 0 1 66.832 9.168L90.832 33.168A4 4 0 0 1 85.168 38.832L68 21.656V68z" />
    <glyph glyph-name="arrow-down-left-circle-fill"
      unicode="&#xE01E;"
      horiz-adv-x="128" d="M128 40A64 64 0 1 1 0 40A64 64 0 0 1 128 40zM80.768 62.424A4 4 0 1 0 86.424 56.768L53.656 24H75.8A4 4 0 0 0 75.8 16H44A4 4 0 0 0 40 20V51.8A4 4 0 0 0 48 51.8V29.656L80.768 62.424z" />
    <glyph glyph-name="arrow-down-left-circle"
      unicode="&#xE01F;"
      horiz-adv-x="128" d="M8 40A56 56 0 1 1 120 40A56 56 0 0 1 8 40zM128 40A64 64 0 1 0 0 40A64 64 0 0 0 128 40zM80.768 62.832A4 4 0 1 0 86.424 57.168L53.656 24.4H75.8A4 4 0 1 0 75.8 16.4H44A4 4 0 0 0 40 20.4V52.2A4 4 0 1 0 48 52.2V30.056L80.768 62.832z" />
    <glyph glyph-name="arrow-down-left-square-fill"
      unicode="&#xE020;"
      horiz-adv-x="128" d="M16 -24A16 16 0 0 0 0 -8V88A16 16 0 0 0 16 104H112A16 16 0 0 0 128 88V-8A16 16 0 0 0 112 -24H16zM80.768 62.424L48 29.656V51.8A4 4 0 0 1 40 51.8V20A4 4 0 0 1 44 16H75.8A4 4 0 0 1 75.8 24H53.656L86.424 56.768A4 4 0 1 1 80.768 62.424z" />
    <glyph glyph-name="arrow-down-left-square"
      unicode="&#xE021;"
      horiz-adv-x="128" d="M120 88A8 8 0 0 1 112 96H16A8 8 0 0 1 8 88V-8A8 8 0 0 1 16 -16H112A8 8 0 0 1 120 -8V88zM0 88A16 16 0 0 0 16 104H112A16 16 0 0 0 128 88V-8A16 16 0 0 0 112 -24H16A16 16 0 0 0 0 -8V88zM80.768 62.832A4 4 0 1 0 86.424 57.168L53.656 24.4H75.8A4 4 0 1 0 75.8 16.4H44A4 4 0 0 0 40 20.4V52.2A4 4 0 1 0 48 52.2V30.056L80.768 62.832z" />
    <glyph glyph-name="arrow-down-left"
      unicode="&#xE022;"
      horiz-adv-x="128" d="M16 -4A4 4 0 0 1 20 -8H68A4 4 0 0 1 68 0H29.656L110.832 81.168A4 4 0 0 1 105.168 86.832L24 5.656V44A4 4 0 0 1 16 44V-4z" />
    <glyph glyph-name="arrow-down-right-circle-fill"
      unicode="&#xE023;"
      horiz-adv-x="128" d="M0 40A64 64 0 1 0 128 40A64 64 0 0 0 0 40zM47.232 62.424A4 4 0 1 1 41.576 56.768L74.344 24H52.2A4 4 0 0 1 52.2 16H84A4 4 0 0 1 88 20V51.8A4 4 0 0 1 80 51.8V29.656L47.232 62.424z" />
    <glyph glyph-name="arrow-down-right-circle"
      unicode="&#xE024;"
      horiz-adv-x="128" d="M8 40A56 56 0 1 1 120 40A56 56 0 0 1 8 40zM128 40A64 64 0 1 0 0 40A64 64 0 0 0 128 40zM46.832 62.832A4 4 0 1 1 41.168 57.168L73.944 24.4H51.8A4 4 0 1 1 51.8 16.4H83.6A4 4 0 0 1 87.6 20.4V52.2A4 4 0 1 1 79.6 52.2V30.056L46.832 62.832z" />
    <glyph glyph-name="arrow-down-right-square-fill"
      unicode="&#xE025;"
      horiz-adv-x="128" d="M112 -24A16 16 0 0 1 128 -8V88A16 16 0 0 1 112 104H16A16 16 0 0 1 0 88V-8A16 16 0 0 1 16 -24H112zM47.232 62.424L80 29.656V51.8A4 4 0 0 0 88 51.8V20A4 4 0 0 0 84 16H52.2A4 4 0 0 0 52.2 24H74.344L41.576 56.768A4 4 0 0 0 47.232 62.424z" />
    <glyph glyph-name="arrow-down-right-square"
      unicode="&#xE026;"
      horiz-adv-x="128" d="M120 88A8 8 0 0 1 112 96H16A8 8 0 0 1 8 88V-8A8 8 0 0 1 16 -16H112A8 8 0 0 1 120 -8V88zM0 88A16 16 0 0 0 16 104H112A16 16 0 0 0 128 88V-8A16 16 0 0 0 112 -24H16A16 16 0 0 0 0 -8V88zM46.832 62.832A4 4 0 1 1 41.168 57.168L73.944 24.4H51.8A4 4 0 1 1 51.8 16.4H83.6A4 4 0 0 1 87.6 20.4V52.2A4 4 0 1 1 79.6 52.2V30.056L46.832 62.832z" />
    <glyph glyph-name="arrow-down-right"
      unicode="&#xE027;"
      horiz-adv-x="128" d="M112 -4A4 4 0 0 0 108 -8H60A4 4 0 0 0 60 0H98.344L17.168 81.168A4 4 0 1 0 22.832 86.832L104 5.656V44A4 4 0 0 0 112 44V-4z" />
    <glyph glyph-name="arrow-down-short"
      unicode="&#xE028;"
      horiz-adv-x="128" d="M64 72A4 4 0 0 0 68 68V21.656L85.168 38.832A4 4 0 0 0 90.832 33.168L66.832 9.168A4 4 0 0 0 61.168 9.168L37.168 33.168A4 4 0 1 0 42.832 38.832L60 21.656V68A4 4 0 0 0 64 72z" />
    <glyph glyph-name="arrow-down-square-fill"
      unicode="&#xE029;"
      horiz-adv-x="128" d="M16 104A16 16 0 0 1 0 88V-8A16 16 0 0 1 16 -24H112A16 16 0 0 1 128 -8V88A16 16 0 0 1 112 104H16zM68 68V21.656L85.168 38.832A4 4 0 0 0 90.832 33.168L66.832 9.168A4 4 0 0 0 61.168 9.168L37.168 33.168A4 4 0 1 0 42.832 38.832L60 21.656V68A4 4 0 0 0 68 68z" />
    <glyph glyph-name="arrow-down-square"
      unicode="&#xE02A;"
      horiz-adv-x="128" d="M120 88A8 8 0 0 1 112 96H16A8 8 0 0 1 8 88V-8A8 8 0 0 1 16 -16H112A8 8 0 0 1 120 -8V88zM0 88A16 16 0 0 0 16 104H112A16 16 0 0 0 128 88V-8A16 16 0 0 0 112 -24H16A16 16 0 0 0 0 -8V88zM68 68A4 4 0 0 1 60 68V21.656L42.832 38.832A4 4 0 1 1 37.168 33.168L61.168 9.168A4 4 0 0 1 66.832 9.168L90.832 33.168A4 4 0 0 1 85.168 38.832L68 21.656V68z" />
    <glyph glyph-name="arrow-down-up"
      unicode="&#xE02B;"
      horiz-adv-x="128" d="M92 -16A4 4 0 0 1 96 -12V82.344L121.168 57.168A4 4 0 0 1 126.832 62.832L94.832 94.832A4 4 0 0 1 89.168 94.832L57.168 62.832A4 4 0 1 1 62.832 57.168L88 82.344V-12A4 4 0 0 1 92 -16zM36 96A4 4 0 0 0 40 92V-2.344L65.168 22.832A4 4 0 0 0 70.832 17.168L38.832 -14.832A4 4 0 0 0 33.168 -14.832L1.168 17.168A4 4 0 0 0 6.832 22.832L32 -2.344V92A4 4 0 0 0 36 96z" />
    <glyph glyph-name="arrow-down"
      unicode="&#xE02C;"
      horiz-adv-x="128" d="M64 96A4 4 0 0 0 68 92V-2.344L93.168 22.832A4 4 0 0 0 98.832 17.168L66.832 -14.832A4 4 0 0 0 61.168 -14.832L29.168 17.168A4 4 0 0 0 34.832 22.832L60 -2.344V92A4 4 0 0 0 64 96z" />
    <glyph glyph-name="arrow-left-circle-fill"
      unicode="&#xE02D;"
      horiz-adv-x="128" d="M64 104A64 64 0 1 1 64 -24A64 64 0 0 1 64 104zM92 44A4 4 0 0 0 92 36H45.656L62.832 18.832A4 4 0 0 0 57.168 13.168L33.168 37.168A4 4 0 0 0 33.168 42.832L57.168 66.832A4 4 0 1 0 62.832 61.168L45.656 44H92z" />
    <glyph glyph-name="arrow-left-circle"
      unicode="&#xE02E;"
      horiz-adv-x="128" d="M8 40A56 56 0 1 1 120 40A56 56 0 0 1 8 40zM128 40A64 64 0 1 0 0 40A64 64 0 0 0 128 40zM92 44A4 4 0 0 0 92 36H45.656L62.832 18.832A4 4 0 0 0 57.168 13.168L33.168 37.168A4 4 0 0 0 33.168 42.832L57.168 66.832A4 4 0 1 0 62.832 61.168L45.656 44H92z" />
    <glyph glyph-name="arrow-left-double"
      unicode="&#xE02F;"
      horiz-adv-x="128" d="M56.8 42L56.8 42L107.2 95.2L107.2 95.2C107.6 95.6 108.4 96 109.2 96C110.8 96 112 94.8 112 93.2C112 92.4 111.6 91.6 111.2 91.2L111.2 91.2L62.8 40L111.2 -11.2L111.2 -11.2C111.6 -11.6 112 -12.4 112 -13.2C112 -14.8 110.8 -16 109.2 -16C108.4 -16 107.6 -15.6 107.2 -15.2L56.8 38C56.4 38.4 56 39.2 56 40S56.4 41.6 56.8 42zM16 40C16 39.2 16.4 38.4 16.8 38L67.2 -15.2C67.6 -15.6 68.4 -16 69.2 -16C70.8 -16 72 -14.8 72 -13.2C72 -12.4 71.6 -11.6 71.2 -11.2L71.2 -11.2L22.8 40L71.2 91.2L71.2 91.2C71.6 91.6 72 92.4 72 93.2C72 94.8 70.8 96 69.2 96C68.4 96 67.6 95.6 67.2 95.2L67.2 95.2L16.8 42L16.8 42C16.4 41.6 16 40.8 16 40z" />
    <glyph glyph-name="arrow-left-right"
      unicode="&#xE030;"
      horiz-adv-x="128" d="M8 12A4 4 0 0 1 12 8H106.344L81.168 -17.168A4 4 0 0 1 86.832 -22.832L118.832 9.168A4 4 0 0 1 118.832 14.832L86.832 46.832A4 4 0 0 1 81.168 41.168L106.344 16H12A4 4 0 0 1 8 12zM120 68A4 4 0 0 0 116 64H21.656L46.832 38.832A4 4 0 1 0 41.168 33.168L9.168 65.168A4 4 0 0 0 9.168 70.832L41.168 102.832A4 4 0 1 0 46.832 97.168L21.656 72H116A4 4 0 0 0 120 68z" />
    <glyph glyph-name="arrow-left-short"
      unicode="&#xE031;"
      horiz-adv-x="128" d="M96 40A4 4 0 0 0 92 36H45.656L62.832 18.832A4 4 0 0 0 57.168 13.168L33.168 37.168A4 4 0 0 0 33.168 42.832L57.168 66.832A4 4 0 1 0 62.832 61.168L45.656 44H92A4 4 0 0 0 96 40z" />
    <glyph glyph-name="arrow-left-square-fill"
      unicode="&#xE032;"
      horiz-adv-x="128" d="M128 -8A16 16 0 0 0 112 -24H16A16 16 0 0 0 0 -8V88A16 16 0 0 0 16 104H112A16 16 0 0 0 128 88V-8zM92 44H45.656L62.832 61.168A4 4 0 1 1 57.168 66.832L33.168 42.832A4 4 0 0 1 33.168 37.168L57.168 13.168A4 4 0 0 1 62.832 18.832L45.656 36H92A4 4 0 0 1 92 44z" />
    <glyph glyph-name="arrow-left-square"
      unicode="&#xE033;"
      horiz-adv-x="128" d="M120 88A8 8 0 0 1 112 96H16A8 8 0 0 1 8 88V-8A8 8 0 0 1 16 -16H112A8 8 0 0 1 120 -8V88zM0 88A16 16 0 0 0 16 104H112A16 16 0 0 0 128 88V-8A16 16 0 0 0 112 -24H16A16 16 0 0 0 0 -8V88zM92 44A4 4 0 0 0 92 36H45.656L62.832 18.832A4 4 0 0 0 57.168 13.168L33.168 37.168A4 4 0 0 0 33.168 42.832L57.168 66.832A4 4 0 1 0 62.832 61.168L45.656 44H92z" />
    <glyph glyph-name="arrow-left"
      unicode="&#xE034;"
      horiz-adv-x="128" d="M120 40A4 4 0 0 1 116 44H21.656L46.832 69.168A4 4 0 1 1 41.168 74.832L9.168 42.832A4 4 0 0 1 9.168 37.168L41.168 5.168A4 4 0 0 1 46.832 10.832L21.656 36H116A4 4 0 0 1 120 40z" />
    <glyph glyph-name="arrow-repeat"
      unicode="&#xE035;"
      horiz-adv-x="128" d="M92.272 48H123.728A2 2 0 0 0 125.264 44.72L109.536 25.84A2 2 0 0 0 106.464 25.84L90.736 44.72A2 2 0 0 0 92.272 48zM4.272 32H35.728A2 2 0 0 1 37.264 35.28L21.536 54.16A2 2 0 0 1 18.464 54.16L2.736 35.28A2 2 0 0 1 4.272 32zM64 80C51.584 80 40.48 74.344 33.144 65.456A4 4 0 1 0 26.976 70.544A48.016 48.016 0 0 0 111.336 48H103.2A40.016 40.016 0 0 1 64 80zM24.8 32A40.016 40.016 0 0 1 94.856 14.544A4 4 0 1 0 101.024 9.456A48.016 48.016 0 0 0 16.664 32H24.8z" />
    <glyph glyph-name="arrow-return-left"
      unicode="&#xE036;"
      horiz-adv-x="128" d="M116 92A4 4 0 0 0 120 88V49.6A20 20 0 0 0 100 29.6H21.656L48.432 2.832A4 4 0 0 0 42.768 -2.832L9.168 30.768A4 4 0 0 0 9.168 36.432L41.168 68.432A4 4 0 1 0 46.832 62.768L21.656 37.6H100A12 12 0 0 1 112 49.6V88A4 4 0 0 0 116 92z" />
    <glyph glyph-name="arrow-return-right"
      unicode="&#xE037;"
      horiz-adv-x="128" d="M12 92A4 4 0 0 1 8 88V49.6A20 20 0 0 1 28 29.6H106.344L79.568 2.832A4 4 0 0 1 85.232 -2.832L118.832 30.768A4 4 0 0 1 118.832 36.432L86.832 68.432A4 4 0 0 1 81.168 62.768L106.344 37.6H28A12 12 0 0 0 16 49.6V88A4 4 0 0 1 12 92z" />
    <glyph glyph-name="arrow-right-circle-fill"
      unicode="&#xE038;"
      horiz-adv-x="128" d="M64 104A64 64 0 1 0 64 -24A64 64 0 0 0 64 104zM36 44A4 4 0 0 1 36 36H82.344L65.168 18.832A4 4 0 0 1 70.832 13.168L94.832 37.168A4 4 0 0 1 94.832 42.832L70.832 66.832A4 4 0 1 1 65.168 61.168L82.344 44H36z" />
    <glyph glyph-name="arrow-right-circle"
      unicode="&#xE039;"
      horiz-adv-x="128" d="M8 40A56 56 0 1 1 120 40A56 56 0 0 1 8 40zM128 40A64 64 0 1 0 0 40A64 64 0 0 0 128 40zM36 44A4 4 0 0 1 36 36H82.344L65.168 18.832A4 4 0 0 1 70.832 13.168L94.832 37.168A4 4 0 0 1 94.832 42.832L70.832 66.832A4 4 0 1 1 65.168 61.168L82.344 44H36z" />
    <glyph glyph-name="arrow-right-double"
      unicode="&#xE03A;"
      horiz-adv-x="128" d="M71.2 38L71.2 38L20.8 -15.2L20.8 -15.2C20.4 -15.6 19.6 -16 18.8 -16C17.2 -16 16 -14.8 16 -13.2C16 -12.4 16.4 -11.6 16.8 -11.2L16.8 -11.2L65.2 40L16.8 91.2L16.8 91.2C16.4 91.6 16 92.4 16 93.2C16 94.8 17.2 96 18.8 96C19.6 96 20.4 95.6 20.8 95.2L71.2 42C71.6 41.6 72 40.8 72 40S71.6 38.4 71.2 38zM112 40C112 40.8 111.6 41.6 111.2 42L60.8 95.2C60.4 95.6 59.6 96 58.8 96C57.2 96 56 94.8 56 93.2C56 92.4 56.4 91.6 56.8 91.2L56.8 91.2L105.2 40L56.8 -11.2L56.8 -11.2C56.4 -11.6 56 -12.4 56 -13.2C56 -14.8 57.2 -16 58.8 -16C59.6 -16 60.4 -15.6 60.8 -15.2L60.8 -15.2L111.2 38L111.2 38C111.6 38.4 112 39.2 112 40z" />
    <glyph glyph-name="arrow-right-short"
      unicode="&#xE03B;"
      horiz-adv-x="128" d="M32 40A4 4 0 0 0 36 44H82.344L65.168 61.168A4 4 0 1 0 70.832 66.832L94.832 42.832A4 4 0 0 0 94.832 37.168L70.832 13.168A4 4 0 0 0 65.168 18.832L82.344 36H36A4 4 0 0 0 32 40z" />
    <glyph glyph-name="arrow-right-square-fill"
      unicode="&#xE03C;"
      horiz-adv-x="128" d="M0 -8A16 16 0 0 1 16 -24H112A16 16 0 0 1 128 -8V88A16 16 0 0 1 112 104H16A16 16 0 0 1 0 88V-8zM36 44H82.344L65.168 61.168A4 4 0 1 0 70.832 66.832L94.832 42.832A4 4 0 0 0 94.832 37.168L70.832 13.168A4 4 0 0 0 65.168 18.832L82.344 36H36A4 4 0 0 0 36 44z" />
    <glyph glyph-name="arrow-right-square"
      unicode="&#xE03D;"
      horiz-adv-x="128" d="M120 88A8 8 0 0 1 112 96H16A8 8 0 0 1 8 88V-8A8 8 0 0 1 16 -16H112A8 8 0 0 1 120 -8V88zM0 88A16 16 0 0 0 16 104H112A16 16 0 0 0 128 88V-8A16 16 0 0 0 112 -24H16A16 16 0 0 0 0 -8V88zM36 44A4 4 0 0 1 36 36H82.344L65.168 18.832A4 4 0 0 1 70.832 13.168L94.832 37.168A4 4 0 0 1 94.832 42.832L70.832 66.832A4 4 0 1 1 65.168 61.168L82.344 44H36z" />
    <glyph glyph-name="arrow-right"
      unicode="&#xE03E;"
      horiz-adv-x="128" d="M8 40A4 4 0 0 0 12 44H106.344L81.168 69.168A4 4 0 0 0 86.832 74.832L118.832 42.832A4 4 0 0 0 118.832 37.168L86.832 5.168A4 4 0 0 0 81.168 10.832L106.344 36H12A4 4 0 0 0 8 40z" />
    <glyph glyph-name="arrow-through-heart-fill"
      unicode="&#xE03F;"
      horiz-adv-x="128" d="M22.832 -22.832A4 4 0 0 0 16 -20V-8H4A4 4 0 0 0 1.168 -1.168L13.168 10.832A4 4 0 0 0 16 12H30.344L55.168 36.832A4 4 0 1 0 60.832 31.168L36 6.344V-8A4 4 0 0 0 34.832 -10.832L22.832 -22.832zM128 76A4 4 0 0 0 121.168 73.168L112 82.344L103.952 74.296C105.84 72.312 107.472 70.048 108.752 67.536C113.248 58.768 113.432 47.4 107.048 34.8C100.704 22.296 87.888 8.496 66.208 -5.84L64 -7.296L61.792 -5.84A190.6 190.6 0 0 0 46.4 5.416L66.48 25.52A12 12 0 0 1 49.504 42.496L29.256 22.24A70.616 70.616 0 0 0 20.944 34.8C14.56 47.408 14.744 58.776 19.24 67.544C27.408 83.48 49.44 89.528 64 78.136C74 85.976 87.552 85.56 97.696 79.352L106.336 88L97.176 97.168A4 4 0 0 0 100 104H124A4 4 0 0 0 128 100V76z" />
    <glyph glyph-name="arrow-through-heart"
      unicode="&#xE040;"
      horiz-adv-x="128" d="M22.832 -22.832A4 4 0 0 0 16 -20V-8H4A4 4 0 0 0 1.168 -1.168L13.168 10.832A4 4 0 0 0 16 12H30.344L34.584 16.24C28.416 22.656 23.96 28.88 20.952 34.8C14.568 47.4 14.752 58.768 19.248 67.536C27.408 83.48 49.44 89.528 64 78.136C74 85.976 87.552 85.56 97.696 79.352L106.336 88L97.176 97.168A4 4 0 0 0 100 104H124A4 4 0 0 0 128 100V76A4 4 0 0 0 121.168 73.168L112 82.344L103.952 74.296C105.84 72.312 107.472 70.048 108.752 67.536C113.248 58.768 113.432 47.4 107.048 34.8C100.704 22.296 87.888 8.496 66.208 -5.84L64 -7.296L61.792 -5.84A174.88 174.88 0 0 0 40.312 10.656L36 6.336V-8A4 4 0 0 0 34.832 -10.832L22.832 -22.832zM45.976 16.32A163.352 163.352 0 0 1 64 2.32C83.648 15.648 94.616 27.976 99.912 38.416C105.344 49.136 104.768 57.776 101.632 63.896C95.096 76.656 76.936 80.328 66.864 69.984L64 67.04L61.136 69.984C51.064 80.328 32.896 76.656 26.368 63.896C23.232 57.768 22.656 49.136 28.088 38.416C30.672 33.328 34.608 27.776 40.24 21.896L55.168 36.832A4 4 0 1 0 60.832 31.168L45.976 16.32z" />
    <glyph glyph-name="arrow-top-double"
      unicode="&#xE041;"
      horiz-adv-x="128" d="M66 47.2L66 47.2L119.2 -3.2L119.2 -3.2C119.6 -3.6 120 -4.4 120 -5.2C120 -6.8 118.8 -8 117.2 -8C116.4 -8 115.6 -7.6 115.2 -7.2L115.2 -7.2L64 41.2L12.8 -7.2L12.8 -7.2C12.4 -7.6 11.6 -8 10.8 -8C9.2 -8 8 -6.8 8 -5.2C8 -4.4 8.4 -3.6 8.8 -3.2L62 47.2C62.4 47.6 63.2 48 64 48S65.6 47.6 66 47.2zM64 88C63.2 88 62.4 87.6 62 87.2L8.8 36.8C8.4 36.4 8 35.6 8 34.8C8 33.2 9.2 32 10.8 32C11.6 32 12.4 32.4 12.8 32.8L12.8 32.8L64 81.2L115.2 32.8L115.2 32.8C115.6 32.4 116.4 32 117.2 32C118.8 32 120 33.2 120 34.8C120 35.6 119.6 36.4 119.2 36.8L119.2 36.8L66 87.2L66 87.2C65.6 87.6 64.8 88 64 88z" />
    <glyph glyph-name="arrow-up-circle-fill"
      unicode="&#xE042;"
      horiz-adv-x="128" d="M128 40A64 64 0 1 1 0 40A64 64 0 0 1 128 40zM68 12A4 4 0 0 0 60 12V58.344L42.832 41.168A4 4 0 1 0 37.168 46.832L61.168 70.832A4 4 0 0 0 66.832 70.832L90.832 46.832A4 4 0 0 0 85.168 41.168L68 58.344V12z" />
    <glyph glyph-name="arrow-up-circle"
      unicode="&#xE043;"
      horiz-adv-x="128" d="M8 40A56 56 0 1 1 120 40A56 56 0 0 1 8 40zM128 40A64 64 0 1 0 0 40A64 64 0 0 0 128 40zM68 12A4 4 0 0 0 60 12V58.344L42.832 41.168A4 4 0 1 0 37.168 46.832L61.168 70.832A4 4 0 0 0 66.832 70.832L90.832 46.832A4 4 0 0 0 85.168 41.168L68 58.344V12z" />
    <glyph glyph-name="arrow-up-left-circle-fill"
      unicode="&#xE044;"
      horiz-adv-x="128" d="M128 40A64 64 0 1 0 0 40A64 64 0 0 0 128 40zM80.768 17.576A4 4 0 1 1 86.424 23.232L53.656 56H75.8A4 4 0 1 1 75.8 64H44A4 4 0 0 1 40 60V28.2A4 4 0 0 1 48 28.2V50.344L80.768 17.576z" />
    <glyph glyph-name="arrow-up-left-circle"
      unicode="&#xE045;"
      horiz-adv-x="128" d="M8 40A56 56 0 1 1 120 40A56 56 0 0 1 8 40zM128 40A64 64 0 1 0 0 40A64 64 0 0 0 128 40zM80.768 17.576A4 4 0 1 1 86.424 23.232L53.656 56H75.8A4 4 0 1 1 75.8 64H44A4 4 0 0 1 40 60V28.2A4 4 0 0 1 48 28.2V50.344L80.768 17.576z" />
    <glyph glyph-name="arrow-up-left-square-fill"
      unicode="&#xE046;"
      horiz-adv-x="128" d="M16 104A16 16 0 0 1 0 88V-8A16 16 0 0 1 16 -24H112A16 16 0 0 1 128 -8V88A16 16 0 0 1 112 104H16zM80.768 17.576L48 50.344V28.2A4 4 0 0 0 40 28.2V60A4 4 0 0 0 44 64H75.8A4 4 0 1 0 75.8 56H53.656L86.424 23.232A4 4 0 1 0 80.768 17.576z" />
    <glyph glyph-name="arrow-up-left-square"
      unicode="&#xE047;"
      horiz-adv-x="128" d="M120 88A8 8 0 0 1 112 96H16A8 8 0 0 1 8 88V-8A8 8 0 0 1 16 -16H112A8 8 0 0 1 120 -8V88zM0 88A16 16 0 0 0 16 104H112A16 16 0 0 0 128 88V-8A16 16 0 0 0 112 -24H16A16 16 0 0 0 0 -8V88zM80.768 17.576A4 4 0 1 1 86.424 23.232L53.656 56H75.8A4 4 0 1 1 75.8 64H44A4 4 0 0 1 40 60V28.2A4 4 0 0 1 48 28.2V50.344L80.768 17.576z" />
    <glyph glyph-name="arrow-up-left"
      unicode="&#xE048;"
      horiz-adv-x="128" d="M16 84A4 4 0 0 0 20 88H68A4 4 0 0 0 68 80H29.656L110.832 -1.168A4 4 0 0 0 105.168 -6.832L24 74.344V36A4 4 0 0 0 16 36V84z" />
    <glyph glyph-name="arrow-up-right-circle-fill"
      unicode="&#xE049;"
      horiz-adv-x="128" d="M0 40A64 64 0 1 1 128 40A64 64 0 0 1 0 40zM47.232 17.576A4 4 0 1 0 41.576 23.232L74.344 56H52.2A4 4 0 1 0 52.2 64H84A4 4 0 0 0 88 60V28.2A4 4 0 0 0 80 28.2V50.344L47.232 17.576z" />
    <glyph glyph-name="arrow-up-right-circle"
      unicode="&#xE04A;"
      horiz-adv-x="128" d="M8 40A56 56 0 1 1 120 40A56 56 0 0 1 8 40zM128 40A64 64 0 1 0 0 40A64 64 0 0 0 128 40zM46.832 17.576A4 4 0 1 0 41.168 23.232L73.944 56H51.8A4 4 0 1 0 51.8 64H83.6A4 4 0 0 0 87.6 60V28.2A4 4 0 1 0 79.6 28.2V50.344L46.832 17.576z" />
    <glyph glyph-name="arrow-up-right-square-fill"
      unicode="&#xE04B;"
      horiz-adv-x="128" d="M112 104A16 16 0 0 0 128 88V-8A16 16 0 0 0 112 -24H16A16 16 0 0 0 0 -8V88A16 16 0 0 0 16 104H112zM47.232 17.576L80 50.344V28.2A4 4 0 0 1 88 28.2V60A4 4 0 0 1 84 64H52.2A4 4 0 1 1 52.2 56H74.344L41.576 23.232A4 4 0 0 1 47.232 17.576z" />
    <glyph glyph-name="arrow-up-right-square"
      unicode="&#xE04C;"
      horiz-adv-x="128" d="M120 88A8 8 0 0 1 112 96H16A8 8 0 0 1 8 88V-8A8 8 0 0 1 16 -16H112A8 8 0 0 1 120 -8V88zM0 88A16 16 0 0 0 16 104H112A16 16 0 0 0 128 88V-8A16 16 0 0 0 112 -24H16A16 16 0 0 0 0 -8V88zM46.832 17.576A4 4 0 1 0 41.168 23.232L73.944 56H51.8A4 4 0 1 0 51.8 64H83.6A4 4 0 0 0 87.6 60V28.2A4 4 0 1 0 79.6 28.2V50.344L46.832 17.576z" />
    <glyph glyph-name="arrow-up-right"
      unicode="&#xE04D;"
      horiz-adv-x="128" d="M112 84A4 4 0 0 1 108 88H60A4 4 0 0 1 60 80H98.344L17.168 -1.168A4 4 0 0 1 22.832 -6.832L104 74.344V36A4 4 0 0 1 112 36V84z" />
    <glyph glyph-name="arrow-up-short"
      unicode="&#xE04E;"
      horiz-adv-x="128" d="M64 8A4 4 0 0 1 68 12V58.344L85.168 41.168A4 4 0 0 1 90.832 46.832L66.832 70.832A4 4 0 0 1 61.168 70.832L37.168 46.832A4 4 0 1 1 42.832 41.168L60 58.344V12A4 4 0 0 1 64 8z" />
    <glyph glyph-name="arrow-up-square-fill"
      unicode="&#xE04F;"
      horiz-adv-x="128" d="M16 -24A16 16 0 0 0 0 -8V88A16 16 0 0 0 16 104H112A16 16 0 0 0 128 88V-8A16 16 0 0 0 112 -24H16zM68 12V58.344L85.168 41.168A4 4 0 0 1 90.832 46.832L66.832 70.832A4 4 0 0 1 61.168 70.832L37.168 46.832A4 4 0 1 1 42.832 41.168L60 58.344V12A4 4 0 0 1 68 12z" />
    <glyph glyph-name="arrow-up-square"
      unicode="&#xE050;"
      horiz-adv-x="128" d="M120 88A8 8 0 0 1 112 96H16A8 8 0 0 1 8 88V-8A8 8 0 0 1 16 -16H112A8 8 0 0 1 120 -8V88zM0 88A16 16 0 0 0 16 104H112A16 16 0 0 0 128 88V-8A16 16 0 0 0 112 -24H16A16 16 0 0 0 0 -8V88zM68 12A4 4 0 0 0 60 12V58.344L42.832 41.168A4 4 0 1 0 37.168 46.832L61.168 70.832A4 4 0 0 0 66.832 70.832L90.832 46.832A4 4 0 0 0 85.168 41.168L68 58.344V12z" />
    <glyph glyph-name="arrow-up"
      unicode="&#xE051;"
      horiz-adv-x="128" d="M64 -16A4 4 0 0 1 68 -12V82.344L93.168 57.168A4 4 0 0 1 98.832 62.832L66.832 94.832A4 4 0 0 1 61.168 94.832L29.168 62.832A4 4 0 1 1 34.832 57.168L60 82.344V-12A4 4 0 0 1 64 -16z" />
    <glyph glyph-name="arrows-angle-contract"
      unicode="&#xE052;"
      horiz-adv-x="128" d="M1.376 -22.624A4 4 0 0 1 7.032 -22.624L39.8 10.144V-12A4 4 0 1 1 47.8 -12V19.8A4 4 0 0 1 43.8 23.8H12A4 4 0 0 1 12 15.8H34.144L1.376 -16.968A4 4 0 0 1 1.376 -22.624zM126.624 102.624A4 4 0 0 1 120.968 102.624L88.2 69.856V92A4 4 0 1 1 80.2 92V60.2A4 4 0 0 1 84.2 56.2H116A4 4 0 0 1 116 64.2H93.856L126.624 96.968A4 4 0 0 1 126.624 102.624z" />
    <glyph glyph-name="arrows-angle-expand"
      unicode="&#xE053;"
      horiz-adv-x="128" d="M46.624 22.624A4 4 0 0 1 40.968 22.624L8.2 -10.144V12A4 4 0 0 1 0.2 12V-19.8A4 4 0 0 1 4.2 -23.8H36A4 4 0 0 1 36 -15.8H13.856L46.624 16.968A4 4 0 0 1 46.624 22.624zM81.376 57.376A4 4 0 0 1 87.032 57.376L119.8 90.144V68A4 4 0 1 1 127.8 68V99.8A4 4 0 0 1 123.8 103.8H92A4 4 0 0 1 92 95.8H114.144L81.376 63.032A4 4 0 0 1 81.376 57.376z" />
    <glyph glyph-name="arrows-collapse"
      unicode="&#xE054;"
      horiz-adv-x="128" d="M8 40A4 4 0 0 0 12 44H116A4 4 0 0 0 116 36H12A4 4 0 0 0 8 40zM64 104A4 4 0 0 0 68 100V69.656L77.168 78.832A4 4 0 0 0 82.832 73.168L66.832 57.168A4 4 0 0 0 61.168 57.168L45.168 73.168A4 4 0 1 0 50.832 78.832L60 69.656V100A4 4 0 0 0 64 104zM60 10.344L50.832 1.168A4 4 0 0 0 45.168 6.832L61.168 22.832A4 4 0 0 0 66.832 22.832L82.832 6.832A4 4 0 0 0 77.168 1.168L68 10.344V-20A4 4 0 0 0 60 -20V10.344z" />
    <glyph glyph-name="arrows-expand"
      unicode="&#xE055;"
      horiz-adv-x="128" d="M8 40A4 4 0 0 0 12 44H116A4 4 0 0 0 116 36H12A4 4 0 0 0 8 40zM61.168 102.832A4 4 0 0 0 66.832 102.832L82.832 86.832A4 4 0 0 0 77.168 81.168L68 90.344V60A4 4 0 0 0 60 60V90.344L50.832 81.168A4 4 0 1 0 45.168 86.832L61.168 102.832zM64 24A4 4 0 0 0 68 20V-10.344L77.168 -1.168A4 4 0 0 0 82.832 -6.832L66.832 -22.832A4 4 0 0 0 61.168 -22.832L45.168 -6.832A4 4 0 0 0 50.832 -1.168L60 -10.344V20A4 4 0 0 0 64 24z" />
    <glyph glyph-name="arrows-fullscreen"
      unicode="&#xE056;"
      horiz-adv-x="128" d="M46.624 22.624A4 4 0 0 1 40.968 22.624L8.2 -10.144V12A4 4 0 0 1 0.2 12V-19.8A4 4 0 0 1 4.2 -23.8H36A4 4 0 0 1 36 -15.8H13.856L46.624 16.968A4 4 0 0 1 46.624 22.624zM81.376 22.624A4 4 0 0 0 87.032 22.624L119.8 -10.144V12A4 4 0 1 0 127.8 12V-19.8A4 4 0 0 0 123.8 -23.8H92A4 4 0 0 0 92 -15.8H114.144L81.376 16.968A4 4 0 0 0 81.376 22.624zM81.376 57.376A4 4 0 0 1 87.032 57.376L119.8 90.144V68A4 4 0 1 1 127.8 68V99.8A4 4 0 0 1 123.8 103.8H92A4 4 0 0 1 92 95.8H114.144L81.376 63.032A4 4 0 0 1 81.376 57.376zM46.624 57.376A4 4 0 0 0 40.968 57.376L8.2 90.144V68A4 4 0 0 0 0.2 68V99.8A4 4 0 0 0 4.2 103.8H36A4 4 0 0 0 36 95.8H13.856L46.624 63.032A4 4 0 0 0 46.624 57.376z" />
    <glyph glyph-name="arrows-move"
      unicode="&#xE057;"
      horiz-adv-x="128" d="M61.168 102.832A4 4 0 0 0 66.832 102.832L82.832 86.832A4 4 0 0 0 77.168 81.168L68 90.344V60A4 4 0 0 0 60 60V90.344L50.832 81.168A4 4 0 1 0 45.168 86.832L61.168 102.832zM64 24A4 4 0 0 0 68 20V-10.344L77.168 -1.168A4 4 0 0 0 82.832 -6.832L66.832 -22.832A4 4 0 0 0 61.168 -22.832L45.168 -6.832A4 4 0 0 0 50.832 -1.168L60 -10.344V20A4 4 0 0 0 64 24zM1.168 37.168A4 4 0 0 0 1.168 42.832L17.168 58.832A4 4 0 1 0 22.832 53.168L13.656 44H44A4 4 0 0 0 44 36H13.656L22.832 26.832A4 4 0 0 0 17.168 21.168L1.168 37.168zM80 40A4 4 0 0 0 84 44H114.344L105.168 53.168A4 4 0 0 0 110.832 58.832L126.832 42.832A4 4 0 0 0 126.832 37.168L110.832 21.168A4 4 0 0 0 105.168 26.832L114.344 36H84A4 4 0 0 0 80 40z" />
    <glyph glyph-name="aspect-ratio-fill"
      unicode="&#xE058;"
      horiz-adv-x="128" d="M0 4V76A12 12 0 0 0 12 88H116A12 12 0 0 0 128 76V4A12 12 0 0 0 116 -8H12A12 12 0 0 0 0 4zM20 72A4 4 0 0 1 16 68V44A4 4 0 0 1 24 44V64H44A4 4 0 0 1 44 72H20zM108 8A4 4 0 0 1 112 12V36A4 4 0 0 1 104 36V16H84A4 4 0 0 1 84 8H108z" />
    <glyph glyph-name="aspect-ratio"
      unicode="&#xE059;"
      horiz-adv-x="128" d="M0 76A12 12 0 0 0 12 88H116A12 12 0 0 0 128 76V4A12 12 0 0 0 116 -8H12A12 12 0 0 0 0 4V76zM12 80A4 4 0 0 1 8 76V4A4 4 0 0 1 12 0H116A4 4 0 0 1 120 4V76A4 4 0 0 1 116 80H12zM16 68A4 4 0 0 0 20 72H44A4 4 0 0 0 44 64H24V44A4 4 0 0 0 16 44V68zM112 12A4 4 0 0 0 108 8H84A4 4 0 0 0 84 16H104V36A4 4 0 0 0 112 36V12z" />
    <glyph glyph-name="asterisk"
      unicode="&#xE05A;"
      horiz-adv-x="128" d="M64 104A8 8 0 0 0 72 96V53.856L108.496 74.928A8 8 0 1 0 116.496 61.072L80 40L116.496 18.928A8 8 0 1 0 108.496 5.072L72 26.144V-16A8 8 0 1 0 56 -16V26.144L19.504 5.072A8 8 0 1 0 11.504 18.928L48 40L11.504 61.072A8 8 0 0 0 19.504 74.928L56 53.856V96A8 8 0 0 0 64 104z" />
    <glyph glyph-name="at"
      unicode="&#xE05B;"
      horiz-adv-x="128" d="M104.848 46.224C104.848 69.96 86.856 86.48 60.992 86.48C34.192 86.48 15.824 67.936 15.824 40.864C15.824 12.92 33.704 -4.8 61.92 -4.8C68.816 -4.8 75.432 -3.816 80.352 -2.12V4.776C76.912 3.184 69.52 2.152 62.032 2.152C38.624 2.152 23.528 17.192 23.528 40.536C23.528 63.288 38.896 79.584 60.28 79.584C82.16 79.584 97.144 66.08 97.144 46.336C97.144 32.88 92.712 24.184 85.816 24.184C81.88 24.184 79.64 26.424 79.64 30.264V62.352H71.384V55.68H70.504C68.376 60.44 63.456 63.392 57.704 63.392C46.504 63.392 38.68 54.096 38.68 40.808C38.68 26.912 46.336 17.56 57.712 17.56C64.112 17.56 69.032 20.68 71.384 26.256H72.264C72.912 20.896 77.888 17.072 84.288 17.072C96.864 17.072 104.848 28.392 104.848 46.216zM47.432 40.592C47.432 50.168 51.752 55.848 59.08 55.848C66.52 55.848 71.272 49.944 71.272 40.592S66.464 25.28 58.968 25.28C51.808 25.28 47.432 31.08 47.432 40.592z" />
    <glyph glyph-name="award-fill"
      unicode="&#xE05C;"
      horiz-adv-x="128" d="M64 104L77.352 97.088L92.216 94.832L98.952 81.392L109.648 70.832L107.2 56L109.648 41.168L98.952 30.608L92.216 17.168L77.352 14.912L64 8L50.648 14.912L35.784 17.168L29.048 30.608L18.352 41.168L20.8 56L18.352 70.832L29.048 81.392L35.784 94.832L50.648 97.088L64 104zM32 9.648V-24L64 -16L96 -24V9.648L79.856 7.2L64 -1.008L48.144 7.2L32 9.648z" />
    <glyph glyph-name="award"
      unicode="&#xE05D;"
      horiz-adv-x="128" d="M77.352 97.088L64 104L50.648 97.088L35.784 94.832L29.048 81.392L18.352 70.832L20.8 56L18.352 41.168L29.048 30.608L35.784 17.168L50.648 14.912L64 8L77.352 14.912L92.216 17.168L98.952 30.608L109.648 41.168L107.2 56L109.648 70.832L98.952 81.392L92.216 94.832L77.352 97.088zM86.92 87.544L92.392 76.624L101.08 68.048L99.096 56L101.08 43.952L92.392 35.376L86.92 24.456L74.84 22.624L64 17.008L53.16 22.624L41.08 24.456L35.608 35.376L26.92 43.952L28.912 56L26.912 68.048L35.608 76.624L41.08 87.544L53.16 89.376L64 94.992L74.848 89.376L86.92 87.544zM32 9.648V-24L64 -16L96 -24V9.648L79.856 7.2L64 -1.008L48.144 7.2L32 9.648z" />
    <glyph glyph-name="back"
      unicode="&#xE05E;"
      horiz-adv-x="128" d="M0 88A16 16 0 0 0 16 104H80A16 16 0 0 0 96 88V72H112A16 16 0 0 0 128 56V-8A16 16 0 0 0 112 -24H48A16 16 0 0 0 32 -8V8H16A16 16 0 0 0 0 24V88zM16 96A8 8 0 0 1 8 88V24A8 8 0 0 1 16 16H80A8 8 0 0 1 88 24V88A8 8 0 0 1 80 96H16z" />
    <glyph glyph-name="backspace-fill"
      unicode="&#xE05F;"
      horiz-adv-x="128" d="M125.464 80A16 16 0 0 1 109.464 96H52.824A16 16 0 0 1 40.672 90.416L1.928 45.2A8 8 0 0 1 1.928 34.784L40.672 -10.416A16 16 0 0 1 52.824 -16H109.464A16 16 0 0 1 125.464 0V80zM46.632 57.168A4 4 0 1 0 52.288 62.832L69.464 45.656L86.632 62.832A4 4 0 1 0 92.288 57.168L75.12 40L92.288 22.832A4 4 0 0 0 86.632 17.168L69.464 34.344L52.288 17.168A4 4 0 0 0 46.632 22.832L63.808 40L46.632 57.168z" />
    <glyph glyph-name="backspace-reverse-fill"
      unicode="&#xE060;"
      horiz-adv-x="128" d="M0 80A16 16 0 0 0 16 96H72.64A16 16 0 0 0 84.792 90.416L123.536 45.208A8 8 0 0 0 123.536 34.792L84.8 -10.4A16 16 0 0 0 72.64 -16H16A16 16 0 0 0 0 0V80zM78.832 57.168A4 4 0 0 1 73.168 62.832L56 45.656L38.832 62.832A4 4 0 1 1 33.168 57.168L50.344 40L33.168 22.832A4 4 0 0 1 38.832 17.168L56 34.344L73.168 17.168A4 4 0 0 1 78.832 22.832L61.656 40L78.832 57.168z" />
    <glyph glyph-name="backspace-reverse"
      unicode="&#xE061;"
      horiz-adv-x="128" d="M78.832 62.832A4 4 0 0 0 78.832 57.168L61.656 40L78.832 22.832A4 4 0 0 0 73.168 17.168L56 34.344L38.832 17.168A4 4 0 0 0 33.168 22.832L50.344 40L33.168 57.168A4 4 0 1 0 38.832 62.832L56 45.656L73.168 62.832A4 4 0 0 0 78.832 62.832zM16 96A16 16 0 0 1 0 80V0A16 16 0 0 1 16 -16H72.64A16 16 0 0 1 84.792 -10.416L123.536 34.792A8 8 0 0 1 123.536 45.208L84.8 90.4A16 16 0 0 1 72.64 96H16zM72.64 88A8 8 0 0 0 78.72 85.2L117.456 40L78.704 -5.2A8 8 0 0 0 72.632 -8H16A8 8 0 0 0 8 0V80A8 8 0 0 0 16 88H72.64z" />
    <glyph glyph-name="backspace"
      unicode="&#xE062;"
      horiz-adv-x="128" d="M46.64 62.832A4 4 0 0 1 46.64 57.168L63.8 40L46.624 22.832A4 4 0 0 1 52.28 17.168L69.456 34.344L86.624 17.168A4 4 0 0 1 92.28 22.832L75.12 40L92.288 57.168A4 4 0 0 1 86.632 62.832L69.464 45.656L52.288 62.832A4 4 0 0 1 46.632 62.832zM109.464 96A16 16 0 0 0 125.464 80V0A16 16 0 0 0 109.464 -16H52.824A16 16 0 0 0 40.672 -10.416L1.928 34.8A8 8 0 0 0 1.928 45.216L40.672 90.4A16 16 0 0 0 52.824 96H109.464zM52.824 88A8 8 0 0 1 46.744 85.2L8 40L46.752 -5.2A8 8 0 0 1 52.824 -8H109.464A8 8 0 0 1 117.464 0V80A8 8 0 0 1 109.464 88H52.824z" />
    <glyph glyph-name="badge-3d-fill"
      unicode="&#xE063;"
      horiz-adv-x="128" d="M81.256 56.256H74.504V23.776H81.256C90.184 23.776 94.224 29.112 94.224 39.936C94.224 50.768 90.144 56.256 81.256 56.256zM0 72A16 16 0 0 0 16 88H112A16 16 0 0 0 128 72V8A16 16 0 0 0 112 -8H16A16 16 0 0 0 0 8V72zM41.472 37.056C46.64 37.056 49.912 34.032 49.952 29.856C50.016 25.56 46.536 22.504 41.264 22.504C36.48 22.536 32.968 25.104 32.72 28.552H24C24.24 21.24 30.328 15.048 41.224 15.048C51.144 15.048 59.504 20.328 59.4 29.432C59.296 37.056 53.424 40.472 49.064 40.888V41.384C52.584 41.944 58.064 45.6 57.928 52.384C57.824 59.632 51.528 64.944 41.504 64.904C31.024 64.864 25.16 59.032 24.912 51.544H33.736C33.912 54.672 36.8 57.552 41.224 57.552C45.48 57.552 48.648 54.912 48.648 51.048C48.68 47.216 45.584 44.368 41.224 44.368H36.168V37.056H41.472zM65.008 16H82.52C97 16 104 24.856 104 40.12C104 55.272 97.112 63.992 82.52 63.992H65.008V16z" />
    <glyph glyph-name="badge-3d"
      unicode="&#xE064;"
      horiz-adv-x="128" d="M36.16 37.056H41.472C46.64 37.056 49.912 34.032 49.952 29.856C50.016 25.56 46.536 22.504 41.264 22.504C36.48 22.536 32.968 25.104 32.72 28.552H24C24.24 21.24 30.328 15.048 41.224 15.048C51.144 15.048 59.504 20.328 59.4 29.432C59.296 37.056 53.424 40.472 49.064 40.888V41.384C52.584 41.944 58.064 45.6 57.928 52.384C57.824 59.632 51.528 64.944 41.504 64.904C31.024 64.864 25.16 59.032 24.912 51.544H33.736C33.912 54.672 36.8 57.552 41.224 57.552C45.48 57.552 48.648 54.912 48.648 51.048C48.68 47.216 45.584 44.368 41.224 44.368H36.168V37.056zM65.008 63.992V16H82.52C97 16 104 24.856 104 40.12C104 55.272 97.112 63.992 82.52 63.992H65.008zM74.504 56.256H81.256C90.152 56.256 94.224 50.768 94.224 39.936C94.224 29.112 90.184 23.776 81.256 23.776H74.504V56.256zM112 80A8 8 0 0 0 120 72V8A8 8 0 0 0 112 0H16A8 8 0 0 0 8 8V72A8 8 0 0 0 16 80H112zM16 88A16 16 0 0 1 0 72V8A16 16 0 0 1 16 -8H112A16 16 0 0 1 128 8V72A16 16 0 0 1 112 88H16z" />
    <glyph glyph-name="badge-4k-fill"
      unicode="&#xE065;"
      horiz-adv-x="128" d="M28.616 32.8V32.56H43.24V56.816H42.744A374.248 374.248 0 0 1 28.616 32.808zM16 88A16 16 0 0 1 0 72V8A16 16 0 0 1 16 -8H112A16 16 0 0 1 128 8V72A16 16 0 0 1 112 88H16zM34.976 58.28L38.456 63.992H52.136V32.552H58V24.896H52.136V16H43.24V24.896H20V32.664C24.592 41.28 29.8 49.8 34.976 58.28zM96.816 63.992H107.264L90.144 43.32L108 16H96.576L83.144 36.992L78.224 31.392V16H68.72V63.992H78.216V42.504H78.672L96.816 64z" />
    <glyph glyph-name="badge-4k"
      unicode="&#xE066;"
      horiz-adv-x="128" d="M38.456 63.992C32.168 53.616 25.624 43.2 20 32.664V24.896H43.24V16H52.136V24.896H58V32.56H52.136V63.992H38.456zM28.616 32.552V32.808A374.248 374.248 0 0 0 42.744 56.816H43.24V32.56H28.616zM107.264 63.992H96.816L78.68 42.504H78.224V64H68.72V16H78.216V31.4L83.136 36.992L96.576 16H108L90.144 43.32L107.264 63.992zM112 80A8 8 0 0 0 120 72V8A8 8 0 0 0 112 0H16A8 8 0 0 0 8 8V72A8 8 0 0 0 16 80H112zM16 88A16 16 0 0 1 0 72V8A16 16 0 0 1 16 -8H112A16 16 0 0 1 128 8V72A16 16 0 0 1 112 88H16z" />
    <glyph glyph-name="badge-8k-fill"
      unicode="&#xE067;"
      horiz-adv-x="128" d="M31.2 51.16C31.2 47.08 34.44 44.232 38.8 44.232C43.16 44.232 46.36 47.08 46.36 51.16S43.16 57.976 38.8 57.976C34.44 57.976 31.2 55.232 31.2 51.16zM29.664 29.816C29.664 25.104 33.6 21.944 38.8 21.944C43.968 21.944 47.944 25.104 47.944 29.816S43.968 37.76 38.8 37.76C33.6 37.76 29.664 34.528 29.664 29.816zM16 88A16 16 0 0 1 0 72V8A16 16 0 0 1 16 -8H112A16 16 0 0 1 128 8V72A16 16 0 0 1 112 88H16zM57.36 29.216C57.36 20.888 49.944 15.088 38.696 15.088C27.448 15.088 20.2 20.848 20.2 29.184C20.2 36.816 25.896 40.256 30.256 41.136V41.56C26.176 42.792 22.096 46.024 22.096 52.208C22.096 59.52 28.744 64.904 38.8 64.904C48.824 64.904 55.464 59.52 55.464 52.208C55.464 45.952 51.28 42.752 47.304 41.56V41.136C51.664 40.256 57.36 36.776 57.36 29.216zM96.816 64H107.264L90.144 43.328L108 16.008H96.576L83.144 37L78.224 31.408V16.008H68.72V64H78.216V42.52H78.672L96.816 64z" />
    <glyph glyph-name="badge-8k"
      unicode="&#xE068;"
      horiz-adv-x="128" d="M38.696 15.088C49.944 15.088 57.36 20.888 57.36 29.216C57.36 36.776 51.664 40.256 47.312 41.136V41.56C51.28 42.76 55.472 45.96 55.472 52.208C55.472 59.52 48.824 64.904 38.8 64.904C28.744 64.904 22.104 59.52 22.104 52.208C22.104 46.024 26.184 42.792 30.264 41.56V41.136C25.896 40.256 20.2 36.816 20.2 29.184C20.2 20.848 27.448 15.088 38.696 15.088zM38.8 44.232C34.44 44.232 31.2 47.08 31.2 51.16S34.44 57.976 38.8 57.976C43.16 57.976 46.36 55.232 46.36 51.16C46.36 47.08 43.16 44.232 38.8 44.232zM38.8 21.944C33.6 21.944 29.664 25.104 29.664 29.816S33.6 37.76 38.8 37.76C43.968 37.76 47.944 34.528 47.944 29.816S43.968 21.944 38.8 21.944zM107.264 64H96.816L78.68 42.52H78.224V64H68.72V16.016H78.216V31.4L83.136 36.992L96.568 16.008H108L90.144 43.32L107.264 64zM112 80A8 8 0 0 0 120 72V8A8 8 0 0 0 112 0H16A8 8 0 0 0 8 8V72A8 8 0 0 0 16 80H112zM16 88A16 16 0 0 1 0 72V8A16 16 0 0 1 16 -8H112A16 16 0 0 1 128 8V72A16 16 0 0 1 112 88H16z" />
    <glyph glyph-name="badge-ad-fill"
      unicode="&#xE069;"
      horiz-adv-x="128" d="M90.8 37.304C90.8 42.896 87.44 46.408 82.792 46.408C78.12 46.408 75.16 42.856 75.16 36.496V32.872C75.16 26.472 78.152 22.888 82.936 22.888C87.64 22.888 90.808 26.408 90.808 32.488V37.304zM47.496 35.408L41.624 54.816H41.2L35.328 35.408H47.488zM16 88A16 16 0 0 1 0 72V8A16 16 0 0 1 16 -8H112A16 16 0 0 1 128 8V72A16 16 0 0 1 112 88H16zM65.672 37.44C65.672 47.68 71.224 53.792 79.696 53.792C84.936 53.792 88.944 51.44 90.384 47.64H90.808V66.52H100.088V16H90.984V21.976H90.528C89.368 18.184 85.008 15.544 79.592 15.544C71.152 15.544 65.672 21.656 65.672 31.888V37.448zM33.352 28.336L29.6 16H20L36.104 63.992H47.2L63.24 16H53.152L49.392 28.336H33.36z" />
    <glyph glyph-name="badge-ad"
      unicode="&#xE06A;"
      horiz-adv-x="128" d="M29.6 16L33.36 28.336H49.392L53.152 16H63.24L47.208 63.992H36.104L20 16H29.6zM41.624 54.816L47.496 35.408H35.328L41.2 54.816H41.624zM79.696 53.792C71.224 53.792 65.672 47.672 65.672 37.448V31.888C65.672 21.656 71.152 15.544 79.592 15.544C85.008 15.544 89.368 18.184 90.528 21.976H90.984V16H100.088V66.52H90.808V47.64H90.384C88.944 51.44 84.944 53.8 79.696 53.8zM82.792 46.408C87.432 46.408 90.808 42.888 90.808 37.304V32.488C90.808 26.408 87.64 22.888 82.936 22.888C78.152 22.888 75.16 26.48 75.16 32.872V36.496C75.16 42.856 78.12 46.416 82.792 46.416zM112 80A8 8 0 0 0 120 72V8A8 8 0 0 0 112 0H16A8 8 0 0 0 8 8V72A8 8 0 0 0 16 80H112zM16 88A16 16 0 0 1 0 72V8A16 16 0 0 1 16 -8H112A16 16 0 0 1 128 8V72A16 16 0 0 1 112 88H16z" />
    <glyph glyph-name="badge-ar-fill"
      unicode="&#xE06B;"
      horiz-adv-x="128" d="M48.248 35.408L42.376 54.816H41.96L36.08 35.408H48.24zM77.384 56.536V41.032H85.648C90.928 41.032 94.192 43.56 94.192 48.632C94.192 53.752 90.816 56.536 85.792 56.536H77.392zM0 72A16 16 0 0 0 16 88H112A16 16 0 0 0 128 72V8A16 16 0 0 0 112 -8H16A16 16 0 0 0 0 8V72zM34.12 28.336H50.152L53.912 16H64L47.968 63.992H36.856L20.76 16H30.36L34.12 28.336zM68 64V16H77.384V33.896H85.896L94.296 16H104.912L95.28 35.336C99.64 37.016 104 41.768 104 48.8C104 57.976 97.816 64 87.16 64H68z" />
    <glyph glyph-name="badge-ar"
      unicode="&#xE06C;"
      horiz-adv-x="128" d="M30.352 16L34.112 28.336H50.16L53.912 16H64L47.968 63.992H36.856L20.76 16H30.36zM42.376 54.816L48.248 35.408H36.088L41.96 54.816H42.376zM87.16 63.992H68V16H77.384V33.896H85.896L94.296 16H104.912L95.28 35.336C99.64 37.016 104 41.768 104 48.8C104 57.976 97.816 64 87.16 64zM77.384 41.032V56.536H85.784C90.824 56.536 94.184 53.76 94.184 48.624C94.184 43.56 90.92 41.024 85.648 41.024H77.384zM112 80A8 8 0 0 0 120 72V8A8 8 0 0 0 112 0H16A8 8 0 0 0 8 8V72A8 8 0 0 0 16 80H112zM16 88A16 16 0 0 1 0 72V8A16 16 0 0 1 16 -8H112A16 16 0 0 1 128 8V72A16 16 0 0 1 112 88H16z" />
    <glyph glyph-name="badge-cc-fill"
      unicode="&#xE06D;"
      horiz-adv-x="128" d="M16 88A16 16 0 0 1 0 72V8A16 16 0 0 1 16 -8H112A16 16 0 0 1 128 8V72A16 16 0 0 1 112 88H16zM40.216 55.984C33.576 55.984 29.664 50.848 29.664 41.96V36.016C29.664 27.16 33.504 22.2 40.216 22.2C45.736 22.2 49.32 25.68 49.704 30.6H58.88V29.688C58.424 20.512 50.656 14.184 40.144 14.184C27.24 14.184 20 22.408 20 36.016V41.992C20 55.592 27.312 64 40.144 64C50.688 64 58.464 57.496 58.88 48V47.12H49.704C49.32 52.224 45.664 55.984 40.216 55.984zM89.336 55.984C82.688 55.984 78.784 50.848 78.784 41.96V36.016C78.784 27.16 82.624 22.2 89.328 22.2C94.848 22.2 98.44 25.68 98.824 30.6H108V29.688C107.544 20.512 99.776 14.184 89.264 14.184C76.36 14.184 69.12 22.408 69.12 36.016V41.992C69.12 55.592 76.432 64 89.264 64C99.808 64 107.584 57.496 108 48V47.12H98.824C98.44 52.224 94.784 55.984 89.328 55.984z" />
    <glyph glyph-name="badge-cc"
      unicode="&#xE06E;"
      horiz-adv-x="128" d="M29.664 41.96C29.664 50.848 33.568 55.984 40.216 55.984C45.664 55.984 49.32 52.224 49.704 47.128H58.88V48C58.464 57.488 50.688 64 40.144 64C27.312 64 20 55.6 20 41.992V36.016C20 22.416 27.24 14.176 40.144 14.176C50.656 14.176 58.424 20.512 58.88 29.688V30.6H49.704C49.32 25.68 45.736 22.2 40.216 22.2C33.496 22.2 29.664 27.16 29.664 36.016V41.96zM78.784 41.96C78.784 50.848 82.688 55.984 89.328 55.984C94.784 55.984 98.44 52.224 98.824 47.128H108V48C107.576 57.488 99.808 64 89.264 64C76.432 64 69.12 55.6 69.12 41.992V36.016C69.12 22.416 76.36 14.176 89.264 14.176C99.776 14.176 107.544 20.512 108 29.688V30.6H98.824C98.44 25.68 94.848 22.2 89.328 22.2C82.616 22.2 78.784 27.16 78.784 36.016V41.96zM112 80A8 8 0 0 0 120 72V8A8 8 0 0 0 112 0H16A8 8 0 0 0 8 8V72A8 8 0 0 0 16 80H112zM16 88A16 16 0 0 1 0 72V8A16 16 0 0 1 16 -8H112A16 16 0 0 1 128 8V72A16 16 0 0 1 112 88H16z" />
    <glyph glyph-name="badge-hd-fill"
      unicode="&#xE06F;"
      horiz-adv-x="128" d="M84.24 56.256H77.496V23.776H84.24C93.176 23.776 97.216 29.112 97.216 39.936C97.216 50.768 93.136 56.256 84.24 56.256zM16 88A16 16 0 0 1 0 72V8A16 16 0 0 1 16 -8H112A16 16 0 0 1 128 8V72A16 16 0 0 1 112 88H16zM59.168 63.992V16H49.672V36.56H29.496V16H20V63.992H29.496V44.472H49.672V64H59.168zM68 16V63.992H85.504C100.096 63.992 106.984 55.272 106.984 40.12C106.984 24.856 100 16 85.52 16H68z" />
    <glyph glyph-name="badge-hd"
      unicode="&#xE070;"
      horiz-adv-x="128" d="M59.168 16V63.992H49.672V44.472H29.496V64H20V16H29.496V36.56H49.672V16H59.168zM68 63.992V16H85.504C99.992 16 106.984 24.856 106.984 40.12C106.984 55.272 100.104 63.992 85.512 63.992H68zM77.496 56.256H84.24C93.136 56.256 97.216 50.768 97.216 39.936C97.216 29.112 93.176 23.776 84.24 23.776H77.496V56.256zM112 80A8 8 0 0 0 120 72V8A8 8 0 0 0 112 0H16A8 8 0 0 0 8 8V72A8 8 0 0 0 16 80H112zM16 88A16 16 0 0 1 0 72V8A16 16 0 0 1 16 -8H112A16 16 0 0 1 128 8V72A16 16 0 0 1 112 88H16z" />
    <glyph glyph-name="badge-sd-fill"
      unicode="&#xE071;"
      horiz-adv-x="128" d="M82.704 56.256H75.952V23.776H82.704C91.632 23.776 95.68 29.112 95.68 39.936C95.68 50.768 91.6 56.256 82.704 56.256zM0 72A16 16 0 0 0 16 88H112A16 16 0 0 0 128 72V8A16 16 0 0 0 112 -8H16A16 16 0 0 0 0 8V72zM40.616 15.088C52.784 15.088 59.64 21.2 59.64 30.128C59.64 38.184 54.504 41.912 46.736 43.664L39.28 45.392C35.064 46.304 32.712 48.2 32.712 51.088C32.712 54.816 35.832 57.52 41.08 57.52C46.176 57.52 49.304 54.88 49.904 51.44H58.904C58.44 58.824 52.112 64.976 41.144 64.976C30.568 64.976 23.224 59.24 23.224 50.456C23.224 43.176 27.928 38.888 35.384 37.2L42.8 35.48C47.792 34.32 50.184 32.6 50.184 29.256C50.184 25.32 47.056 22.616 41.144 22.616C35.488 22.616 31.904 25.352 31.272 29.08H22.096C22.512 21.48 28.416 15.08 40.616 15.08zM66.456 16H83.976C98.456 16 105.448 24.856 105.448 40.12C105.448 55.272 98.56 63.992 83.968 63.992H66.464V16z" />
    <glyph glyph-name="badge-sd"
      unicode="&#xE072;"
      horiz-adv-x="128" d="M120 72A8 8 0 0 1 112 80H16A8 8 0 0 1 8 72V8A8 8 0 0 1 16 0H112A8 8 0 0 1 120 8V72zM0 72A16 16 0 0 0 16 88H112A16 16 0 0 0 128 72V8A16 16 0 0 0 112 -8H16A16 16 0 0 0 0 8V72zM40.616 15.088C28.424 15.088 22.512 21.488 22.096 29.08H31.272C31.904 25.352 35.488 22.608 41.144 22.608C47.056 22.608 50.184 25.32 50.184 29.248C50.184 32.592 47.784 34.32 42.8 35.48L35.384 37.2C27.928 38.88 23.224 43.176 23.224 50.456C23.224 59.24 30.568 64.976 41.144 64.976C52.112 64.976 58.44 58.816 58.904 51.44H49.904C49.304 54.88 46.176 57.52 41.08 57.52C35.84 57.52 32.712 54.816 32.712 51.088C32.712 48.208 35.064 46.304 39.28 45.392L46.736 43.664C54.504 41.904 59.64 38.184 59.64 30.136C59.64 21.2 52.784 15.088 40.616 15.088zM66.456 16V63.992H83.976C98.56 63.992 105.448 55.272 105.448 40.12C105.448 24.856 98.456 16 83.968 16H66.464zM82.704 56.256H75.952V23.776H82.704C91.632 23.776 95.68 29.112 95.68 39.936C95.68 50.768 91.6 56.256 82.704 56.256z" />
    <glyph glyph-name="badge-tm-fill"
      unicode="&#xE073;"
      horiz-adv-x="128" d="M16 88A16 16 0 0 1 0 72V8A16 16 0 0 1 16 -8H112A16 16 0 0 1 128 8V72A16 16 0 0 1 112 88H16zM42.36 56.04V16H32.832V56.04H19.232V64H56V56.048H42.36zM69.536 47.92V16H61.064V63.992H70.736L84.416 32.84H84.728L98.408 63.992H108V16H99.424V47.92H98.968L87.608 22.008H81.424L70 47.936H69.536z" />
    <glyph glyph-name="badge-tm"
      unicode="&#xE074;"
      horiz-adv-x="128" d="M42.36 16V56.04H56V64H19.224V56.048H32.832V16H42.352zM69.536 16V47.92H70L81.424 22.008H87.608L98.968 47.928H99.424V16H108V63.992H98.4L84.72 32.84H84.408L70.728 63.992H61.072V16H69.552zM112 80A8 8 0 0 0 120 72V8A8 8 0 0 0 112 0H16A8 8 0 0 0 8 8V72A8 8 0 0 0 16 80H112zM16 88A16 16 0 0 1 0 72V8A16 16 0 0 1 16 -8H112A16 16 0 0 1 128 8V72A16 16 0 0 1 112 88H16z" />
    <glyph glyph-name="badge-vo-fill"
      unicode="&#xE075;"
      horiz-adv-x="128" d="M98.368 36.848V43.104C98.368 52.352 93.8 56.992 87.472 56.992C81.104 56.992 76.568 52.352 76.568 43.104V36.848C76.568 27.6 81.104 22.992 87.472 22.992C93.792 22.992 98.368 27.6 98.368 36.848zM16 88A16 16 0 0 1 0 72V8A16 16 0 0 1 16 -8H112A16 16 0 0 1 128 8V72A16 16 0 0 1 112 88H16zM108 43.04V36.88C108 23.352 100.304 15.088 87.472 15.088C74.64 15.088 66.904 23.352 66.904 36.88V43.04C66.904 56.672 74.64 64.904 87.464 64.904C100.304 64.904 108 56.608 108 43.032zM47.496 16H36.064L20 63.992H31L41.76 26.336H42.216L52.88 63.992H63.424L47.496 16z" />
    <glyph glyph-name="badge-vo"
      unicode="&#xE076;"
      horiz-adv-x="128" d="M36.064 16H47.496L63.416 63.992H52.88L42.216 26.336H41.76L31 63.992H20L36.064 16zM108 36.88V43.04C108 56.608 100.304 64.904 87.472 64.904C74.64 64.904 66.904 56.672 66.904 43.032V36.88C66.904 23.352 74.64 15.088 87.464 15.088C100.304 15.088 108 23.352 108 36.88zM98.368 43.104V36.848C98.368 27.6 93.8 22.992 87.472 22.992C81.104 22.992 76.568 27.6 76.568 36.848V43.104C76.568 52.352 81.104 56.992 87.472 56.992C93.792 56.992 98.368 52.352 98.368 43.104zM112 80A8 8 0 0 0 120 72V8A8 8 0 0 0 112 0H16A8 8 0 0 0 8 8V72A8 8 0 0 0 16 80H112zM16 88A16 16 0 0 1 0 72V8A16 16 0 0 1 16 -8H112A16 16 0 0 1 128 8V72A16 16 0 0 1 112 88H16z" />
    <glyph glyph-name="badge-vr-fill"
      unicode="&#xE077;"
      horiz-adv-x="128" d="M77.384 56.536V41.032H85.648C90.928 41.032 94.192 43.56 94.192 48.632C94.192 53.752 90.816 56.536 85.792 56.536H77.392zM0 72A16 16 0 0 0 16 88H112A16 16 0 0 0 128 72V8A16 16 0 0 0 112 -8H16A16 16 0 0 0 0 8V72zM47.496 16L63.416 63.992H52.88L42.216 26.336H41.76L31 63.992H20L36.064 16H47.496zM68 63.992V16H77.384V33.896H85.896L94.296 16H104.912L95.28 35.336C99.64 37.016 104 41.768 104 48.8C104 57.976 97.816 64 87.16 64H68z" />
    <glyph glyph-name="badge-vr"
      unicode="&#xE078;"
      horiz-adv-x="128" d="M112 80A8 8 0 0 0 120 72V8A8 8 0 0 0 112 0H16A8 8 0 0 0 8 8V72A8 8 0 0 0 16 80H112zM16 88A16 16 0 0 1 0 72V8A16 16 0 0 1 16 -8H112A16 16 0 0 1 128 8V72A16 16 0 0 1 112 88H16zM36.064 16H47.496L63.416 63.992H52.88L42.216 26.336H41.76L31 63.992H20L36.064 16zM87.16 63.992H68V16H77.384V33.896H85.896L94.296 16H104.912L95.28 35.336C99.64 37.016 104 41.768 104 48.8C104 57.976 97.816 64 87.16 64zM77.384 41.032V56.536H85.784C90.824 56.536 94.184 53.76 94.184 48.624C94.184 43.56 90.92 41.024 85.648 41.024H77.384z" />
    <glyph glyph-name="badge-wc-fill"
      unicode="&#xE079;"
      horiz-adv-x="128" d="M0 72A16 16 0 0 0 16 88H112A16 16 0 0 0 128 72V8A16 16 0 0 0 112 -8H16A16 16 0 0 0 0 8V72zM93.328 56.88C98.784 56.88 102.44 53.12 102.824 48.024H112V48.904C111.576 58.4 103.808 64.904 93.264 64.904C80.432 64.904 73.12 56.504 73.12 42.896V36.92C73.12 23.32 80.36 15.08 93.264 15.08C103.776 15.08 111.544 21.416 112 30.592V31.504H102.824C102.44 26.584 98.848 23.104 93.328 23.104C86.616 23.104 82.784 28.064 82.784 36.92V42.856C82.784 51.752 86.688 56.888 93.328 56.888zM43.824 49.472H44.176L52.336 16H60.384L72 63.992H62.544L55.984 29.152H55.536L47.76 63.992H40.24L32.464 29.152H32.04L25.424 63.992H16L27.616 16H35.656L43.816 49.472z" />
    <glyph glyph-name="badge-wc"
      unicode="&#xE07A;"
      horiz-adv-x="128" d="M82.784 42.856C82.784 51.752 86.688 56.888 93.328 56.888C98.784 56.888 102.44 53.128 102.824 48.024H112V48.904C111.576 58.4 103.808 64.904 93.264 64.904C80.432 64.904 73.12 56.504 73.12 42.896V36.92C73.12 23.32 80.36 15.08 93.264 15.08C103.776 15.08 111.544 21.416 112 30.592V31.504H102.824C102.44 26.584 98.848 23.104 93.328 23.104C86.616 23.104 82.784 28.064 82.784 36.92V42.856zM35.656 16L43.816 49.472H44.176L52.336 16H60.384L72 63.992H62.544L55.984 29.152H55.536L47.76 63.992H40.24L32.464 29.152H32.04L25.424 63.992H16L27.616 16H35.656zM112 80A8 8 0 0 0 120 72V8A8 8 0 0 0 112 0H16A8 8 0 0 0 8 8V72A8 8 0 0 0 16 80H112zM16 88A16 16 0 0 1 0 72V8A16 16 0 0 1 16 -8H112A16 16 0 0 1 128 8V72A16 16 0 0 1 112 88H16z" />
    <glyph glyph-name="bag-check-fill"
      unicode="&#xE07B;"
      horiz-adv-x="128" d="M84 76A20 20 0 0 1 44 76V72H84V76zM92 76V72H120V-8A16 16 0 0 0 104 -24H24A16 16 0 0 0 8 -8V72H36V76A28 28 0 1 0 92 76zM86.832 33.168A4 4 0 0 1 81.168 38.832L60 17.656L50.832 26.832A4 4 0 1 1 45.168 21.168L57.168 9.168A4 4 0 0 1 62.832 9.168L86.832 33.168z" />
    <glyph glyph-name="bag-check"
      unicode="&#xE07C;"
      horiz-adv-x="128" d="M86.832 38.832A4 4 0 0 0 86.832 33.168L62.832 9.168A4 4 0 0 0 57.168 9.168L45.168 21.168A4 4 0 0 0 50.832 26.832L60 17.656L81.168 38.832A4 4 0 0 0 86.832 38.832zM64 96A20 20 0 0 0 84 76V72H44V76A20 20 0 0 0 64 96zM92 72V76A28 28 0 1 1 36 76V72H8V-8A16 16 0 0 1 24 -24H104A16 16 0 0 1 120 -8V72H92zM16 64H112V-8A8 8 0 0 0 104 -16H24A8 8 0 0 0 16 -8V64z" />
    <glyph glyph-name="bag-dash-fill"
      unicode="&#xE07D;"
      horiz-adv-x="128" d="M84 76A20 20 0 0 1 44 76V72H84V76zM92 76V72H120V-8A16 16 0 0 0 104 -24H24A16 16 0 0 0 8 -8V72H36V76A28 28 0 1 0 92 76zM48 28A4 4 0 0 1 48 20H80A4 4 0 0 1 80 28H48z" />
    <glyph glyph-name="bag-dash"
      unicode="&#xE07E;"
      horiz-adv-x="128" d="M44 24A4 4 0 0 0 48 28H80A4 4 0 0 0 80 20H48A4 4 0 0 0 44 24zM64 96A20 20 0 0 0 84 76V72H44V76A20 20 0 0 0 64 96zM92 72V76A28 28 0 1 1 36 76V72H8V-8A16 16 0 0 1 24 -24H104A16 16 0 0 1 120 -8V72H92zM16 64H112V-8A8 8 0 0 0 104 -16H24A8 8 0 0 0 16 -8V64z" />
    <glyph glyph-name="bag-fill"
      unicode="&#xE07F;"
      horiz-adv-x="128" d="M64 96A20 20 0 0 0 84 76V72H44V76A20 20 0 0 0 64 96zM92 72V76A28 28 0 1 1 36 76V72H8V-8A16 16 0 0 1 24 -24H104A16 16 0 0 1 120 -8V72H92z" />
    <glyph glyph-name="bag-heart-fill"
      unicode="&#xE080;"
      horiz-adv-x="128" d="M92 72V76A28 28 0 1 1 36 76V72H8V-8A16 16 0 0 1 24 -24H104A16 16 0 0 1 120 -8V72H92zM64 96A20 20 0 0 0 84 76V72H44V76A20 20 0 0 0 64 96zM64 40.056C77.312 53.744 110.6 29.792 64 -1C17.4 29.8 50.688 53.744 64 40.056z" />
    <glyph glyph-name="bag-heart"
      unicode="&#xE081;"
      horiz-adv-x="128" d="M84 76A20 20 0 0 1 44 76V72H84V76zM92 76V72H120V-8A16 16 0 0 0 104 -24H24A16 16 0 0 0 8 -8V72H36V76A28 28 0 1 0 92 76zM112 -8V64H16V-8A8 8 0 0 1 24 -16H104A8 8 0 0 1 112 -8zM64 40.056C77.312 53.744 110.6 29.792 64 -1C17.4 29.8 50.688 53.744 64 40.056z" />
    <glyph glyph-name="bag-plus-fill"
      unicode="&#xE082;"
      horiz-adv-x="128" d="M84 76A20 20 0 0 1 44 76V72H84V76zM92 76V72H120V-8A16 16 0 0 0 104 -24H24A16 16 0 0 0 8 -8V72H36V76A28 28 0 1 0 92 76zM68 40A4 4 0 0 1 60 40V28H48A4 4 0 0 1 48 20H60V8A4 4 0 0 1 68 8V20H80A4 4 0 0 1 80 28H68V40z" />
    <glyph glyph-name="bag-plus"
      unicode="&#xE083;"
      horiz-adv-x="128" d="M64 44A4 4 0 0 0 68 40V28H80A4 4 0 0 0 80 20H68V8A4 4 0 0 0 60 8V20H48A4 4 0 0 0 48 28H60V40A4 4 0 0 0 64 44zM64 96A20 20 0 0 0 84 76V72H44V76A20 20 0 0 0 64 96zM92 72V76A28 28 0 1 1 36 76V72H8V-8A16 16 0 0 1 24 -24H104A16 16 0 0 1 120 -8V72H92zM16 64H112V-8A8 8 0 0 0 104 -16H24A8 8 0 0 0 16 -8V64z" />
    <glyph glyph-name="bag-x-fill"
      unicode="&#xE084;"
      horiz-adv-x="128" d="M84 76A20 20 0 0 1 44 76V72H84V76zM92 76V72H120V-8A16 16 0 0 0 104 -24H24A16 16 0 0 0 8 -8V72H36V76A28 28 0 1 0 92 76zM54.832 38.832A4 4 0 1 1 49.168 33.168L58.344 24L49.168 14.832A4 4 0 0 1 54.832 9.168L64 18.344L73.168 9.168A4 4 0 0 1 78.832 14.832L69.656 24L78.832 33.168A4 4 0 0 1 73.168 38.832L64 29.656L54.832 38.832z" />
    <glyph glyph-name="bag-x"
      unicode="&#xE085;"
      horiz-adv-x="128" d="M49.168 38.832A4 4 0 0 0 54.832 38.832L64 29.656L73.168 38.832A4 4 0 1 0 78.832 33.168L69.656 24L78.832 14.832A4 4 0 0 0 73.168 9.168L64 18.344L54.832 9.168A4 4 0 0 0 49.168 14.832L58.344 24L49.168 33.168A4 4 0 0 0 49.168 38.832zM64 96A20 20 0 0 0 84 76V72H44V76A20 20 0 0 0 64 96zM92 72V76A28 28 0 1 1 36 76V72H8V-8A16 16 0 0 1 24 -24H104A16 16 0 0 1 120 -8V72H92zM16 64H112V-8A8 8 0 0 0 104 -16H24A8 8 0 0 0 16 -8V64z" />
    <glyph glyph-name="bag"
      unicode="&#xE086;"
      horiz-adv-x="128" d="M64 96A20 20 0 0 0 84 76V72H44V76A20 20 0 0 0 64 96zM92 72V76A28 28 0 1 1 36 76V72H8V-8A16 16 0 0 1 24 -24H104A16 16 0 0 1 120 -8V72H92zM16 64H112V-8A8 8 0 0 0 104 -16H24A8 8 0 0 0 16 -8V64z" />
    <glyph glyph-name="balloon-fill"
      unicode="&#xE087;"
      horiz-adv-x="128" d="M67.84 16.792C89.688 22.184 104 41.304 104 64A40 40 0 0 1 24 64C24 41.304 38.312 22.184 60.16 16.792L58.208 12.896A2 2 0 1 1 61.792 11.104L62.112 11.744C62.184 10.384 62.304 9.224 62.52 8.144C63.064 5.392 64.184 3.168 66.104 -0.672L66.208 -0.896C67.904 -4.272 67.664 -7.696 66.608 -10.864C65.528 -14.08 63.68 -16.872 62.336 -18.888A2 2 0 0 1 65.664 -21.112L65.696 -21.056C67.024 -19.072 69.144 -15.888 70.4 -12.136C71.68 -8.304 72.096 -3.728 69.792 0.896C67.728 5.016 66.872 6.752 66.44 8.928A19.008 19.008 0 0 0 66.144 11.24L66.208 11.104A2 2 0 1 1 69.792 12.896L67.84 16.792zM34.816 77.152A32.032 32.032 0 0 0 60.016 95.752C62.192 96.024 64 94.208 64 92C64 89.792 62.192 88.032 60.016 87.664C52.416 86.368 46.024 81.424 42.632 74.728A4.76 4.76 0 0 0 38.472 72C35.704 72 33.68 74.632 34.816 77.152z" />
    <glyph glyph-name="balloon-heart-fill"
      unicode="&#xE088;"
      horiz-adv-x="128" d="M67.92 16.64C155.296 76.944 90.24 123.096 64 96.112C37.752 123.096 -27.304 76.944 60.08 16.64L58.208 12.896A2 2 0 1 1 61.792 11.104L62.112 11.744C62.184 10.384 62.304 9.224 62.52 8.144C63.064 5.392 64.184 3.168 66.104 -0.672L66.208 -0.896C67.904 -4.272 67.664 -7.696 66.608 -10.864C65.528 -14.08 63.68 -16.872 62.336 -18.888A2 2 0 0 1 65.664 -21.112L65.696 -21.056C67.024 -19.072 69.144 -15.888 70.4 -12.136C71.68 -8.304 72.096 -3.728 69.792 0.896C67.728 5.016 66.872 6.752 66.44 8.928A19.008 19.008 0 0 0 66.144 11.24L66.208 11.104A2 2 0 1 1 69.792 12.896L67.912 16.64zM53.808 93.848C44.472 98.728 31.408 94.984 26.176 84.768C24.28 81.064 23.296 76.128 24.56 69.968C25 67.808 28.296 68.392 28.776 70.536C31.056 80.584 38.192 90.232 52.688 90.76C54.56 90.824 55.472 92.984 53.808 93.848z" />
    <glyph glyph-name="balloon-heart"
      unicode="&#xE089;"
      horiz-adv-x="128" d="M64 84.64L58.264 90.536C49.224 99.824 32.32 96.752 26.184 84.776C23.384 79.296 22.576 71.12 28.072 60.28C33.28 49.976 44.16 37.44 64 23.664C83.832 37.448 94.712 49.984 99.928 60.28C105.424 71.12 104.624 79.296 101.816 84.768C95.68 96.752 78.776 99.824 69.736 90.536L64 84.64zM60.08 16.64C-26.16 76.16 36.08 121.88 62.952 97.144C63.312 96.816 63.664 96.472 64.008 96.112C64.352 96.472 64.704 96.816 65.064 97.144C91.944 121.88 154.16 76.152 67.92 16.64L69.8 12.896A2 2 0 1 0 66.216 11.104L66.152 11.24C66.216 10.36 66.312 9.624 66.448 8.92C66.88 6.76 67.736 5.016 69.8 0.896C72.104 -3.728 71.68 -8.304 70.408 -12.136C69.152 -15.888 67.032 -19.072 65.704 -21.056L65.672 -21.112A2 2 0 1 0 62.344 -18.888C63.688 -16.872 65.544 -14.088 66.608 -10.864C67.672 -7.696 67.912 -4.272 66.216 -0.896L66.112 -0.672C64.192 3.168 63.072 5.392 62.528 8.144A25.416 25.416 0 0 0 62.112 11.744L61.792 11.104A2 2 0 1 0 58.216 12.896L60.096 16.64zM48.104 87.52C42.912 88.96 36.24 86.856 33.304 81.136C32.256 79.072 31.344 75.624 32.664 70.456C33.168 68.504 35.976 68.872 36.56 70.8C38.24 76.376 41.576 82.376 47.432 84.336C49.168 84.92 49.864 87.032 48.104 87.52z" />
    <glyph glyph-name="balloon"
      unicode="&#xE08A;"
      horiz-adv-x="128" d="M64 24.128C83.224 27.952 96 44.16 96 64A32 32 0 0 1 32 64C32 44.16 44.776 27.952 64 24.128zM104 64C104 41.304 89.688 22.184 67.84 16.792L69.792 12.896A2 2 0 1 0 66.208 11.104L66.144 11.24C66.208 10.36 66.304 9.624 66.44 8.92C66.872 6.76 67.728 5.016 69.792 0.896C72.096 -3.728 71.672 -8.304 70.4 -12.136C69.144 -15.888 67.024 -19.072 65.696 -21.056L65.664 -21.112A2 2 0 1 0 62.336 -18.888C63.68 -16.872 65.536 -14.088 66.6 -10.864C67.664 -7.696 67.904 -4.272 66.208 -0.896L66.104 -0.672C64.184 3.168 63.064 5.392 62.52 8.144A25.416 25.416 0 0 0 62.104 11.744L61.784 11.104A2 2 0 1 0 58.208 12.896L60.16 16.792C38.312 22.184 24 41.304 24 64A40 40 0 0 0 104 64zM48.496 67.96A16.024 16.024 0 0 0 60.04 79.504C62.184 80.048 64 81.792 64 84C64 86.208 62.192 88.032 60.016 87.672A24.024 24.024 0 0 1 40.336 67.984C39.968 65.808 41.792 64 44 64S47.952 65.816 48.496 67.96z" />
    <glyph glyph-name="bandaid-fill"
      unicode="&#xE08B;"
      horiz-adv-x="128" d="M21.44 42.592L73.36 94.624A32 32 0 0 0 118.64 49.4L106.824 37.168L66.776 -2.88L54.592 -14.656A32 32 0 0 0 9.368 30.624L9.376 30.64L21.416 42.576L21.424 42.592zM67.12 65.456A4 4 0 1 1 61.456 59.8A4 4 0 0 1 67.112 65.456zM55.792 48.488A4 4 0 1 1 50.136 54.144A4 4 0 0 1 55.792 48.488zM44.48 37.168A4 4 0 1 1 38.824 42.832A4 4 0 0 1 44.48 37.168zM67.104 14.544A4 4 0 1 1 61.448 20.2A4 4 0 0 1 67.104 14.544zM78.416 31.512A4 4 0 1 1 72.76 25.856A4 4 0 0 1 78.416 31.512zM89.728 37.168A4 4 0 1 1 84.08 42.832A4 4 0 0 1 89.736 37.168zM55.792 31.512A4 4 0 1 1 50.136 25.856A4 4 0 0 1 55.792 31.512zM67.104 37.168A4 4 0 1 1 61.448 42.832A4 4 0 0 1 67.104 37.168zM78.416 54.144A4 4 0 1 1 72.76 48.488A4 4 0 0 1 78.416 54.144zM69.168 77.168L101.168 45.168L106.832 50.832L74.832 82.832L69.168 77.168zM58.832 2.832L26.832 34.832L21.168 29.168L53.168 -2.832L58.832 2.832z" />
    <glyph glyph-name="bandaid"
      unicode="&#xE08C;"
      horiz-adv-x="128" d="M112.968 88.968A24 24 0 0 1 79.032 88.968L69.864 79.792L103.952 45.712L112.968 55.032A24 24 0 0 1 112.968 88.968zM98.344 40L64.216 74.128L29.904 39.752L64 5.656L98.344 40zM58.296 0.048L24.24 34.104L15.032 24.96A24 24 0 0 1 48.96 -8.96L49.008 -8.912L58.288 0.056zM21.432 42.592L73.368 94.624A32 32 0 0 0 118.648 49.4L106.832 37.168L66.784 -2.88L54.6 -14.656A32 32 0 0 0 9.376 30.624L9.384 30.64L21.424 42.576L21.432 42.592zM44.48 42.832A4 4 0 1 0 38.832 37.168A4 4 0 0 0 44.488 42.832zM55.8 54.144A4 4 0 1 0 50.144 48.488A4 4 0 0 0 55.8 54.144zM67.12 65.456A4 4 0 1 0 61.456 59.8A4 4 0 0 0 67.112 65.456zM67.12 20.2A4 4 0 1 0 61.456 14.544A4 4 0 0 0 67.112 20.2zM78.424 31.52A4 4 0 1 0 72.768 25.856A4 4 0 0 0 78.424 31.512zM89.736 42.832A4 4 0 1 0 84.088 37.168A4 4 0 0 0 89.744 42.832zM55.8 31.52A4 4 0 1 0 50.144 25.856A4 4 0 0 0 55.8 31.512zM67.12 42.832A4 4 0 1 0 61.456 37.168A4 4 0 0 0 67.112 42.832zM78.424 54.144A4 4 0 1 0 72.768 48.488A4 4 0 0 0 78.424 54.144z" />
    <glyph glyph-name="bank"
      unicode="&#xE08D;"
      horiz-adv-x="128" d="M64 104L116.88 80H124A4 4 0 0 0 128 76V60A4 4 0 0 0 124 56H120V0A4 4 0 0 0 123.88 -3.04L127.88 -19.04A3.984 3.984 0 0 0 124 -24H4A3.984 3.984 0 0 0 0.12 -19.04L4.12 -3.04A4.008 4.008 0 0 0 8 0V56H4A4 4 0 0 0 0 60V76A4 4 0 0 0 4 80H11.12L64 104zM30.216 80H97.792L64 96L30.216 80zM16 56V0H24V56H16zM32 56V0H52V56H32zM60 56V0H68V56H60zM76 56V0H96V56H76zM104 56V0H112V56H104zM120 64V72H8V64H120zM116.88 -8H11.12L9.12 -16H118.88L116.88 -8z" />
    <glyph glyph-name="bank2"
      unicode="&#xE08E;"
      horiz-adv-x="128" d="M66.216 103.328A4 4 0 0 1 61.784 103.328L1.784 63.328A4 4 0 0 1 4 56H19V0H12A4 4 0 0 1 12 -8H116A4 4 0 1 1 116 0H109V56H124A4 4 0 0 1 126.216 63.328L66.216 103.328zM99 56V0H89V56H99zM79 56V0H69V56H79zM59 56V0H49V56H59zM39 56V0H29V56H39zM64 72A8 8 0 1 0 64 88A8 8 0 0 0 64 72zM4 -16A4 4 0 0 1 4 -24H124A4 4 0 1 1 124 -16H4z" />
    <glyph glyph-name="bar-chart-fill"
      unicode="&#xE08F;"
      horiz-adv-x="128" d="M8 16A8 8 0 0 0 16 24H32A8 8 0 0 0 40 16V-8A8 8 0 0 0 32 -16H16A8 8 0 0 0 8 -8V16zM48 48A8 8 0 0 0 56 56H72A8 8 0 0 0 80 48V-8A8 8 0 0 0 72 -16H56A8 8 0 0 0 48 -8V48zM88 88A8 8 0 0 0 96 96H112A8 8 0 0 0 120 88V-8A8 8 0 0 0 112 -16H96A8 8 0 0 0 88 -8V88z" />
    <glyph glyph-name="bar-chart-line-fill"
      unicode="&#xE090;"
      horiz-adv-x="128" d="M88 88A8 8 0 0 0 96 96H112A8 8 0 0 0 120 88V-8H124A4 4 0 0 0 124 -16H4A4 4 0 0 0 4 -8H8V16A8 8 0 0 0 16 24H32A8 8 0 0 0 40 16V-8H48V48A8 8 0 0 0 56 56H72A8 8 0 0 0 80 48V-8H88V88z" />
    <glyph glyph-name="bar-chart-line"
      unicode="&#xE091;"
      horiz-adv-x="128" d="M88 88A8 8 0 0 0 96 96H112A8 8 0 0 0 120 88V-8H124A4 4 0 0 0 124 -16H4A4 4 0 0 0 4 -8H8V16A8 8 0 0 0 16 24H32A8 8 0 0 0 40 16V-8H48V48A8 8 0 0 0 56 56H72A8 8 0 0 0 80 48V-8H88V88zM96 -8H112V88H96V-8zM72 -8V48H56V-8H72zM32 -8V16H16V-8H32z" />
    <glyph glyph-name="bar-chart-steps"
      unicode="&#xE092;"
      horiz-adv-x="128" d="M4 104A4 4 0 0 0 8 100V-20A4 4 0 0 0 0 -20V100A4 4 0 0 0 4 104zM16 92A4 4 0 0 0 20 96H52A4 4 0 0 0 56 92V84A4 4 0 0 0 52 80H20A4 4 0 0 0 16 84V92zM32 60A4 4 0 0 0 36 64H92A4 4 0 0 0 96 60V52A4 4 0 0 0 92 48H36A4 4 0 0 0 32 52V60zM48 28A4 4 0 0 0 52 32H100A4 4 0 0 0 104 28V20A4 4 0 0 0 100 16H52A4 4 0 0 0 48 20V28zM64 -4A4 4 0 0 0 68 0H124A4 4 0 0 0 128 -4V-12A4 4 0 0 0 124 -16H68A4 4 0 0 0 64 -12V-4z" />
    <glyph glyph-name="bar-chart"
      unicode="&#xE093;"
      horiz-adv-x="128" d="M32 16H16V-8H32V16zM72 48H56V-8H72V48zM112 88V-8H96V88H112zM96 96A8 8 0 0 1 88 88V-8A8 8 0 0 1 96 -16H112A8 8 0 0 1 120 -8V88A8 8 0 0 1 112 96H96zM48 48A8 8 0 0 0 56 56H72A8 8 0 0 0 80 48V-8A8 8 0 0 0 72 -16H56A8 8 0 0 0 48 -8V48zM8 16A8 8 0 0 0 16 24H32A8 8 0 0 0 40 16V-8A8 8 0 0 0 32 -16H16A8 8 0 0 0 8 -8V16z" />
    <glyph glyph-name="basket-fill"
      unicode="&#xE094;"
      horiz-adv-x="128" d="M40.568 94.056A4 4 0 0 0 47.432 89.944L27.064 56H100.936L80.56 89.944A4 4 0 1 0 87.424 94.056L110.264 56H124A4 4 0 0 0 128 52V36A4 4 0 0 0 124 32H120V-8A16 16 0 0 0 104 -24H24A16 16 0 0 0 8 -8V32H4A4 4 0 0 0 0 36V52A4 4 0 0 0 4 56H17.736L40.56 94.056zM28 20A4 4 0 1 1 20 20V-4A4 4 0 0 1 28 -4V20zM48 20A4 4 0 1 1 40 20V-4A4 4 0 0 1 48 -4V20zM68 20A4 4 0 1 1 60 20V-4A4 4 0 0 1 68 -4V20zM88 20A4 4 0 1 1 80 20V-4A4 4 0 0 1 88 -4V20zM108 20A4 4 0 1 1 100 20V-4A4 4 0 0 1 108 -4V20z" />
    <glyph glyph-name="basket"
      unicode="&#xE095;"
      horiz-adv-x="128" d="M46.056 95.432A4 4 0 0 0 47.432 89.944L27.064 56H100.936L80.56 89.944A4 4 0 1 0 87.424 94.056L110.264 56H120A8 8 0 0 0 128 48V40A8 8 0 0 0 120 32V-4A20 20 0 0 0 100 -24H28A20 20 0 0 0 8 -4V32A8 8 0 0 0 0 40V48A8 8 0 0 0 8 56H17.736L40.56 94.056A4 4 0 0 0 46.048 95.432zM16 32V-4A12 12 0 0 1 28 -16H100A12 12 0 0 1 112 -4V32H16zM8 48V40H120V48H8zM32 24A4 4 0 0 0 36 20V-4A4 4 0 0 0 28 -4V20A4 4 0 0 0 32 24zM48 24A4 4 0 0 0 52 20V-4A4 4 0 0 0 44 -4V20A4 4 0 0 0 48 24zM64 24A4 4 0 0 0 68 20V-4A4 4 0 0 0 60 -4V20A4 4 0 0 0 64 24zM80 24A4 4 0 0 0 84 20V-4A4 4 0 0 0 76 -4V20A4 4 0 0 0 80 24zM96 24A4 4 0 0 0 100 20V-4A4 4 0 0 0 92 -4V20A4 4 0 0 0 96 24z" />
    <glyph glyph-name="basket2-fill"
      unicode="&#xE096;"
      horiz-adv-x="128" d="M47.432 89.944A4 4 0 1 1 40.568 94.056L17.736 56H4A4 4 0 0 1 0 52V44A4 4 0 0 1 4 40H8.984L23.736 -11.648A6 6 0 0 1 29.52 -16H98.496A6 6 0 0 1 104.272 -11.648L119.016 40H124A4 4 0 0 1 128 44V52A4 4 0 0 1 124 56H110.264L87.44 94.056A4 4 0 1 1 80.576 89.944L100.936 56H27.064L47.44 89.944zM32 24A8 8 0 0 0 48 24V8A8 8 0 1 0 32 8V24zM56 24A8 8 0 0 0 72 24V8A8 8 0 1 0 56 8V24zM88 32A8 8 0 0 0 96 24V8A8 8 0 1 0 80 8V24A8 8 0 0 0 88 32z" />
    <glyph glyph-name="basket2"
      unicode="&#xE097;"
      horiz-adv-x="128" d="M32 24A8 8 0 0 0 48 24V8A8 8 0 0 0 32 8V24zM56 24A8 8 0 0 0 72 24V8A8 8 0 0 0 56 8V24zM80 24A8 8 0 1 0 96 24V8A8 8 0 0 0 80 8V24zM46.056 95.432A4 4 0 0 0 47.432 89.944L27.064 56H100.936L80.56 89.944A4 4 0 1 0 87.424 94.056L110.264 56H124A4 4 0 0 0 128 52V44A4 4 0 0 0 124 40H119.016L104.264 -11.648A6 6 0 0 0 98.488 -16H29.52A6 6 0 0 0 23.744 -11.648L8.984 40H4A4 4 0 0 0 0 44V52A4 4 0 0 0 4 56H17.736L40.56 94.056A4 4 0 0 0 46.048 95.432zM17.304 40L31.016 -8H96.984L110.696 40H17.304z" />
    <glyph glyph-name="basket3-fill"
      unicode="&#xE098;"
      horiz-adv-x="128" d="M46.056 95.432A4 4 0 0 0 47.432 89.944L27.064 56H100.936L80.56 89.944A4 4 0 1 0 87.424 94.056L110.264 56H124A4 4 0 0 0 128 52V44A4 4 0 0 0 124 40H4A4 4 0 0 0 0 44V52A4 4 0 0 0 4 56H17.736L40.56 94.056A4 4 0 0 0 46.048 95.432zM19.744 -19.408L7.544 32H120.456L108.256 -19.408A6 6 0 0 0 102.424 -24H25.576A6 6 0 0 0 19.736 -19.408z" />
    <glyph glyph-name="basket3"
      unicode="&#xE099;"
      horiz-adv-x="128" d="M46.056 95.432A4 4 0 0 0 47.432 89.944L27.064 56H100.936L80.56 89.944A4 4 0 1 0 87.424 94.056L110.264 56H124A4 4 0 0 0 128 52V44A4 4 0 0 0 124 40H4A4 4 0 0 0 0 44V52A4 4 0 0 0 4 56H17.736L40.56 94.056A4 4 0 0 0 46.048 95.432zM27.152 -16L15.312 32H7.552L19.752 -19.408A6 6 0 0 1 25.584 -24H102.432A6 6 0 0 1 108.272 -19.408L120.448 32H112.672L100.84 -16H27.16z" />
    <glyph glyph-name="battery-charging"
      unicode="&#xE09A;"
      horiz-adv-x="128" d="M76.68 83.456A4 4 0 0 0 78.488 78.816L69.416 49.344H85.336A4 4 0 0 0 88.248 42.6L45.576 -2.736A4 4 0 0 0 38.84 1.184L47.92 30.664H32A4 4 0 0 0 29.088 37.408L71.752 82.744A4 4 0 0 0 76.68 83.464zM16 72H50.656L43.136 64H16A8 8 0 0 1 8 56V24A8 8 0 0 1 16 16H35.04L32.576 8H16A16 16 0 0 0 0 24V56A16 16 0 0 0 16 72zM16 56H35.6L23.264 42.888A12 12 0 0 1 26.504 24H16V56zM84.76 72L82.296 64H96A8 8 0 0 0 104 56V24A8 8 0 0 0 96 16H74.208L66.672 8H96A16 16 0 0 1 112 24V56A16 16 0 0 1 96 72H84.76zM96 24H81.736L94.072 37.112C94.848 37.936 95.496 38.856 96 39.832V24zM96 50.832V56H90.832A12 12 0 0 0 96 50.832zM128 40A12 12 0 0 0 116 28V52A12 12 0 0 0 128 40z" />
    <glyph glyph-name="battery-full"
      unicode="&#xE09B;"
      horiz-adv-x="128" d="M16 56H96V24H16V56zM16 72A16 16 0 0 1 0 56V24A16 16 0 0 1 16 8H96A16 16 0 0 1 112 24V56A16 16 0 0 1 96 72H16zM96 64A8 8 0 0 0 104 56V24A8 8 0 0 0 96 16H16A8 8 0 0 0 8 24V56A8 8 0 0 0 16 64H96zM128 40A12 12 0 0 0 116 28V52A12 12 0 0 0 128 40z" />
    <glyph glyph-name="battery-half"
      unicode="&#xE09C;"
      horiz-adv-x="128" d="M16 56H56V24H16V56zM16 72A16 16 0 0 1 0 56V24A16 16 0 0 1 16 8H96A16 16 0 0 1 112 24V56A16 16 0 0 1 96 72H16zM96 64A8 8 0 0 0 104 56V24A8 8 0 0 0 96 16H16A8 8 0 0 0 8 24V56A8 8 0 0 0 16 64H96zM128 40A12 12 0 0 0 116 28V52A12 12 0 0 0 128 40z" />
    <glyph glyph-name="battery"
      unicode="&#xE09D;"
      horiz-adv-x="128" d="M0 56A16 16 0 0 0 16 72H96A16 16 0 0 0 112 56V24A16 16 0 0 0 96 8H16A16 16 0 0 0 0 24V56zM16 64A8 8 0 0 1 8 56V24A8 8 0 0 1 16 16H96A8 8 0 0 1 104 24V56A8 8 0 0 1 96 64H16zM128 40A12 12 0 0 0 116 28V52A12 12 0 0 0 128 40z" />
    <glyph glyph-name="behance"
      unicode="&#xE09E;"
      horiz-adv-x="128" d="M37.232 80C40.92 80 44.328 79.72 47.456 78.88C50.576 78.32 53.144 77.152 55.424 75.752C57.712 74.344 59.4 72.344 60.552 69.776C61.672 67.216 62.28 64.088 62.28 60.68C62.28 56.712 61.432 53.304 59.432 50.744C57.712 48.184 54.904 45.896 51.456 44.208C56.304 42.8 59.992 40.24 62.24 36.832C64.488 33.424 65.928 29.176 65.928 24.328C65.928 20.36 65.088 16.952 63.648 14.104A18.536 18.536 0 0 0 57.392 7.008C54.832 5.288 51.704 3.888 48.296 3.04A42.632 42.632 0 0 0 38.072 1.632L0 1.576V80H37.232zM34.952 48.176C38.072 48.176 40.632 49.016 42.608 50.456C44.576 51.896 45.448 54.432 45.448 57.552C45.448 59.28 45.168 60.96 44.608 62.088A7.848 7.848 0 0 1 42.048 64.928A14.72 14.72 0 0 1 38.36 66.336C36.952 66.616 35.512 66.616 33.824 66.616H17.36V48.136C17.36 48.176 34.96 48.176 34.96 48.176zM35.792 14.632C37.512 14.632 39.2 14.912 40.64 15.192C42.048 15.472 43.488 16.04 44.608 16.92S46.608 18.64 47.456 20.04C48.016 21.448 48.576 23.168 48.576 25.168C48.576 29.136 47.456 31.984 45.168 33.984C42.888 35.704 39.76 36.544 36.072 36.544H17.36V14.672H35.8V14.632zM90.656 14.912C92.944 12.632 96.344 11.504 100.88 11.504C104 11.504 106.848 12.352 109.136 13.792C111.416 15.512 112.816 17.2 113.376 18.912H127.296C125.008 12.104 121.6 7.256 117.072 4.128C112.544 1.288 107.128 -0.4 100.592 -0.4A33.08 33.08 0 0 0 88.376 1.88A22.616 22.616 0 0 0 79.28 8.136A22.808 22.808 0 0 0 73.584 17.512C72.184 21.2 71.584 25.168 71.584 29.736C71.584 33.984 72.144 37.992 73.584 41.68C75.024 45.36 76.992 48.496 79.56 51.336C82.12 53.896 85.248 56.184 88.656 57.592A32.144 32.144 0 0 0 100.6 59.872C105.448 59.872 109.696 59.032 113.384 57.032C117.064 55.032 119.92 52.776 122.2 49.368C124.48 46.248 126.168 42.56 127.328 38.584C127.888 34.616 128.168 30.616 127.888 26.08H86.688C86.688 21.44 88.368 17.2 90.656 14.912zM108.576 44.768C106.576 46.768 103.44 47.896 99.752 47.896C97.192 47.896 95.224 47.336 93.504 46.488C91.784 45.648 90.656 44.488 89.536 43.368A7.656 7.656 0 0 1 87.536 39.392C87.248 37.992 86.976 36.832 86.976 35.712H112.544C111.984 39.92 110.544 42.768 108.568 44.768zM83.56 74.592H115.384V66.936H83.56V74.592z" />
    <glyph glyph-name="bell-fill"
      unicode="&#xE09F;"
      horiz-adv-x="128" d="M64 -24A16 16 0 0 1 80 -8H48A16 16 0 0 1 64 -24zM71.96 95.208A8 8 0 1 1 56.04 95.208A40.016 40.016 0 0 1 24 56C24 47.216 20 8 8 0H120C108 8 104 47.216 104 56C104 75.36 90.24 91.52 71.96 95.208z" />
    <glyph glyph-name="bell-slash-fill"
      unicode="&#xE0A0;"
      horiz-adv-x="128" d="M41.312 -8H120C108 0 104 39.216 104 48C104 50.112 103.84 52.184 103.52 54.208L41.312 -8zM91.616 76.936A39.904 39.904 0 0 1 71.96 87.2A8 8 0 1 1 56.04 87.2A40.016 40.016 0 0 1 24 48C24 40.816 21.32 13.264 13.776 -0.904L91.616 76.936zM80 -16A16 16 0 1 0 48 -16H80zM5 -21A4.24 4.24 0 0 1 11 -27L129 91A4.24 4.24 0 0 1 123 97L5 -21z" />
    <glyph glyph-name="bell-slash"
      unicode="&#xE0A1;"
      horiz-adv-x="128" d="M41.312 -8H120C117.608 -6.408 115.544 -3.576 113.76 0C106.56 14.4 104 40.96 104 48C104 50.112 103.84 52.184 103.52 54.208L96.016 46.704C96.176 41.04 97.272 29.472 99.672 18.064C100.96 11.928 102.688 5.536 104.976 0H49.312L41.312 -8zM85.96 71.28A31.888 31.888 0 0 1 70.376 79.36L64 80.664L57.624 79.376A32.016 32.016 0 0 1 32 48C32 42.976 30.928 30.424 28.328 18.064C27.928 16.16 27.488 14.232 27 12.32L13.776 -0.904C13.936 -0.608 14.096 -0.312 14.248 0C21.432 14.4 24 40.96 24 48C24 67.36 37.76 83.52 56.04 87.208A8 8 0 1 0 71.96 87.208C79.496 85.688 86.264 82.048 91.616 76.936L85.96 71.28zM80 -16A16 16 0 1 0 48 -16H80zM5 -21A4.24 4.24 0 0 1 11 -27L129 91A4.24 4.24 0 0 1 123 97L5 -21z" />
    <glyph glyph-name="bell"
      unicode="&#xE0A2;"
      horiz-adv-x="128" d="M64 -24A16 16 0 0 1 80 -8H48A16 16 0 0 1 64 -24zM64 88.656L57.624 87.368A32.016 32.016 0 0 1 32 56C32 50.976 30.928 38.424 28.328 26.064C27.048 19.928 25.32 13.536 23.024 8H104.976C102.68 13.536 100.96 19.92 99.672 26.064C97.072 38.424 96 50.976 96 56A32.016 32.016 0 0 1 70.376 87.36L64 88.664zM113.76 8C115.544 4.424 117.608 1.592 120 0H8C10.392 1.592 12.456 4.424 14.24 8C21.44 22.4 24 48.96 24 56C24 75.36 37.76 91.52 56.04 95.208A8 8 0 1 0 71.96 95.208A40.016 40.016 0 0 0 104 56C104 48.96 106.56 22.4 113.76 8z" />
    <glyph glyph-name="bezier"
      unicode="&#xE0A3;"
      horiz-adv-x="128" d="M0 20A12 12 0 0 0 12 32H20A12 12 0 0 0 32 20V12A12 12 0 0 0 20 0H12A12 12 0 0 0 0 12V20zM12 24A4 4 0 0 1 8 20V12A4 4 0 0 1 12 8H20A4 4 0 0 1 24 12V20A4 4 0 0 1 20 24H12zM96 20A12 12 0 0 0 108 32H116A12 12 0 0 0 128 20V12A12 12 0 0 0 116 0H108A12 12 0 0 0 96 12V20zM108 24A4 4 0 0 1 104 20V12A4 4 0 0 1 108 8H116A4 4 0 0 1 120 12V20A4 4 0 0 1 116 24H108zM48 68A12 12 0 0 0 60 80H68A12 12 0 0 0 80 68V60A12 12 0 0 0 68 48H60A12 12 0 0 0 48 60V68zM60 72A4 4 0 0 1 56 68V60A4 4 0 0 1 60 56H68A4 4 0 0 1 72 60V68A4 4 0 0 1 68 72H60zM48 68H14.928A8 8 0 1 1 14.928 60H36.272A52.136 52.136 0 0 1 14.512 32H20C20.984 32 21.952 31.88 22.864 31.656A44.136 44.136 0 0 0 48.344 57.136A12.024 12.024 0 0 0 48 60V68zM79.656 57.136A12 12 0 0 1 80 60V68H113.072A8 8 0 1 0 113.072 60H91.728A52.136 52.136 0 0 0 113.488 32H108C107.016 32 106.056 31.88 105.136 31.656A44.136 44.136 0 0 1 79.656 57.136z" />
    <glyph glyph-name="bezier2"
      unicode="&#xE0A4;"
      horiz-adv-x="128" d="M8 84A12 12 0 0 0 20 96H28A12 12 0 0 0 40 84H73.072A8 8 0 1 0 73.072 76H56.992C58.432 74.56 59.712 72.952 60.864 71.16C65.968 63.224 68 52.328 68 40C68 24.056 70.056 15.264 73.704 10.4C76.552 6.592 80.864 4.632 88 4.128A12 12 0 0 0 100 16H108A12 12 0 0 0 120 4V-4A12 12 0 0 0 108 -16H100A12 12 0 0 0 88 -4H54.928A8 8 0 1 0 54.928 4H68.616A22.712 22.712 0 0 0 67.296 5.6C61.944 12.744 60 23.944 60 40C60 51.68 58.032 60.776 54.136 66.84C51.016 71.68 46.52 74.84 40 75.736A12 12 0 0 0 28 64H20A12 12 0 0 0 8 76V84zM20 88A4 4 0 0 1 16 84V76A4 4 0 0 1 20 72H28A4 4 0 0 1 32 76V84A4 4 0 0 1 28 88H20zM100 8A4 4 0 0 1 96 4V-4A4 4 0 0 1 100 -8H108A4 4 0 0 1 112 -4V4A4 4 0 0 1 108 8H100z" />
    <glyph glyph-name="bicycle"
      unicode="&#xE0A5;"
      horiz-adv-x="128" d="M32 68A4 4 0 0 0 36 72H48A4 4 0 0 0 48 64V60H81.12L84.208 69.264A4 4 0 0 0 88 72H96A4 4 0 0 0 96 64H90.88L88.392 56.52L94.848 46.2A24 24 0 1 0 88.064 41.96L84 48.456L67.392 21.88A4 4 0 0 0 64 20H47.672A24 24 0 1 0 33.152 46.192L40 57.152V64H36A4 4 0 0 0 32 68zM44 48.456L39.936 41.944C43.936 38.392 46.736 33.512 47.672 28H56.784L44 48.456zM64 31.544L76.784 52H51.216L64 31.544zM39.496 28A15.976 15.976 0 0 1 35.6 35.016L31.216 28H39.496zM28.824 39.264A16 16 0 1 1 39.496 20H24A4 4 0 0 0 20.608 26.12L28.824 39.264zM92.4 35.024A16 16 0 1 1 99.184 39.264L107.392 26.12A4 4 0 1 0 100.608 21.88L92.4 35.016z" />
    <glyph glyph-name="binoculars-fill"
      unicode="&#xE0A6;"
      horiz-adv-x="128" d="M36 96A12 12 0 0 1 24 84V80H56V84A12 12 0 0 1 44 96H36zM56 72V64H72V72H104V64.944A4 4 0 0 1 106.208 61.368L113.368 57.792A12 12 0 0 0 120 47.056V0H72V12A4 4 0 0 0 73.168 14.832L80 21.656V28A4 4 0 0 1 76 32H52A4 4 0 0 1 48 28V21.656L54.832 14.832A4 4 0 0 0 56 12V0H8V47.056A12 12 0 0 0 14.64 57.792L21.792 61.368A4 4 0 0 1 24 64.944V72H56zM8 -8V-12A12 12 0 0 1 20 -24H44A12 12 0 0 1 56 -12V-8H8zM72 -8V-12A12 12 0 0 1 84 -24H108A12 12 0 0 1 120 -12V-8H72zM104 80H72V84A12 12 0 0 0 84 96H92A12 12 0 0 0 104 84V80z" />
    <glyph glyph-name="binoculars"
      unicode="&#xE0A7;"
      horiz-adv-x="128" d="M24 84A12 12 0 0 0 36 96H44A12 12 0 0 0 56 84V64H72V84A12 12 0 0 0 84 96H92A12 12 0 0 0 104 84V64.944A4 4 0 0 1 106.208 61.368L113.368 57.792A12 12 0 0 0 120 47.056V-12A12 12 0 0 0 108 -24H84A12 12 0 0 0 72 -12V12A4 4 0 0 0 73.168 14.832L80 21.656V28A4 4 0 0 1 76 32H52A4 4 0 0 1 48 28V21.656L54.832 14.832A4 4 0 0 0 56 12V-12A12 12 0 0 0 44 -24H20A12 12 0 0 0 8 -12V47.056A12 12 0 0 0 14.64 57.792L21.792 61.368A4 4 0 0 1 24 64.944V84zM36 88A4 4 0 0 1 32 84V80H48V84A4 4 0 0 1 44 88H36zM48 72H32V64.944A12 12 0 0 0 25.36 54.208L18.208 50.632A4 4 0 0 1 16 47.056V0H48V10.344L41.168 17.168A4 4 0 0 0 40 20V28A12 12 0 0 0 52 40H76A12 12 0 0 0 88 28V20A4 4 0 0 0 86.832 17.168L80 10.344V0H112V47.056A4 4 0 0 1 109.792 50.632L102.632 54.208A12 12 0 0 0 96 64.944V72H80V60A4 4 0 0 0 76 56H52A4 4 0 0 0 48 60V72zM80 80H96V84A4 4 0 0 1 92 88H84A4 4 0 0 1 80 84V80zM112 -8H80V-12A4 4 0 0 1 84 -16H108A4 4 0 0 1 112 -12V-8zM48 -8H16V-12A4 4 0 0 1 20 -16H44A4 4 0 0 1 48 -12V-8z" />
    <glyph glyph-name="blockquote-left"
      unicode="&#xE0A8;"
      horiz-adv-x="128" d="M20 80A4 4 0 0 1 20 72H108A4 4 0 0 1 108 80H20zM60 56A4 4 0 0 1 60 48H108A4 4 0 0 1 108 56H60zM60 32A4 4 0 0 1 60 24H108A4 4 0 0 1 108 32H60zM20 8A4 4 0 0 1 20 0H108A4 4 0 0 1 108 8H20zM26.32 50.984C27.216 51.608 28.4 52.344 29.872 53.184L28.192 56C27.216 55.408 26.016 54.64 24.576 53.704C23.136 52.768 21.776 51.624 20.496 50.28A19.4 19.4 0 0 1 17.312 45.784C16.432 44.128 16 42.28 16 40.248C16 37.368 16.576 35.048 17.736 33.264C18.888 31.512 20.816 30.64 23.496 30.64C25.216 30.64 26.56 31.2 27.528 32.328A5.576 5.576 0 0 1 29.032 36.032C29.032 37.872 28.472 39.264 27.344 40.2C26.248 41.168 24.736 41.656 22.8 41.656H20.544C20.736 43.28 21.064 44.616 21.528 45.64A11.04 11.04 0 0 0 23.544 48.6A15.52 15.52 0 0 0 26.312 50.984zM43.656 50.984C44.56 51.608 45.752 52.344 47.216 53.184L45.536 56C44.56 55.408 43.36 54.64 41.92 53.704C40.48 52.768 39.12 51.624 37.84 50.28A19.4 19.4 0 0 1 34.656 45.784C33.776 44.128 33.344 42.28 33.344 40.248C33.344 37.368 33.92 35.048 35.08 33.264C36.232 31.512 38.16 30.64 40.84 30.64C42.56 30.64 43.904 31.2 44.872 32.328A5.576 5.576 0 0 1 46.376 36.032C46.376 37.872 45.816 39.264 44.688 40.2C43.592 41.168 42.08 41.656 40.144 41.656H37.888A14 14 0 0 0 38.832 45.592C39.296 46.632 39.984 47.624 40.888 48.592A15.52 15.52 0 0 0 43.656 50.992z" />
    <glyph glyph-name="blockquote-right"
      unicode="&#xE0A9;"
      horiz-adv-x="128" d="M20 80A4 4 0 0 1 20 72H108A4 4 0 0 1 108 80H20zM20 56A4 4 0 0 1 20 48H68A4 4 0 0 1 68 56H20zM20 32A4 4 0 0 1 20 24H68A4 4 0 0 1 68 32H20zM20 8A4 4 0 0 1 20 0H108A4 4 0 0 1 108 8H20zM100.904 50.984A52.72 52.72 0 0 1 97.344 53.184L99.024 56C100 55.408 101.2 54.64 102.64 53.704C104.08 52.768 105.44 51.624 106.72 50.28C107.968 48.968 109.032 47.472 109.904 45.784C110.784 44.128 111.216 42.28 111.216 40.248C111.216 37.368 110.64 35.048 109.488 33.264C108.328 31.512 106.408 30.64 103.72 30.64C102 30.64 100.656 31.2 99.688 32.328A5.576 5.576 0 0 0 98.184 36.032C98.184 37.872 98.744 39.264 99.872 40.2C100.968 41.168 102.48 41.656 104.424 41.656H106.672A13.488 13.488 0 0 1 105.688 45.64A11.032 11.032 0 0 1 103.672 48.6A15.52 15.52 0 0 1 100.904 50.984zM83.56 50.984A52.72 52.72 0 0 1 80 53.184L81.68 56C82.656 55.408 83.856 54.64 85.296 53.704C86.736 52.768 88.096 51.624 89.376 50.28C90.624 48.968 91.688 47.472 92.56 45.784C93.44 44.128 93.872 42.28 93.872 40.248C93.872 37.368 93.296 35.048 92.144 33.264C90.984 31.512 89.064 30.64 86.376 30.64C84.656 30.64 83.312 31.2 82.344 32.328A5.576 5.576 0 0 0 80.84 36.032C80.84 37.872 81.4 39.264 82.528 40.2C83.624 41.168 85.144 41.656 87.08 41.656H89.328A13.992 13.992 0 0 1 88.392 45.592A11.216 11.216 0 0 1 86.328 48.592A15.52 15.52 0 0 1 83.56 50.992z" />
    <glyph glyph-name="bluetooth"
      unicode="&#xE0AA;"
      horiz-adv-x="128" d="M68.344 72.416L78.872 61.888L68.344 51.36V72.416zM68.344 7.584L78.872 18.112L68.344 28.64V7.584zM57.064 39.928L34.2 62.936L40.816 69.552L59.016 51.36V94.976L92.112 61.888L70.296 39.92L92.256 17.96L59.168 -15.136V28.64L40.816 10.448L34.2 17.064L57.064 39.92zM63.224 -24C91.208 -24 110.456 -10.76 110.456 40.08C110.456 90.76 91.208 104 63.232 104C35.256 104 16 90.76 16 39.92C16 -10.752 35.256 -24 63.232 -24z" />
    <glyph glyph-name="body-text"
      unicode="&#xE0AB;"
      horiz-adv-x="128" d="M0 100A4 4 0 0 0 4 104H36A4 4 0 0 0 36 96H4A4 4 0 0 0 0 100zM0 84A4 4 0 0 0 4 88H60A4 4 0 0 0 60 80H4A4 4 0 0 0 0 84zM72 84A4 4 0 0 0 76 88H116A4 4 0 0 0 116 80H76A4 4 0 0 0 72 84zM0 68A4 4 0 0 0 4 72H28A4 4 0 0 0 28 64H4A4 4 0 0 0 0 68zM40 68A4 4 0 0 0 44 72H84A4 4 0 0 0 84 64H44A4 4 0 0 0 40 68zM96 68A4 4 0 0 0 100 72H124A4 4 0 0 0 124 64H100A4 4 0 0 0 96 68zM0 52A4 4 0 0 0 4 56H52A4 4 0 0 0 52 48H4A4 4 0 0 0 0 52zM64 52A4 4 0 0 0 68 56H108A4 4 0 0 0 108 48H68A4 4 0 0 0 64 52zM0 36A4 4 0 0 0 4 40H44A4 4 0 0 0 44 32H4A4 4 0 0 0 0 36zM56 36A4 4 0 0 0 60 40H116A4 4 0 0 0 116 32H60A4 4 0 0 0 56 36zM0 20A4 4 0 0 0 4 24H68A4 4 0 0 0 68 16H4A4 4 0 0 0 0 20zM0 4A4 4 0 0 0 4 8H36A4 4 0 0 0 36 0H4A4 4 0 0 0 0 4zM0 -12A4 4 0 0 0 4 -8H20A4 4 0 0 0 20 -16H4A4 4 0 0 0 0 -12z" />
    <glyph glyph-name="book-fill"
      unicode="&#xE0AC;"
      horiz-adv-x="128" d="M64 89.736C56.12 96.512 44.696 97.52 34.296 96.48C22.184 95.256 9.96 91.104 2.344 87.64A4 4 0 0 1 0 84V-4A4 4 0 0 1 5.656 -7.64C12.712 -4.44 24.08 -0.592 35.096 0.52C46.368 1.656 55.816 -0.176 60.88 -6.496A4 4 0 0 1 67.12 -6.496C72.184 -0.176 81.632 1.656 92.896 0.52C103.92 -0.592 115.296 -4.44 122.344 -7.64A4 4 0 0 1 128 -4V84A4 4 0 0 1 125.656 87.64C118.04 91.104 105.816 95.256 93.704 96.48C83.304 97.528 71.88 96.512 64 89.736z" />
    <glyph glyph-name="book-half"
      unicode="&#xE0AD;"
      horiz-adv-x="128" d="M68 82.504C73.232 88.016 82.256 89.592 92.896 88.52C102.768 87.528 112.92 84.336 120 81.376V1.992C112.656 4.792 103.144 7.528 93.704 8.472C84.952 9.36 75.48 8.784 68 4.536V82.504zM64 89.736C56.12 96.512 44.696 97.52 34.296 96.48C22.184 95.256 9.96 91.104 2.344 87.64A4 4 0 0 1 0 84V-4A4 4 0 0 1 5.656 -7.64C12.712 -4.44 24.08 -0.592 35.096 0.52C46.368 1.656 55.816 -0.176 60.88 -6.496A4 4 0 0 1 67.12 -6.496C72.184 -0.176 81.632 1.656 92.896 0.52C103.92 -0.592 115.296 -4.44 122.344 -7.64A4 4 0 0 1 128 -4V84A4 4 0 0 1 125.656 87.64C118.04 91.104 105.816 95.256 93.704 96.48C83.304 97.528 71.88 96.512 64 89.736z" />
    <glyph glyph-name="book"
      unicode="&#xE0AE;"
      horiz-adv-x="128" d="M8 81.376C15.08 84.336 25.232 87.528 35.104 88.52C45.744 89.592 54.768 88.016 60 82.504V4.536C52.52 8.776 43.04 9.36 34.296 8.48C24.856 7.52 15.336 4.792 8 1.992V81.376zM68 82.504C73.232 88.016 82.256 89.592 92.896 88.52C102.768 87.528 112.92 84.336 120 81.376V1.992C112.656 4.792 103.144 7.528 93.704 8.472C84.952 9.36 75.48 8.784 68 4.536V82.504zM64 89.736C56.12 96.512 44.696 97.52 34.296 96.48C22.184 95.256 9.96 91.104 2.344 87.64A4 4 0 0 1 0 84V-4A4 4 0 0 1 5.656 -7.64C12.712 -4.44 24.08 -0.592 35.096 0.52C46.368 1.656 55.816 -0.176 60.88 -6.496A4 4 0 0 1 67.12 -6.496C72.184 -0.176 81.632 1.656 92.896 0.52C103.92 -0.592 115.296 -4.44 122.344 -7.64A4 4 0 0 1 128 -4V84A4 4 0 0 1 125.656 87.64C118.04 91.104 105.816 95.256 93.704 96.48C83.304 97.528 71.88 96.512 64 89.736z" />
    <glyph glyph-name="bookmark-check-fill"
      unicode="&#xE0AF;"
      horiz-adv-x="128" d="M16 -20V88A16 16 0 0 0 32 104H96A16 16 0 0 0 112 88V-20A4 4 0 0 0 106.08 -23.512L64 -0.552L21.92 -23.512A4 4 0 0 0 16 -20zM86.832 57.168A4 4 0 0 1 81.168 62.832L60 41.656L50.832 50.832A4 4 0 1 1 45.168 45.168L57.168 33.168A4 4 0 0 1 62.832 33.168L86.832 57.168z" />
    <glyph glyph-name="bookmark-check"
      unicode="&#xE0B0;"
      horiz-adv-x="128" d="M86.832 62.832A4 4 0 0 0 86.832 57.168L62.832 33.168A4 4 0 0 0 57.168 33.168L45.168 45.168A4 4 0 1 0 50.832 50.832L60 41.656L81.168 62.832A4 4 0 0 0 86.832 62.832zM16 88A16 16 0 0 0 32 104H96A16 16 0 0 0 112 88V-20A4 4 0 0 0 105.784 -23.328L64 -0.808L22.216 -23.328A4 4 0 0 0 16 -20V88zM32 96A8 8 0 0 1 24 88V-12.528L61.784 7.328A4 4 0 0 0 66.216 7.328L104 -12.528V88A8 8 0 0 1 96 96H32z" />
    <glyph glyph-name="bookmark-dash-fill"
      unicode="&#xE0B1;"
      horiz-adv-x="128" d="M16 -20V88A16 16 0 0 0 32 104H96A16 16 0 0 0 112 88V-20A4 4 0 0 0 106.08 -23.512L64 -0.552L21.92 -23.512A4 4 0 0 0 16 -20zM48 56A4 4 0 0 1 48 48H80A4 4 0 0 1 80 56H48z" />
    <glyph glyph-name="bookmark-dash"
      unicode="&#xE0B2;"
      horiz-adv-x="128" d="M44 52A4 4 0 0 0 48 56H80A4 4 0 0 0 80 48H48A4 4 0 0 0 44 52zM16 88A16 16 0 0 0 32 104H96A16 16 0 0 0 112 88V-20A4 4 0 0 0 105.784 -23.328L64 -0.808L22.216 -23.328A4 4 0 0 0 16 -20V88zM32 96A8 8 0 0 1 24 88V-12.528L61.784 7.328A4 4 0 0 0 66.216 7.328L104 -12.528V88A8 8 0 0 1 96 96H32z" />
    <glyph glyph-name="bookmark-fill"
      unicode="&#xE0B3;"
      horiz-adv-x="128" d="M16 88V-20A4 4 0 0 1 21.92 -23.512L64 -0.552L106.08 -23.512A4 4 0 0 1 112 -20V88A16 16 0 0 1 96 104H32A16 16 0 0 1 16 88z" />
    <glyph glyph-name="bookmark-heart-fill"
      unicode="&#xE0B4;"
      horiz-adv-x="128" d="M16 -20A4 4 0 0 1 21.92 -23.512L64 -0.552L106.08 -23.512A4 4 0 0 1 112 -20V88A16 16 0 0 1 96 104H32A16 16 0 0 1 16 88V-20zM64 68.72C75.096 80.12 102.832 60.16 64 34.504C25.168 60.16 52.904 80.112 64 68.704z" />
    <glyph glyph-name="bookmark-heart"
      unicode="&#xE0B5;"
      horiz-adv-x="128" d="M64 68.72C75.096 80.12 102.832 60.16 64 34.504C25.168 60.16 52.904 80.112 64 68.704zM16 88A16 16 0 0 0 32 104H96A16 16 0 0 0 112 88V-20A4 4 0 0 0 105.784 -23.328L64 -0.808L22.216 -23.328A4 4 0 0 0 16 -20V88zM32 96A8 8 0 0 1 24 88V-12.528L61.784 7.328A4 4 0 0 0 66.216 7.328L104 -12.528V88A8 8 0 0 1 96 96H32z" />
    <glyph glyph-name="bookmark-plus-fill"
      unicode="&#xE0B6;"
      horiz-adv-x="128" d="M16 -20V88A16 16 0 0 0 32 104H96A16 16 0 0 0 112 88V-20A4 4 0 0 0 106.08 -23.512L64 -0.552L21.92 -23.512A4 4 0 0 0 16 -20zM68 68A4 4 0 0 1 60 68V56H48A4 4 0 0 1 48 48H60V36A4 4 0 0 1 68 36V48H80A4 4 0 0 1 80 56H68V68z" />
    <glyph glyph-name="bookmark-plus"
      unicode="&#xE0B7;"
      horiz-adv-x="128" d="M16 88A16 16 0 0 0 32 104H96A16 16 0 0 0 112 88V-20A4 4 0 0 0 105.784 -23.328L64 -0.808L22.216 -23.328A4 4 0 0 0 16 -20V88zM32 96A8 8 0 0 1 24 88V-12.528L61.784 7.328A4 4 0 0 0 66.216 7.328L104 -12.528V88A8 8 0 0 1 96 96H32zM64 72A4 4 0 0 0 68 68V56H80A4 4 0 0 0 80 48H68V36A4 4 0 0 0 60 36V48H48A4 4 0 0 0 48 56H60V68A4 4 0 0 0 64 72z" />
    <glyph glyph-name="bookmark-star-fill"
      unicode="&#xE0B8;"
      horiz-adv-x="128" d="M16 -20V88A16 16 0 0 0 32 104H96A16 16 0 0 0 112 88V-20A4 4 0 0 0 106.08 -23.512L64 -0.552L21.92 -23.512A4 4 0 0 0 16 -20zM65.28 71.2A1.424 1.424 0 0 1 62.72 71.2L57.648 60.92A1.424 1.424 0 0 0 56.576 60.136L45.216 58.488A1.424 1.424 0 0 1 44.432 56.064L52.64 48.056C52.976 47.728 53.128 47.256 53.048 46.792L51.12 35.48A1.424 1.424 0 0 1 53.184 33.984L63.344 39.328A1.424 1.424 0 0 0 64.664 39.328L74.824 33.984A1.424 1.424 0 0 1 76.88 35.48L74.944 46.8A1.424 1.424 0 0 0 75.344 48.064L83.568 56.072A1.424 1.424 0 0 1 82.784 58.496L71.424 60.144A1.424 1.424 0 0 0 70.352 60.928L65.28 71.2z" />
    <glyph glyph-name="bookmark-star"
      unicode="&#xE0B9;"
      horiz-adv-x="128" d="M62.72 71.2A1.424 1.424 0 0 0 65.28 71.2L70.352 60.92A1.424 1.424 0 0 1 71.424 60.136L82.784 58.488C83.944 58.32 84.416 56.888 83.568 56.064L75.36 48.056A1.424 1.424 0 0 1 74.952 46.792L76.888 35.48A1.424 1.424 0 0 0 74.824 33.984L64.664 39.328A1.424 1.424 0 0 1 63.344 39.328L53.184 33.984A1.424 1.424 0 0 0 51.128 35.48L53.064 46.792A1.424 1.424 0 0 1 52.664 48.056L44.424 56.064A1.424 1.424 0 0 0 45.208 58.488L56.568 60.136A1.424 1.424 0 0 1 57.64 60.92L62.72 71.2zM16 88A16 16 0 0 0 32 104H96A16 16 0 0 0 112 88V-20A4 4 0 0 0 105.784 -23.328L64 -0.808L22.216 -23.328A4 4 0 0 0 16 -20V88zM32 96A8 8 0 0 1 24 88V-12.528L61.784 7.328A4 4 0 0 0 66.216 7.328L104 -12.528V88A8 8 0 0 1 96 96H32z" />
    <glyph glyph-name="bookmark-x-fill"
      unicode="&#xE0BA;"
      horiz-adv-x="128" d="M16 -20V88A16 16 0 0 0 32 104H96A16 16 0 0 0 112 88V-20A4 4 0 0 0 106.08 -23.512L64 -0.552L21.92 -23.512A4 4 0 0 0 16 -20zM54.832 62.832A4 4 0 1 1 49.168 57.168L58.344 48L49.168 38.832A4 4 0 1 1 54.832 33.168L64 42.344L73.168 33.168A4 4 0 1 1 78.832 38.832L69.656 48L78.832 57.168A4 4 0 0 1 73.168 62.832L64 53.656L54.832 62.832z" />
    <glyph glyph-name="bookmark-x"
      unicode="&#xE0BB;"
      horiz-adv-x="128" d="M49.168 62.832A4 4 0 0 0 54.832 62.832L64 53.656L73.168 62.832A4 4 0 1 0 78.832 57.168L69.656 48L78.832 38.832A4 4 0 0 0 73.168 33.168L64 42.344L54.832 33.168A4 4 0 1 0 49.168 38.832L58.344 48L49.168 57.168A4 4 0 0 0 49.168 62.832zM16 88A16 16 0 0 0 32 104H96A16 16 0 0 0 112 88V-20A4 4 0 0 0 105.784 -23.328L64 -0.808L22.216 -23.328A4 4 0 0 0 16 -20V88zM32 96A8 8 0 0 1 24 88V-12.528L61.784 7.328A4 4 0 0 0 66.216 7.328L104 -12.528V88A8 8 0 0 1 96 96H32z" />
    <glyph glyph-name="bookmark"
      unicode="&#xE0BC;"
      horiz-adv-x="128" d="M16 88A16 16 0 0 0 32 104H96A16 16 0 0 0 112 88V-20A4 4 0 0 0 105.784 -23.328L64 -0.808L22.216 -23.328A4 4 0 0 0 16 -20V88zM32 96A8 8 0 0 1 24 88V-12.528L61.784 7.328A4 4 0 0 0 66.216 7.328L104 -12.528V88A8 8 0 0 1 96 96H32z" />
    <glyph glyph-name="bookmarks-fill"
      unicode="&#xE0BD;"
      horiz-adv-x="128" d="M16 72A16 16 0 0 0 32 88H80A16 16 0 0 0 96 72V-20A4 4 0 0 0 89.784 -23.328L56 -0.808L22.216 -23.328A4 4 0 0 0 16 -20V72zM34.144 96A16 16 0 0 0 48 104H96A16 16 0 0 0 112 88V-4A4 4 0 0 0 105.784 -7.328L104 -6.144V88A8 8 0 0 1 96 96H34.144z" />
    <glyph glyph-name="bookmarks"
      unicode="&#xE0BE;"
      horiz-adv-x="128" d="M16 72A16 16 0 0 0 32 88H80A16 16 0 0 0 96 72V-20A4 4 0 0 0 89.784 -23.328L56 -0.808L22.216 -23.328A4 4 0 0 0 16 -20V72zM32 80A8 8 0 0 1 24 72V-12.528L53.784 7.328A4 4 0 0 0 58.216 7.328L88 -12.528V72A8 8 0 0 1 80 80H32zM34.144 96H96A8 8 0 0 0 104 88V-6.144L105.784 -7.328A4 4 0 0 1 112 -4V88A16 16 0 0 1 96 104H48A16 16 0 0 1 34.144 96z" />
    <glyph glyph-name="bookshelf"
      unicode="&#xE0BF;"
      horiz-adv-x="128" d="M20 104A4 4 0 0 0 24 100V88H104V100A4 4 0 0 0 112 100V-20A4 4 0 0 0 104 -20V-16H24V-20A4 4 0 0 0 16 -20V100A4 4 0 0 0 20 104zM24 -8H104V16H24V-8zM24 24H104V48H24V24zM24 56H104V80H24V56z" />
    <glyph glyph-name="boombox-fill"
      unicode="&#xE0C0;"
      horiz-adv-x="128" d="M116 100A4 4 0 0 1 108 100V88H8A8 8 0 0 1 0 80V64H128V80A8 8 0 0 1 120 88H116V100zM20 72A4 4 0 1 0 20 80A4 4 0 0 0 20 72zM36 72A4 4 0 1 0 36 80A4 4 0 0 0 36 72zM96 76A4 4 0 1 0 88 76A4 4 0 0 0 96 76zM108 72A4 4 0 1 0 108 80A4 4 0 0 0 108 72zM52 80H76A4 4 0 0 0 76 72H52A4 4 0 0 0 52 80zM36 8A12 12 0 1 1 36 32A12 12 0 0 1 36 8zM40 20A4 4 0 1 0 32 20A4 4 0 0 0 40 20zM92 8A12 12 0 1 1 92 32A12 12 0 0 1 92 8zM92 16A4 4 0 1 1 92 24A4 4 0 0 1 92 16zM128 56H0V-8A8 8 0 0 1 8 -16H120A8 8 0 0 1 128 -8V56zM36 0A20 20 0 1 0 36 40A20 20 0 0 0 36 0zM92 0A20 20 0 1 0 92 40A20 20 0 0 0 92 0z" />
    <glyph glyph-name="boombox"
      unicode="&#xE0C1;"
      horiz-adv-x="128" d="M20 64A4 4 0 1 1 20 72A4 4 0 0 1 20 64zM36 64A4 4 0 1 1 36 72A4 4 0 0 1 36 64zM96 68A4 4 0 1 0 88 68A4 4 0 0 0 96 68zM108 64A4 4 0 1 1 108 72A4 4 0 0 1 108 64zM52 72A4 4 0 0 1 52 64H76A4 4 0 0 1 76 72H52zM96 20A4 4 0 1 0 88 20A4 4 0 0 0 96 20zM92 0A20 20 0 1 1 92 40A20 20 0 0 1 92 0zM92 8A12 12 0 1 0 92 32A12 12 0 0 0 92 8zM40 20A4 4 0 1 0 32 20A4 4 0 0 0 40 20zM56 20A20 20 0 1 0 16 20A20 20 0 0 0 56 20zM48 20A12 12 0 1 1 24 20A12 12 0 0 1 48 20zM112 104A4 4 0 0 0 116 100V88H120A8 8 0 0 0 128 80V-8A8 8 0 0 0 120 -16H8A8 8 0 0 0 0 -8V80A8 8 0 0 0 8 88H108V100A4 4 0 0 0 112 104zM8 80V56H120V80H8zM120 48H8V-8H120V48z" />
    </font>
</defs>
</svg>
